<svg width="28" height="28" viewBox="0 0 28 28" fill="none" xmlns="http://www.w3.org/2000/svg">
<path fill-rule="evenodd" clip-rule="evenodd" d="M14 0.666748C14.5664 0.666748 15.0256 1.12594 15.0256 1.69239V12.9744H26.3077C26.8741 12.9744 27.3333 13.4336 27.3333 14.0001C27.3333 14.5665 26.8741 15.0257 26.3077 15.0257H15.0256V26.3078C15.0256 26.8742 14.5664 27.3334 14 27.3334C13.4335 27.3334 12.9743 26.8742 12.9743 26.3078V15.0257H1.69227C1.12582 15.0257 0.666626 14.5665 0.666626 14.0001C0.666626 13.4336 1.12582 12.9744 1.69227 12.9744H12.9743V1.69239C12.9743 1.12594 13.4335 0.666748 14 0.666748Z" fill="#7364DB"/>
</svg>
