<svg width="13" height="12" viewBox="0 0 13 12" fill="none" xmlns="http://www.w3.org/2000/svg">
<g clip-path="url(#clip0_1531_28243)">
<path d="M11 2H9.5V1C9.5 0.734784 9.39464 0.48043 9.20711 0.292893C9.01957 0.105357 8.76522 0 8.5 0L4.5 0C4.23478 0 3.98043 0.105357 3.79289 0.292893C3.60536 0.48043 3.5 0.734784 3.5 1V2H2C1.60218 2 1.22064 2.15804 0.93934 2.43934C0.658035 2.72064 0.5 3.10218 0.5 3.5L0.5 12H12.5V3.5C12.5 3.10218 12.342 2.72064 12.0607 2.43934C11.7794 2.15804 11.3978 2 11 2ZM4.5 1H8.5V2H4.5V1ZM2 3H11C11.1326 3 11.2598 3.05268 11.3536 3.14645C11.4473 3.24021 11.5 3.36739 11.5 3.5V6H1.5V3.5C1.5 3.36739 1.55268 3.24021 1.64645 3.14645C1.74021 3.05268 1.86739 3 2 3ZM1.5 11V7H6V8H7V7H11.5V11H1.5Z" fill="#9A9AAF"/>
</g>
<defs>
<clipPath id="clip0_1531_28243">
<rect width="12" height="12" fill="white" transform="translate(0.5)"/>
</clipPath>
</defs>
</svg>
