<svg width="13" height="12" viewBox="0 0 13 12" fill="none" xmlns="http://www.w3.org/2000/svg">
<g clip-path="url(#clip0_1531_28248)">
<path d="M6.5 12C5.31331 12 4.15328 11.6481 3.16658 10.9888C2.17989 10.3295 1.41085 9.39246 0.956726 8.2961C0.5026 7.19975 0.38378 5.99335 0.615291 4.82946C0.846802 3.66558 1.41825 2.59648 2.25736 1.75736C3.09648 0.918247 4.16558 0.346802 5.32946 0.115291C6.49335 -0.11622 7.69975 0.00259972 8.7961 0.456726C9.89246 0.910851 10.8295 1.67989 11.4888 2.66658C12.1481 3.65328 12.5 4.81331 12.5 6C12.4983 7.59077 11.8656 9.1159 10.7407 10.2407C9.6159 11.3656 8.09077 11.9983 6.5 12ZM6.5 1C5.5111 1 4.5444 1.29325 3.72215 1.84265C2.89991 2.39206 2.25904 3.17296 1.88061 4.08659C1.50217 5.00022 1.40315 6.00555 1.59608 6.97545C1.789 7.94536 2.26521 8.83627 2.96447 9.53554C3.66373 10.2348 4.55465 10.711 5.52455 10.9039C6.49446 11.0969 7.49979 10.9978 8.41342 10.6194C9.32705 10.241 10.1079 9.6001 10.6574 8.77785C11.2068 7.95561 11.5 6.98891 11.5 6C11.4985 4.67437 10.9713 3.40344 10.0339 2.46608C9.09656 1.52871 7.82564 1.00146 6.5 1Z" fill="#9A9AAF"/>
<path d="M4.47351 7.799L3.94301 6.951L6.00001 5.6625V3H7.00001V6.2165L4.47351 7.799Z" fill="#9A9AAF"/>
</g>
<defs>
<clipPath id="clip0_1531_28248">
<rect width="12" height="12" fill="white" transform="translate(0.5)"/>
</clipPath>
</defs>
</svg>
