<svg width="16" height="16" viewBox="0 0 16 16" fill="none" xmlns="http://www.w3.org/2000/svg">
<path d="M7.99999 10.8867C6.40666 10.8867 5.11333 9.59333 5.11333 8C5.11333 6.40667 6.40666 5.11333 7.99999 5.11333C9.59333 5.11333 10.8867 6.40667 10.8867 8C10.8867 9.59333 9.59333 10.8867 7.99999 10.8867ZM7.99999 6.11333C6.95999 6.11333 6.11333 6.96 6.11333 8C6.11333 9.04 6.95999 9.88667 7.99999 9.88667C9.03999 9.88667 9.88666 9.04 9.88666 8C9.88666 6.96 9.03999 6.11333 7.99999 6.11333Z" fill="#9A9AAF"/>
<path d="M8 14.0133C5.49333 14.0133 3.12667 12.5467 1.5 10C0.793335 8.9 0.793335 7.10666 1.5 6C3.13333 3.45333 5.5 1.98666 8 1.98666C10.5 1.98666 12.8667 3.45333 14.4933 6C15.2 7.1 15.2 8.89333 14.4933 10C12.8667 12.5467 10.5 14.0133 8 14.0133ZM8 2.98666C5.84667 2.98666 3.78667 4.28 2.34667 6.54C1.84667 7.32 1.84667 8.68 2.34667 9.46C3.78667 11.72 5.84667 13.0133 8 13.0133C10.1533 13.0133 12.2133 11.72 13.6533 9.46C14.1533 8.68 14.1533 7.32 13.6533 6.54C12.2133 4.28 10.1533 2.98666 8 2.98666Z" fill="#9A9AAF"/>
</svg>
