<svg width="44" height="49" viewBox="0 0 44 49" fill="none" xmlns="http://www.w3.org/2000/svg">
<mask id="mask0_1628_44387" style="mask-type:alpha" maskUnits="userSpaceOnUse" x="0" y="0" width="44" height="49">
<path d="M40.0394 48.123H4.41588C2.51747 48.123 0.978516 46.5841 0.978516 44.6857V3.43736C0.978516 1.53896 2.51747 0 4.41588 0H27.5399L43.4768 15.9368V44.6857C43.4768 46.5841 41.9378 48.123 40.0394 48.123Z" fill="url(#paint0_linear_1628_44387)"/>
</mask>
<g mask="url(#mask0_1628_44387)">
<path d="M40.0384 48.123H4.4149C2.5165 48.123 0.977539 46.5841 0.977539 44.6857V3.43736C0.977539 1.53896 2.5165 0 4.4149 0H27.539L43.4758 15.9368V44.6857C43.4758 46.5841 41.9368 48.123 40.0384 48.123Z" fill="url(#paint1_linear_1628_44387)"/>
<g filter="url(#filter0_f_1628_44387)">
<rect x="8.47656" y="23.2803" width="27.8114" height="13.1245" fill="#5552E9" fill-opacity="0.39" style="mix-blend-mode:darken"/>
</g>
<path d="M16.5946 33.7787C15.747 33.7787 14.994 33.5936 14.3357 33.2233C13.6774 32.8447 13.1672 32.3222 12.8052 31.6557C12.4431 30.9809 12.2621 30.2156 12.2621 29.3598C12.2621 28.4876 12.4513 27.7141 12.8299 27.0393C13.2084 26.3645 13.7227 25.842 14.3728 25.4717C15.0311 25.1014 15.7593 24.9163 16.5575 24.9163C17.1994 24.9163 17.7589 24.9944 18.2362 25.1508C18.7217 25.3071 19.1866 25.5252 19.631 25.805C19.6968 25.8379 19.7544 25.8955 19.8038 25.9778C19.8532 26.0601 19.8779 26.1506 19.8779 26.2493C19.8779 26.3892 19.8285 26.5085 19.7297 26.6073C19.6392 26.706 19.5158 26.7554 19.3594 26.7554C19.2689 26.7554 19.1825 26.7348 19.1002 26.6937C18.7135 26.4633 18.3267 26.2905 17.94 26.1753C17.5532 26.0601 17.1335 26.0025 16.681 26.0025C16.0556 26.0025 15.4919 26.1341 14.9899 26.3974C14.488 26.6608 14.093 27.0475 13.805 27.5577C13.5252 28.0597 13.3853 28.6604 13.3853 29.3598C13.3853 30.0017 13.517 30.5777 13.7803 31.0879C14.0518 31.5898 14.4386 31.9889 14.9406 32.2852C15.4507 32.5732 16.0515 32.7172 16.7427 32.7172C17.5162 32.7172 18.2362 32.5362 18.9027 32.1741V29.94H16.8661C16.7262 29.94 16.6069 29.8906 16.5082 29.7918C16.4094 29.6931 16.36 29.5738 16.36 29.4339C16.36 29.294 16.4094 29.1747 16.5082 29.0759C16.6069 28.9772 16.7262 28.9278 16.8661 28.9278H19.2977C19.4623 28.9278 19.6022 28.9854 19.7174 29.1006C19.8326 29.2158 19.8902 29.3557 19.8902 29.5203V32.3222C19.8902 32.495 19.8449 32.6514 19.7544 32.7912C19.6721 32.9229 19.561 33.0217 19.4212 33.0875C18.4995 33.5483 17.5573 33.7787 16.5946 33.7787ZM23.5418 33.717C23.3854 33.717 23.2538 33.6635 23.1468 33.5565C23.0398 33.4496 22.9863 33.3179 22.9863 33.1615V25.5458C22.9863 25.3894 23.0398 25.2578 23.1468 25.1508C23.2538 25.0356 23.3854 24.978 23.5418 24.978C23.6981 24.978 23.8298 25.0356 23.9368 25.1508C24.052 25.2578 24.1096 25.3894 24.1096 25.5458V33.1615C24.1096 33.3179 24.052 33.4496 23.9368 33.5565C23.8298 33.6635 23.6981 33.717 23.5418 33.717ZM27.9256 33.717C27.7692 33.717 27.6375 33.6635 27.5306 33.5565C27.4236 33.4496 27.3701 33.3179 27.3701 33.1615V25.6075C27.3701 25.4511 27.4236 25.3195 27.5306 25.2125C27.6375 25.0973 27.7692 25.0397 27.9256 25.0397H32.7271C32.8752 25.0397 32.9986 25.0932 33.0974 25.2002C33.2044 25.2989 33.2578 25.4223 33.2578 25.5704C33.2578 25.7186 33.2044 25.842 33.0974 25.9407C32.9986 26.0395 32.8752 26.0889 32.7271 26.0889H28.4933V28.8167H32.2951C32.4432 28.8167 32.5666 28.8702 32.6654 28.9772C32.7723 29.0759 32.8258 29.1994 32.8258 29.3475C32.8258 29.4956 32.7723 29.619 32.6654 29.7178C32.5666 29.8165 32.4432 29.8659 32.2951 29.8659H28.4933V33.1615C28.4933 33.3179 28.4357 33.4496 28.3205 33.5565C28.2136 33.6635 28.0819 33.717 27.9256 33.717Z" fill="white"/>
<path d="M14.3357 33.2233L14.18 33.4942L14.1825 33.4956L14.3357 33.2233ZM12.8052 31.6557L12.5298 31.8034L12.5306 31.8048L12.8052 31.6557ZM12.8299 27.0393L13.1024 27.1922L12.8299 27.0393ZM14.3728 25.4717L14.2196 25.1993L14.2181 25.2002L14.3728 25.4717ZM18.2362 25.1508L18.1389 25.4477L18.1404 25.4482L18.2362 25.1508ZM19.631 25.805L19.4645 26.0694L19.4775 26.0776L19.4912 26.0845L19.631 25.805ZM19.8038 25.9778L19.5358 26.1385L19.5358 26.1385L19.8038 25.9778ZM19.7297 26.6073L19.5086 26.3861L19.4994 26.3961L19.7297 26.6073ZM19.1002 26.6937L18.9403 26.9621L18.9502 26.968L18.9605 26.9732L19.1002 26.6937ZM17.94 26.1753L18.0292 25.8758L17.94 26.1753ZM14.9899 26.3974L15.1351 26.6742V26.6742L14.9899 26.3974ZM13.805 27.5577L13.5329 27.4041L13.532 27.4056L13.805 27.5577ZM13.7803 31.0879L13.5026 31.2312L13.5054 31.2366L13.7803 31.0879ZM14.9406 32.2852L14.7817 32.5543L14.7869 32.5573L14.9406 32.2852ZM18.9027 32.1741L19.0519 32.4487L19.2152 32.36V32.1741H18.9027ZM18.9027 29.94H19.2152V29.6275H18.9027V29.94ZM19.7544 32.7912L19.492 32.6215L19.4894 32.6256L19.7544 32.7912ZM19.4212 33.0875L19.2881 32.8047L19.2814 32.808L19.4212 33.0875ZM16.5946 33.4662C15.794 33.4662 15.095 33.2918 14.4889 32.9509L14.1825 33.4956C14.8931 33.8953 15.7 34.0912 16.5946 34.0912V33.4662ZM14.4915 32.9524C13.8832 32.6026 13.4142 32.1222 13.0798 31.5065L12.5306 31.8048C12.9203 32.5222 13.4716 33.0869 14.18 33.4942L14.4915 32.9524ZM13.0805 31.5079C12.7456 30.8837 12.5746 30.1702 12.5746 29.3598H11.9496C11.9496 30.261 12.1406 31.0781 12.5298 31.8034L13.0805 31.5079ZM12.5746 29.3598C12.5746 28.5342 12.7533 27.8145 13.1024 27.1922L12.5573 26.8864C12.1494 27.6136 11.9496 28.441 11.9496 29.3598H12.5746ZM13.1024 27.1922C13.4541 26.5652 13.9284 26.0844 14.5274 25.7432L14.2181 25.2002C13.517 25.5996 12.9626 26.1639 12.5573 26.8864L13.1024 27.1922ZM14.526 25.7441C15.1348 25.4016 15.8098 25.2287 16.5575 25.2287V24.6038C15.7088 24.6038 14.9273 24.8012 14.2196 25.1993L14.526 25.7441ZM16.5575 25.2287C17.175 25.2287 17.7004 25.3041 18.1389 25.4477L18.3335 24.8538C17.8175 24.6848 17.2237 24.6038 16.5575 24.6038V25.2287ZM18.1404 25.4482C18.6003 25.5963 19.0416 25.8031 19.4645 26.0694L19.7975 25.5405C19.3317 25.2473 18.8431 25.0179 18.332 24.8533L18.1404 25.4482ZM19.4912 26.0845C19.4913 26.0845 19.4922 26.085 19.494 26.0863C19.4958 26.0876 19.4987 26.09 19.5026 26.0938C19.5105 26.1017 19.522 26.1155 19.5358 26.1385L20.0718 25.817C20.0009 25.699 19.9036 25.5919 19.7707 25.5255L19.4912 26.0845ZM19.5358 26.1385C19.5552 26.1708 19.5654 26.2055 19.5654 26.2493H20.1903C20.1903 26.0957 20.1511 25.9493 20.0718 25.817L19.5358 26.1385ZM19.5654 26.2493C19.5654 26.3065 19.5488 26.3463 19.5088 26.3863L19.9507 26.8282C20.1082 26.6708 20.1903 26.4719 20.1903 26.2493H19.5654ZM19.4994 26.3961C19.4781 26.4194 19.4442 26.4429 19.3594 26.4429V27.0679C19.5874 27.0679 19.8004 26.9927 19.9601 26.8184L19.4994 26.3961ZM19.3594 26.4429C19.3183 26.4429 19.2796 26.434 19.24 26.4142L18.9605 26.9732C19.0854 27.0357 19.2196 27.0679 19.3594 27.0679V26.4429ZM19.2602 26.4252C18.8537 26.1831 18.4434 25.9992 18.0292 25.8758L17.8508 26.4748C18.2101 26.5818 18.5732 26.7435 18.9403 26.9621L19.2602 26.4252ZM18.0292 25.8758C17.6102 25.751 17.1601 25.69 16.681 25.69V26.3149C17.107 26.3149 17.4962 26.3691 17.8508 26.4748L18.0292 25.8758ZM16.681 25.69C16.0103 25.69 15.396 25.8316 14.8448 26.1207L15.1351 26.6742C15.5878 26.4367 16.1008 26.3149 16.681 26.3149V25.69ZM14.8448 26.1207C14.2877 26.413 13.8494 26.8434 13.5329 27.4041L14.0771 27.7113C14.3366 27.2517 14.6883 26.9086 15.1351 26.6742L14.8448 26.1207ZM13.532 27.4056C13.2213 27.9631 13.0728 28.6186 13.0728 29.3598H13.6978C13.6978 28.7021 13.8292 28.1562 14.0779 27.7098L13.532 27.4056ZM13.0728 29.3598C13.0728 30.0456 13.2138 30.6717 13.5026 31.2312L14.058 30.9446C13.8201 30.4837 13.6978 29.9578 13.6978 29.3598H13.0728ZM13.5054 31.2366C13.8046 31.7896 14.232 32.2298 14.7817 32.5543L15.0994 32.0161C14.6452 31.748 14.2991 31.3901 14.0551 30.9392L13.5054 31.2366ZM14.7869 32.5573C15.3518 32.8762 16.0073 33.0297 16.7427 33.0297V32.4047C16.0956 32.4047 15.5497 32.2702 15.0942 32.0131L14.7869 32.5573ZM16.7427 33.0297C17.5672 33.0297 18.3386 32.8361 19.0519 32.4487L18.7536 31.8995C18.1338 32.2362 17.4652 32.4047 16.7427 32.4047V33.0297ZM19.2152 32.1741V29.94H18.5903V32.1741H19.2152ZM18.9027 29.6275H16.8661V30.2524H18.9027V29.6275ZM16.8661 29.6275C16.8089 29.6275 16.7691 29.6109 16.7291 29.5709L16.2872 30.0128C16.4447 30.1703 16.6435 30.2524 16.8661 30.2524V29.6275ZM16.7291 29.5709C16.6891 29.5308 16.6725 29.4911 16.6725 29.4339H16.0475C16.0475 29.6565 16.1297 29.8553 16.2872 30.0128L16.7291 29.5709ZM16.6725 29.4339C16.6725 29.3767 16.6891 29.3369 16.7291 29.2969L16.2872 28.855C16.1297 29.0124 16.0475 29.2113 16.0475 29.4339H16.6725ZM16.7291 29.2969C16.7691 29.2569 16.8089 29.2403 16.8661 29.2403V28.6153C16.6435 28.6153 16.4447 28.6975 16.2872 28.855L16.7291 29.2969ZM16.8661 29.2403H19.2977V28.6153H16.8661V29.2403ZM19.2977 29.2403C19.3804 29.2403 19.4405 29.2656 19.4964 29.3216L19.9384 28.8797C19.7639 28.7052 19.5442 28.6153 19.2977 28.6153V29.2403ZM19.4964 29.3216C19.5524 29.3775 19.5777 29.4376 19.5777 29.5203H20.2027C20.2027 29.2738 20.1128 29.0541 19.9384 28.8797L19.4964 29.3216ZM19.5777 29.5203V32.3222H20.2027V29.5203H19.5777ZM19.5777 32.3222C19.5777 32.4371 19.5486 32.5341 19.4921 32.6215L20.0168 32.961C20.1413 32.7686 20.2027 32.5529 20.2027 32.3222H19.5777ZM19.4894 32.6256C19.4388 32.7066 19.3734 32.7646 19.2881 32.8047L19.5542 33.3702C19.7487 33.2787 19.9055 33.1392 20.0194 32.9569L19.4894 32.6256ZM19.2814 32.808C18.4001 33.2487 17.5054 33.4662 16.5946 33.4662V34.0912C17.6092 34.0912 18.599 33.8479 19.5609 33.367L19.2814 32.808ZM23.1468 33.5565L23.3678 33.3356L23.1468 33.5565ZM23.1468 25.1508L23.3679 25.3719L23.3758 25.3634L23.1468 25.1508ZM23.9368 25.1508L23.7078 25.3634L23.7156 25.3719L23.7241 25.3798L23.9368 25.1508ZM23.9368 33.5565L23.724 33.3274L23.7158 33.3356L23.9368 33.5565ZM23.5418 33.4045C23.4652 33.4045 23.414 33.3818 23.3678 33.3356L22.9258 33.7775C23.0936 33.9452 23.3057 34.0295 23.5418 34.0295V33.4045ZM23.3678 33.3356C23.3215 33.2893 23.2988 33.2381 23.2988 33.1615H22.6738C22.6738 33.3977 22.7581 33.6098 22.9258 33.7775L23.3678 33.3356ZM23.2988 33.1615V25.5458H22.6738V33.1615H23.2988ZM23.2988 25.5458C23.2988 25.4692 23.3215 25.418 23.3678 25.3717L22.9258 24.9298C22.7581 25.0975 22.6738 25.3096 22.6738 25.5458H23.2988ZM23.3758 25.3634C23.424 25.3115 23.4729 25.2905 23.5418 25.2905V24.6655C23.298 24.6655 23.0835 24.7597 22.9178 24.9381L23.3758 25.3634ZM23.5418 25.2905C23.6107 25.2905 23.6596 25.3115 23.7078 25.3634L24.1657 24.9381C24 24.7597 23.7856 24.6655 23.5418 24.6655V25.2905ZM23.7241 25.3798C23.7761 25.428 23.7971 25.4769 23.7971 25.5458H24.4221C24.4221 25.302 24.3279 25.0875 24.1494 24.9218L23.7241 25.3798ZM23.7971 25.5458V33.1615H24.4221V25.5458H23.7971ZM23.7971 33.1615C23.7971 33.2305 23.7761 33.2793 23.7241 33.3275L24.1494 33.7855C24.3279 33.6198 24.4221 33.4053 24.4221 33.1615H23.7971ZM23.7158 33.3356C23.6696 33.3818 23.6183 33.4045 23.5418 33.4045V34.0295C23.7779 34.0295 23.99 33.9452 24.1577 33.7775L23.7158 33.3356ZM27.5306 33.5565L27.7515 33.3356L27.5306 33.5565ZM27.5306 25.2125L27.7517 25.4336L27.7596 25.4251L27.5306 25.2125ZM33.0974 25.2002L32.8678 25.4121L32.8762 25.4213L32.8854 25.4298L33.0974 25.2002ZM33.0974 25.9407L32.8853 25.7109L32.8764 25.7198L33.0974 25.9407ZM28.4933 26.0889V25.7764H28.1809V26.0889H28.4933ZM28.4933 28.8167H28.1809V29.1292H28.4933V28.8167ZM32.6654 28.9772L32.4357 29.1891L32.4442 29.1983L32.4534 29.2068L32.6654 28.9772ZM32.6654 29.7178L32.4532 29.488L32.4444 29.4968L32.6654 29.7178ZM28.4933 29.8659V29.5534H28.1809V29.8659H28.4933ZM28.3205 33.5565L28.1078 33.3274L28.0996 33.3356L28.3205 33.5565ZM27.9256 33.4045C27.849 33.4045 27.7978 33.3818 27.7515 33.3356L27.3096 33.7775C27.4773 33.9452 27.6894 34.0295 27.9256 34.0295V33.4045ZM27.7515 33.3356C27.7053 33.2893 27.6826 33.2381 27.6826 33.1615H27.0576C27.0576 33.3977 27.1419 33.6098 27.3096 33.7775L27.7515 33.3356ZM27.6826 33.1615V25.6075H27.0576V33.1615H27.6826ZM27.6826 25.6075C27.6826 25.5309 27.7053 25.4797 27.7515 25.4335L27.3096 24.9915C27.1419 25.1593 27.0576 25.3714 27.0576 25.6075H27.6826ZM27.7596 25.4251C27.8078 25.3732 27.8566 25.3522 27.9256 25.3522V24.7272C27.6818 24.7272 27.4673 24.8214 27.3016 24.9999L27.7596 25.4251ZM27.9256 25.3522H32.7271V24.7272H27.9256V25.3522ZM32.7271 25.3522C32.7897 25.3522 32.8293 25.3705 32.8678 25.4121L33.327 24.9882C33.1679 24.8159 32.9607 24.7272 32.7271 24.7272V25.3522ZM32.8854 25.4298C32.9271 25.4682 32.9454 25.5078 32.9454 25.5704H33.5703C33.5703 25.3368 33.4816 25.1296 33.3093 24.9705L32.8854 25.4298ZM32.9454 25.5704C32.9454 25.6331 32.9271 25.6727 32.8854 25.7111L33.3093 26.1704C33.4816 26.0113 33.5703 25.8041 33.5703 25.5704H32.9454ZM32.8764 25.7198C32.8401 25.7561 32.7979 25.7764 32.7271 25.7764V26.4014C32.9525 26.4014 33.1572 26.3229 33.3183 26.1617L32.8764 25.7198ZM32.7271 25.7764H28.4933V26.4014H32.7271V25.7764ZM28.1809 26.0889V28.8167H28.8058V26.0889H28.1809ZM28.4933 29.1292H32.2951V28.5042H28.4933V29.1292ZM32.2951 29.1292C32.3577 29.1292 32.3973 29.1475 32.4357 29.1891L32.895 28.7652C32.7359 28.5929 32.5287 28.5042 32.2951 28.5042V29.1292ZM32.4534 29.2068C32.495 29.2452 32.5133 29.2848 32.5133 29.3475H33.1383C33.1383 29.1139 33.0496 28.9066 32.8773 28.7476L32.4534 29.2068ZM32.5133 29.3475C32.5133 29.4101 32.495 29.4497 32.4534 29.4882L32.8773 29.9474C33.0496 29.7883 33.1383 29.5811 33.1383 29.3475H32.5133ZM32.4444 29.4968C32.4081 29.5331 32.3659 29.5534 32.2951 29.5534V30.1784C32.5205 30.1784 32.7251 30.0999 32.8863 29.9387L32.4444 29.4968ZM32.2951 29.5534H28.4933V30.1784H32.2951V29.5534ZM28.1809 29.8659V33.1615H28.8058V29.8659H28.1809ZM28.1809 33.1615C28.1809 33.2305 28.1598 33.2793 28.1079 33.3275L28.5332 33.7855C28.7117 33.6198 28.8058 33.4053 28.8058 33.1615H28.1809ZM28.0996 33.3356C28.0534 33.3818 28.0021 33.4045 27.9256 33.4045V34.0295C28.1617 34.0295 28.3738 33.9452 28.5415 33.7775L28.0996 33.3356Z" fill="white"/>
<g filter="url(#filter1_d_1628_44387)">
<path d="M43.4759 15.9368H30.9764C29.078 15.9368 27.5391 14.3979 27.5391 12.4995V0L43.4759 15.9368Z" fill="url(#paint2_linear_1628_44387)"/>
</g>
</g>
<defs>
<filter id="filter0_f_1628_44387" x="2.38306" y="17.1868" width="39.9985" height="25.3115" filterUnits="userSpaceOnUse" color-interpolation-filters="sRGB">
<feFlood flood-opacity="0" result="BackgroundImageFix"/>
<feBlend mode="normal" in="SourceGraphic" in2="BackgroundImageFix" result="shape"/>
<feGaussianBlur stdDeviation="3.04675" result="effect1_foregroundBlur_1628_44387"/>
</filter>
<filter id="filter1_d_1628_44387" x="23.9455" y="-3.74985" width="23.7487" height="23.7492" filterUnits="userSpaceOnUse" color-interpolation-filters="sRGB">
<feFlood flood-opacity="0" result="BackgroundImageFix"/>
<feColorMatrix in="SourceAlpha" type="matrix" values="0 0 0 0 0 0 0 0 0 0 0 0 0 0 0 0 0 0 127 0" result="hardAlpha"/>
<feOffset dx="0.312487" dy="0.156244"/>
<feGaussianBlur stdDeviation="1.95305"/>
<feColorMatrix type="matrix" values="0 0 0 0 0 0 0 0 0 0 0 0 0 0 0 0 0 0 0.33 0"/>
<feBlend mode="normal" in2="BackgroundImageFix" result="effect1_dropShadow_1628_44387"/>
<feBlend mode="normal" in="SourceGraphic" in2="effect1_dropShadow_1628_44387" result="shape"/>
</filter>
<linearGradient id="paint0_linear_1628_44387" x1="22.2276" y1="0" x2="22.2276" y2="48.123" gradientUnits="userSpaceOnUse">
<stop stop-color="#FF7979"/>
<stop offset="1" stop-color="#E85555"/>
</linearGradient>
<linearGradient id="paint1_linear_1628_44387" x1="22.2267" y1="0" x2="22.2267" y2="48.123" gradientUnits="userSpaceOnUse">
<stop stop-color="#A28AFF"/>
<stop offset="1" stop-color="#7655FB"/>
</linearGradient>
<linearGradient id="paint2_linear_1628_44387" x1="35.5075" y1="0" x2="35.5075" y2="15.9368" gradientUnits="userSpaceOnUse">
<stop stop-color="#8A71F1"/>
<stop offset="1" stop-color="#5C39E9"/>
</linearGradient>
</defs>
</svg>
