<svg width="43" height="49" viewBox="0 0 43 49" fill="none" xmlns="http://www.w3.org/2000/svg">
<mask id="mask0_1628_44388" style="mask-type:alpha" maskUnits="userSpaceOnUse" x="0" y="0" width="43" height="49">
<path d="M39.5594 48.123H3.9359C2.03749 48.123 0.498535 46.5841 0.498535 44.6857V3.43736C0.498535 1.53896 2.03749 0 3.93589 0H27.0599L42.9968 15.9368V44.6857C42.9968 46.5841 41.4578 48.123 39.5594 48.123Z" fill="url(#paint0_linear_1628_44388)"/>
</mask>
<g mask="url(#mask0_1628_44388)">
<path d="M39.5594 48.123H3.9359C2.03749 48.123 0.498535 46.5841 0.498535 44.6857V3.43736C0.498535 1.53896 2.03749 0 3.93589 0H27.0599L42.9968 15.9368V44.6857C42.9968 46.5841 41.4578 48.123 39.5594 48.123Z" fill="url(#paint1_linear_1628_44388)"/>
<g filter="url(#filter0_f_1628_44388)">
<rect x="7.99756" y="23.2803" width="27.8114" height="13.1245" fill="#CC1583" fill-opacity="0.15" style="mix-blend-mode:darken"/>
</g>
<path d="M12.3791 33.7787C11.3341 33.7787 10.3548 33.5812 9.44142 33.1862C9.34268 33.1451 9.26039 33.0793 9.19456 32.9887C9.12873 32.89 9.09581 32.7871 9.09581 32.6802C9.09581 32.5403 9.14107 32.4209 9.23159 32.3222C9.33034 32.2152 9.45377 32.1617 9.60189 32.1617C9.68418 32.1617 9.76235 32.1782 9.83641 32.2111C10.5935 32.5485 11.404 32.7172 12.268 32.7172C13.7081 32.7172 14.4281 32.244 14.4281 31.2977C14.4281 31.0508 14.3335 30.8451 14.1442 30.6806C13.9632 30.516 13.7369 30.3884 13.4653 30.2979C13.1938 30.1992 12.807 30.084 12.3051 29.9523C11.6385 29.7795 11.0995 29.6149 10.6881 29.4586C10.2767 29.294 9.92281 29.0512 9.62657 28.7303C9.33034 28.4094 9.18222 27.9815 9.18222 27.4466C9.18222 26.9776 9.30565 26.5538 9.55251 26.1753C9.79938 25.7885 10.1614 25.484 10.6387 25.2619C11.1242 25.0315 11.7044 24.9163 12.3791 24.9163C13.2843 24.9163 14.1031 25.052 14.8354 25.3236C15.0658 25.4059 15.181 25.5704 15.181 25.8173C15.181 25.949 15.1358 26.0683 15.0453 26.1753C14.9547 26.2822 14.8354 26.3357 14.6873 26.3357C14.6379 26.3357 14.5721 26.3193 14.4898 26.2864C13.848 26.0642 13.1855 25.9531 12.5025 25.9531C11.8525 25.9531 11.3217 26.0765 10.9103 26.3234C10.5071 26.5703 10.3055 26.9159 10.3055 27.3602C10.3055 27.6565 10.4001 27.8992 10.5893 28.0885C10.7868 28.2695 11.0296 28.4135 11.3176 28.5205C11.6138 28.6192 12.0129 28.7262 12.5149 28.8414C13.165 28.9978 13.6875 29.1541 14.0825 29.3105C14.4857 29.4668 14.8272 29.7095 15.107 30.0387C15.395 30.3679 15.539 30.8122 15.539 31.3718C15.539 31.8326 15.4073 32.2481 15.144 32.6184C14.8807 32.9805 14.5104 33.2644 14.0331 33.4701C13.5558 33.6758 13.0045 33.7787 12.3791 33.7787ZM21.0114 33.717C20.674 33.717 20.4189 33.5277 20.2461 33.1492L17.1973 25.7556C17.1726 25.6898 17.1603 25.6198 17.1603 25.5458C17.1603 25.373 17.2097 25.2372 17.3084 25.1384C17.4072 25.0315 17.5429 24.978 17.7157 24.978C17.8309 24.978 17.9338 25.015 18.0243 25.0891C18.1231 25.1549 18.1971 25.2454 18.2465 25.3606L21.1472 32.5938L24.0478 25.3606C24.0972 25.2454 24.1671 25.1549 24.2577 25.0891C24.3564 25.015 24.4634 24.978 24.5786 24.978C24.7514 24.978 24.8872 25.0315 24.9859 25.1384C25.0847 25.2372 25.134 25.373 25.134 25.5458C25.134 25.6198 25.1217 25.6898 25.097 25.7556L22.0482 33.1492C21.8754 33.5277 21.6203 33.717 21.2829 33.717H21.0114ZM31.1531 33.7787C30.3055 33.7787 29.5526 33.5936 28.8943 33.2233C28.236 32.8447 27.7258 32.3222 27.3637 31.6557C27.0017 30.9809 26.8206 30.2156 26.8206 29.3598C26.8206 28.4876 27.0099 27.7141 27.3884 27.0393C27.7669 26.3645 28.2812 25.842 28.9313 25.4717C29.5896 25.1014 30.3179 24.9163 31.1161 24.9163C31.7579 24.9163 32.3175 24.9944 32.7947 25.1508C33.2802 25.3071 33.7452 25.5252 34.1895 25.805C34.2554 25.8379 34.313 25.8955 34.3623 25.9778C34.4117 26.0601 34.4364 26.1506 34.4364 26.2493C34.4364 26.3892 34.387 26.5085 34.2883 26.6073C34.1978 26.706 34.0743 26.7554 33.918 26.7554C33.8275 26.7554 33.7411 26.7348 33.6588 26.6937C33.272 26.4633 32.8853 26.2905 32.4985 26.1753C32.1118 26.0601 31.6921 26.0025 31.2395 26.0025C30.6141 26.0025 30.0504 26.1341 29.5485 26.3974C29.0465 26.6608 28.6515 27.0475 28.3635 27.5577C28.0837 28.0597 27.9439 28.6604 27.9439 29.3598C27.9439 30.0017 28.0755 30.5777 28.3388 31.0879C28.6104 31.5898 28.9971 31.9889 29.4991 32.2852C30.0093 32.5732 30.61 32.7172 31.3012 32.7172C32.0747 32.7172 32.7947 32.5362 33.4613 32.1741V29.94H31.4246C31.2848 29.94 31.1654 29.8906 31.0667 29.7918C30.9679 29.6931 30.9186 29.5738 30.9186 29.4339C30.9186 29.294 30.9679 29.1747 31.0667 29.0759C31.1654 28.9772 31.2848 28.9278 31.4246 28.9278H33.8563C34.0208 28.9278 34.1607 28.9854 34.2759 29.1006C34.3911 29.2158 34.4487 29.3557 34.4487 29.5203V32.3222C34.4487 32.495 34.4035 32.6514 34.313 32.7912C34.2307 32.9229 34.1196 33.0217 33.9797 33.0875C33.0581 33.5483 32.1159 33.7787 31.1531 33.7787Z" fill="white"/>
<path d="M9.44142 33.1862L9.56547 32.8994L9.56161 32.8978L9.44142 33.1862ZM9.19456 32.9887L8.93434 33.1622L8.94184 33.1725L9.19456 32.9887ZM9.23159 32.3222L9.00197 32.1102L9.00124 32.111L9.23159 32.3222ZM9.83641 32.2111L9.96361 31.9257L9.96332 31.9256L9.83641 32.2111ZM14.1442 30.6806L13.9339 30.9118L13.9392 30.9164L14.1442 30.6806ZM13.4653 30.2979L13.3585 30.5917L13.3665 30.5944L13.4653 30.2979ZM12.3051 29.9523L12.3843 29.65L12.3835 29.6498L12.3051 29.9523ZM10.6881 29.4586L10.572 29.7488L10.5771 29.7507L10.6881 29.4586ZM9.62657 28.7303L9.39696 28.9423H9.39696L9.62657 28.7303ZM9.55251 26.1753L9.81427 26.346L9.81592 26.3434L9.55251 26.1753ZM10.6387 25.2619L10.7706 25.5452L10.7727 25.5442L10.6387 25.2619ZM14.8354 25.3236L14.7268 25.6166L14.7303 25.6179L14.8354 25.3236ZM15.0453 26.1753L15.2838 26.3771L15.2838 26.3771L15.0453 26.1753ZM14.4898 26.2864L14.6059 25.9962L14.599 25.9935L14.592 25.9911L14.4898 26.2864ZM10.9103 26.3234L10.7495 26.0554L10.7471 26.0569L10.9103 26.3234ZM10.5893 28.0885L10.3682 28.3096L10.3782 28.3188L10.5893 28.0885ZM11.3176 28.5205L11.2087 28.8136L11.2188 28.8169L11.3176 28.5205ZM12.5149 28.8414L12.588 28.5376L12.5848 28.5368L12.5149 28.8414ZM14.0825 29.3105L13.9675 29.601L13.9695 29.6018L14.0825 29.3105ZM15.107 30.0387L14.8689 30.2411L14.8718 30.2445L15.107 30.0387ZM15.144 32.6184L15.3967 32.8022L15.3987 32.7995L15.144 32.6184ZM14.0331 33.4701L14.1568 33.7571L14.0331 33.4701ZM12.3791 33.4662C11.3745 33.4662 10.4377 33.2766 9.56545 32.8994L9.3174 33.473C10.2719 33.8858 11.2936 34.0912 12.3791 34.0912V33.4662ZM9.56161 32.8978C9.51832 32.8797 9.48101 32.8513 9.44728 32.8049L8.94184 33.1725C9.03977 33.3072 9.16704 33.4104 9.32124 33.4747L9.56161 32.8978ZM9.45457 32.8154C9.41907 32.7622 9.4083 32.7188 9.4083 32.6802H8.78333C8.78333 32.8555 8.83839 33.0178 8.93456 33.1621L9.45457 32.8154ZM9.4083 32.6802C9.4083 32.6146 9.42677 32.5717 9.46194 32.5334L9.00124 32.111C8.85537 32.2702 8.78333 32.4659 8.78333 32.6802H9.4083ZM9.46121 32.5342C9.49964 32.4925 9.53926 32.4742 9.60189 32.4742V31.8493C9.36828 31.8493 9.16104 31.9379 9.00197 32.1102L9.46121 32.5342ZM9.60189 32.4742C9.64114 32.4742 9.67602 32.4818 9.7095 32.4967L9.96332 31.9256C9.84868 31.8746 9.72721 31.8493 9.60189 31.8493V32.4742ZM9.70921 32.4965C10.508 32.8525 11.3621 33.0297 12.268 33.0297V32.4047C11.4459 32.4047 10.6789 32.2445 9.96361 31.9257L9.70921 32.4965ZM12.268 33.0297C13.0123 33.0297 13.6249 32.9092 14.0597 32.6235C14.5174 32.3227 14.7406 31.8638 14.7406 31.2977H14.1156C14.1156 31.6779 13.9788 31.9288 13.7165 32.1012C13.4313 32.2886 12.9638 32.4047 12.268 32.4047V33.0297ZM14.7406 31.2977C14.7406 30.9588 14.6055 30.6676 14.3492 30.4447L13.9392 30.9164C14.0614 31.0227 14.1156 31.1429 14.1156 31.2977H14.7406ZM14.3544 30.4493C14.1362 30.2509 13.87 30.1034 13.5641 30.0015L13.3665 30.5944C13.6037 30.6734 13.7902 30.781 13.934 30.9118L14.3544 30.4493ZM13.5721 30.0042C13.2871 29.9006 12.8895 29.7825 12.3843 29.65L12.2258 30.2546C12.7245 30.3854 13.1004 30.4977 13.3585 30.5916L13.5721 30.0042ZM12.3835 29.6498C11.7226 29.4785 11.1957 29.3172 10.7991 29.1665L10.5771 29.7507C11.0034 29.9127 11.5545 30.0805 12.2266 30.2548L12.3835 29.6498ZM10.8041 29.1684C10.4353 29.0209 10.1204 28.8046 9.85619 28.5184L9.39696 28.9423C9.72523 29.2979 10.118 29.5671 10.572 29.7487L10.8041 29.1684ZM9.85619 28.5184C9.6246 28.2675 9.4947 27.9215 9.4947 27.4466H8.86973C8.86973 28.0415 9.03607 28.5513 9.39696 28.9423L9.85619 28.5184ZM9.4947 27.4466C9.4947 27.0358 9.60181 26.6717 9.81426 26.346L9.29077 26.0046C9.00949 26.4359 8.86973 26.9194 8.86973 27.4466H9.4947ZM9.81592 26.3434C10.0263 26.0138 10.3391 25.746 10.7706 25.5452L10.5068 24.9786C9.9838 25.2221 9.57248 25.5632 9.28911 26.0071L9.81592 26.3434ZM10.7727 25.5442C11.207 25.338 11.7392 25.2287 12.3791 25.2287V24.6038C11.6695 24.6038 11.0414 24.7249 10.5047 24.9796L10.7727 25.5442ZM12.3791 25.2287C13.253 25.2287 14.0342 25.3598 14.7268 25.6166L14.9441 25.0306C14.1719 24.7443 13.3156 24.6038 12.3791 24.6038V25.2287ZM14.7303 25.6179C14.798 25.642 14.8256 25.6694 14.8386 25.6879C14.8518 25.7067 14.8685 25.7431 14.8685 25.8173H15.4935C15.4935 25.6446 15.4527 25.4753 15.3506 25.3295C15.2484 25.1835 15.1032 25.0874 14.9405 25.0293L14.7303 25.6179ZM14.8685 25.8173C14.8685 25.8701 14.8528 25.9189 14.8067 25.9734L15.2838 26.3771C15.4187 26.2176 15.4935 26.0279 15.4935 25.8173H14.8685ZM14.8067 25.9734C14.7793 26.0058 14.7495 26.0232 14.6873 26.0232V26.6482C14.9214 26.6482 15.1302 26.5587 15.2838 26.3771L14.8067 25.9734ZM14.6873 26.0232C14.6957 26.0232 14.6933 26.0244 14.6767 26.0202C14.6609 26.0163 14.6376 26.0089 14.6059 25.9962L14.3738 26.5765C14.4683 26.6143 14.5783 26.6482 14.6873 26.6482V26.0232ZM14.592 25.9911C13.9171 25.7574 13.2201 25.6406 12.5025 25.6406V26.2656C13.1509 26.2656 13.7788 26.3709 14.3876 26.5817L14.592 25.9911ZM12.5025 25.6406C11.8152 25.6406 11.2238 25.7708 10.7495 26.0554L11.071 26.5913C11.4196 26.3822 11.8897 26.2656 12.5025 26.2656V25.6406ZM10.7471 26.0569C10.2583 26.3561 9.99296 26.7989 9.99296 27.3602H10.6179C10.6179 27.0328 10.7558 26.7844 11.0734 26.5899L10.7471 26.0569ZM9.99296 27.3602C9.99296 27.7296 10.114 28.055 10.3684 28.3094L10.8103 27.8675C10.6862 27.7434 10.6179 27.5833 10.6179 27.3602H9.99296ZM10.3782 28.3188C10.6095 28.5308 10.8884 28.6944 11.2088 28.8134L11.4264 28.2276C11.1707 28.1326 10.9642 28.0082 10.8005 27.8581L10.3782 28.3188ZM11.2188 28.8169C11.5286 28.9202 11.9387 29.0298 12.445 29.146L12.5848 28.5368C12.0872 28.4226 11.6991 28.3182 11.4164 28.224L11.2188 28.8169ZM12.4418 29.1452C13.0847 29.2999 13.5916 29.4522 13.9675 29.601L14.1975 29.0199C13.7834 28.856 13.2452 28.6957 12.588 28.5376L12.4418 29.1452ZM13.9695 29.6018C14.3243 29.7394 14.6228 29.9516 14.8689 30.2411L15.3451 29.8363C15.0316 29.4675 14.6471 29.1942 14.1955 29.0191L13.9695 29.6018ZM14.8718 30.2445C15.0973 30.5022 15.2265 30.8662 15.2265 31.3718H15.8515C15.8515 30.7583 15.6927 30.2335 15.3421 29.8329L14.8718 30.2445ZM15.2265 31.3718C15.2265 31.7687 15.1145 32.1207 14.8893 32.4373L15.3987 32.7995C15.7002 32.3755 15.8515 31.8965 15.8515 31.3718H15.2265ZM14.8913 32.4346C14.6659 32.7445 14.3436 32.996 13.9094 33.1832L14.1568 33.7571C14.6772 33.5328 15.0954 33.2165 15.3967 32.8022L14.8913 32.4346ZM13.9094 33.1832C13.4783 33.369 12.9704 33.4662 12.3791 33.4662V34.0912C13.0386 34.0912 13.6334 33.9827 14.1568 33.7571L13.9094 33.1832ZM20.2461 33.1492L19.957 33.2684L19.9618 33.279L20.2461 33.1492ZM17.1973 25.7556L16.9046 25.8654L16.9084 25.8747L17.1973 25.7556ZM17.3084 25.1384L17.5296 25.3596L17.538 25.3504L17.3084 25.1384ZM18.0243 25.0891L17.8264 25.3309L17.8383 25.3406L17.851 25.3491L18.0243 25.0891ZM18.2465 25.3606L18.5366 25.2443L18.5337 25.2375L18.2465 25.3606ZM21.1472 32.5938L20.8571 32.7101L21.1472 33.4333L21.4372 32.7101L21.1472 32.5938ZM24.0478 25.3606L23.7605 25.2375L23.7578 25.2443L24.0478 25.3606ZM24.2577 25.0891L24.4415 25.3418L24.4452 25.3391L24.2577 25.0891ZM24.9859 25.1384L24.7561 25.3506L24.7649 25.3594L24.9859 25.1384ZM25.097 25.7556L25.386 25.8748L25.3896 25.8653L25.097 25.7556ZM22.0482 33.1492L22.3327 33.2791L22.3371 33.2683L22.0482 33.1492ZM21.0114 33.4045C20.9053 33.4045 20.8235 33.3762 20.7532 33.3241C20.6792 33.2692 20.6014 33.1751 20.5304 33.0194L19.9618 33.279C20.0636 33.5018 20.1997 33.6916 20.3808 33.826C20.5657 33.9632 20.7801 34.0295 21.0114 34.0295V33.4045ZM20.535 33.0301L17.4862 25.6365L16.9084 25.8747L19.9572 33.2683L20.535 33.0301ZM17.4899 25.6459C17.4791 25.617 17.4728 25.5844 17.4728 25.5458H16.8478C16.8478 25.6553 16.8662 25.7626 16.9047 25.8653L17.4899 25.6459ZM17.4728 25.5458C17.4728 25.435 17.5025 25.3863 17.5294 25.3594L17.0874 24.9175C16.9168 25.0881 16.8478 25.3109 16.8478 25.5458H17.4728ZM17.538 25.3504C17.5666 25.3195 17.6124 25.2905 17.7157 25.2905V24.6655C17.4735 24.6655 17.2477 24.7435 17.0788 24.9265L17.538 25.3504ZM17.7157 25.2905C17.7576 25.2905 17.7908 25.3018 17.8264 25.3309L18.2222 24.8472C18.0768 24.7282 17.9043 24.6655 17.7157 24.6655V25.2905ZM17.851 25.3491C17.8964 25.3793 17.9324 25.4209 17.9593 25.4837L18.5337 25.2375C18.4619 25.0699 18.3497 24.9304 18.1977 24.8291L17.851 25.3491ZM17.9565 25.4769L20.8571 32.7101L21.4372 32.4774L18.5365 25.2443L17.9565 25.4769ZM21.4372 32.7101L24.3379 25.4769L23.7578 25.2443L20.8571 32.4774L21.4372 32.7101ZM24.335 25.4837C24.365 25.4139 24.4017 25.3707 24.4415 25.3418L24.0739 24.8363C23.9325 24.9391 23.8294 25.0769 23.7606 25.2375L24.335 25.4837ZM24.4452 25.3391C24.4939 25.3025 24.536 25.2905 24.5786 25.2905V24.6655C24.3908 24.6655 24.2189 24.7275 24.0702 24.8391L24.4452 25.3391ZM24.5786 25.2905C24.6819 25.2905 24.7278 25.3195 24.7563 25.3504L25.2155 24.9265C25.0466 24.7435 24.8209 24.6655 24.5786 24.6655V25.2905ZM24.7649 25.3594C24.7918 25.3863 24.8215 25.435 24.8215 25.5458H25.4465C25.4465 25.3109 25.3775 25.0881 25.2069 24.9175L24.7649 25.3594ZM24.8215 25.5458C24.8215 25.5844 24.8152 25.617 24.8044 25.6459L25.3896 25.8653C25.4281 25.7626 25.4465 25.6553 25.4465 25.5458H24.8215ZM24.8081 25.6365L21.7593 33.0301L22.3371 33.2683L25.3859 25.8747L24.8081 25.6365ZM21.764 33.0194C21.6929 33.1751 21.6151 33.2692 21.5411 33.3241C21.4709 33.3762 21.389 33.4045 21.2829 33.4045V34.0295C21.5142 34.0295 21.7286 33.9632 21.9135 33.826C22.0946 33.6916 22.2307 33.5018 22.3325 33.279L21.764 33.0194ZM21.2829 33.4045H21.0114V34.0295H21.2829V33.4045ZM28.8943 33.2233L28.7385 33.4942L28.7411 33.4956L28.8943 33.2233ZM27.3637 31.6557L27.0884 31.8034L27.0891 31.8048L27.3637 31.6557ZM27.3884 27.0393L27.6609 27.1922L27.3884 27.0393ZM28.9313 25.4717L28.7781 25.1993L28.7766 25.2002L28.9313 25.4717ZM32.7947 25.1508L32.6975 25.4477L32.699 25.4482L32.7947 25.1508ZM34.1895 25.805L34.023 26.0694L34.036 26.0776L34.0498 26.0845L34.1895 25.805ZM34.3623 25.9778L34.0944 26.1385L34.0944 26.1385L34.3623 25.9778ZM34.2883 26.6073L34.0671 26.3861L34.0579 26.3961L34.2883 26.6073ZM33.6588 26.6937L33.4988 26.9621L33.5087 26.968L33.519 26.9732L33.6588 26.6937ZM32.4985 26.1753L32.5877 25.8758L32.4985 26.1753ZM29.5485 26.3974L29.6936 26.6742V26.6742L29.5485 26.3974ZM28.3635 27.5577L28.0914 27.4041L28.0906 27.4056L28.3635 27.5577ZM28.3388 31.0879L28.0611 31.2312L28.064 31.2366L28.3388 31.0879ZM29.4991 32.2852L29.3403 32.5543L29.3455 32.5573L29.4991 32.2852ZM33.4613 32.1741L33.6104 32.4487L33.7738 32.36V32.1741H33.4613ZM33.4613 29.94H33.7738V29.6275H33.4613V29.94ZM34.313 32.7912L34.0506 32.6215L34.048 32.6256L34.313 32.7912ZM33.9797 33.0875L33.8466 32.8047L33.84 32.808L33.9797 33.0875ZM31.1531 33.4662C30.3525 33.4662 29.6535 33.2918 29.0475 32.9509L28.7411 33.4956C29.4517 33.8953 30.2585 34.0912 31.1531 34.0912V33.4662ZM29.05 32.9524C28.4418 32.6026 27.9728 32.1222 27.6383 31.5065L27.0891 31.8048C27.4788 32.5222 28.0302 33.0869 28.7385 33.4942L29.05 32.9524ZM27.6391 31.5079C27.3041 30.8837 27.1331 30.1702 27.1331 29.3598H26.5081C26.5081 30.261 26.6992 31.0781 27.0884 31.8034L27.6391 31.5079ZM27.1331 29.3598C27.1331 28.5342 27.3118 27.8145 27.6609 27.1922L27.1159 26.8864C26.708 27.6136 26.5081 28.441 26.5081 29.3598H27.1331ZM27.6609 27.1922C28.0127 26.5652 28.487 26.0844 29.086 25.7432L28.7766 25.2002C28.0755 25.5996 27.5212 26.1639 27.1159 26.8864L27.6609 27.1922ZM29.0845 25.7441C29.6934 25.4016 30.3684 25.2287 31.1161 25.2287V24.6038C30.2674 24.6038 29.4859 24.8012 28.7781 25.1993L29.0845 25.7441ZM31.1161 25.2287C31.7336 25.2287 32.2589 25.3041 32.6975 25.4477L32.892 24.8538C32.376 24.6848 31.7822 24.6038 31.1161 24.6038V25.2287ZM32.699 25.4482C33.1589 25.5963 33.6001 25.8031 34.023 26.0694L34.356 25.5405C33.8902 25.2473 33.4016 25.0179 32.8905 24.8533L32.699 25.4482ZM34.0498 26.0845C34.0499 26.0845 34.0508 26.085 34.0526 26.0863C34.0544 26.0876 34.0573 26.09 34.0611 26.0938C34.069 26.1017 34.0806 26.1155 34.0944 26.1385L34.6303 25.817C34.5595 25.699 34.4622 25.5919 34.3293 25.5255L34.0498 26.0845ZM34.0944 26.1385C34.1137 26.1708 34.1239 26.2055 34.1239 26.2493H34.7489C34.7489 26.0957 34.7097 25.9493 34.6303 25.817L34.0944 26.1385ZM34.1239 26.2493C34.1239 26.3065 34.1073 26.3463 34.0673 26.3863L34.5092 26.8282C34.6667 26.6708 34.7489 26.4719 34.7489 26.2493H34.1239ZM34.0579 26.3961C34.0366 26.4194 34.0028 26.4429 33.918 26.4429V27.0679C34.1459 27.0679 34.3589 26.9927 34.5186 26.8184L34.0579 26.3961ZM33.918 26.4429C33.8768 26.4429 33.8382 26.434 33.7985 26.4142L33.519 26.9732C33.644 27.0357 33.7781 27.0679 33.918 27.0679V26.4429ZM33.8187 26.4252C33.4123 26.1831 33.0019 25.9992 32.5877 25.8758L32.4093 26.4748C32.7686 26.5818 33.1318 26.7435 33.4988 26.9621L33.8187 26.4252ZM32.5877 25.8758C32.1687 25.751 31.7187 25.69 31.2395 25.69V26.3149C31.6655 26.3149 32.0548 26.3691 32.4093 26.4748L32.5877 25.8758ZM31.2395 25.69C30.5689 25.69 29.9545 25.8316 29.4033 26.1207L29.6936 26.6742C30.1463 26.4367 30.6594 26.3149 31.2395 26.3149V25.69ZM29.4033 26.1207C28.8462 26.413 28.4079 26.8434 28.0914 27.4041L28.6356 27.7113C28.8951 27.2517 29.2468 26.9086 29.6936 26.6742L29.4033 26.1207ZM28.0906 27.4056C27.7798 27.9631 27.6314 28.6186 27.6314 29.3598H28.2563C28.2563 28.7021 28.3877 28.1562 28.6365 27.7098L28.0906 27.4056ZM27.6314 29.3598C27.6314 30.0456 27.7724 30.6717 28.0612 31.2312L28.6165 30.9446C28.3787 30.4837 28.2563 29.9578 28.2563 29.3598H27.6314ZM28.064 31.2366C28.3632 31.7896 28.7905 32.2298 29.3403 32.5543L29.6579 32.0161C29.2038 31.748 28.8576 31.3901 28.6137 30.9392L28.064 31.2366ZM29.3455 32.5573C29.9103 32.8762 30.5659 33.0297 31.3012 33.0297V32.4047C30.6541 32.4047 30.1082 32.2702 29.6527 32.0131L29.3455 32.5573ZM31.3012 33.0297C32.1258 33.0297 32.8972 32.8361 33.6104 32.4487L33.3121 31.8995C32.6923 32.2362 32.0237 32.4047 31.3012 32.4047V33.0297ZM33.7738 32.1741V29.94H33.1488V32.1741H33.7738ZM33.4613 29.6275H31.4246V30.2524H33.4613V29.6275ZM31.4246 29.6275C31.3675 29.6275 31.3277 29.6109 31.2877 29.5709L30.8457 30.0128C31.0032 30.1703 31.202 30.2524 31.4246 30.2524V29.6275ZM31.2877 29.5709C31.2476 29.5308 31.2311 29.4911 31.2311 29.4339H30.6061C30.6061 29.6565 30.6883 29.8553 30.8457 30.0128L31.2877 29.5709ZM31.2311 29.4339C31.2311 29.3767 31.2476 29.3369 31.2877 29.2969L30.8457 28.855C30.6883 29.0124 30.6061 29.2113 30.6061 29.4339H31.2311ZM31.2877 29.2969C31.3277 29.2569 31.3675 29.2403 31.4246 29.2403V28.6153C31.202 28.6153 31.0032 28.6975 30.8457 28.855L31.2877 29.2969ZM31.4246 29.2403H33.8563V28.6153H31.4246V29.2403ZM33.8563 29.2403C33.9389 29.2403 33.999 29.2656 34.055 29.3216L34.4969 28.8797C34.3224 28.7052 34.1028 28.6153 33.8563 28.6153V29.2403ZM34.055 29.3216C34.1109 29.3775 34.1363 29.4376 34.1363 29.5203H34.7612C34.7612 29.2738 34.6714 29.0541 34.4969 28.8797L34.055 29.3216ZM34.1363 29.5203V32.3222H34.7612V29.5203H34.1363ZM34.1363 32.3222C34.1363 32.4371 34.1071 32.5341 34.0506 32.6215L34.5753 32.961C34.6998 32.7686 34.7612 32.5529 34.7612 32.3222H34.1363ZM34.048 32.6256C33.9974 32.7066 33.932 32.7646 33.8466 32.8047L34.1128 33.3702C34.3072 33.2787 34.464 33.1392 34.578 32.9569L34.048 32.6256ZM33.84 32.808C32.9586 33.2487 32.064 33.4662 31.1531 33.4662V34.0912C32.1678 34.0912 33.1575 33.8479 34.1194 33.367L33.84 32.808Z" fill="white"/>
<g filter="url(#filter1_d_1628_44388)">
<path d="M42.9974 15.9368H30.4979C28.5995 15.9368 27.0605 14.3979 27.0605 12.4995V0L42.9974 15.9368Z" fill="url(#paint2_linear_1628_44388)"/>
</g>
</g>
<defs>
<filter id="filter0_f_1628_44388" x="1.90406" y="17.1868" width="39.9985" height="25.3115" filterUnits="userSpaceOnUse" color-interpolation-filters="sRGB">
<feFlood flood-opacity="0" result="BackgroundImageFix"/>
<feBlend mode="normal" in="SourceGraphic" in2="BackgroundImageFix" result="shape"/>
<feGaussianBlur stdDeviation="3.04675" result="effect1_foregroundBlur_1628_44388"/>
</filter>
<filter id="filter1_d_1628_44388" x="23.4669" y="-3.74985" width="23.7492" height="23.7492" filterUnits="userSpaceOnUse" color-interpolation-filters="sRGB">
<feFlood flood-opacity="0" result="BackgroundImageFix"/>
<feColorMatrix in="SourceAlpha" type="matrix" values="0 0 0 0 0 0 0 0 0 0 0 0 0 0 0 0 0 0 127 0" result="hardAlpha"/>
<feOffset dx="0.312487" dy="0.156244"/>
<feGaussianBlur stdDeviation="1.95305"/>
<feColorMatrix type="matrix" values="0 0 0 0 0 0 0 0 0 0 0 0 0 0 0 0 0 0 0.33 0"/>
<feBlend mode="normal" in2="BackgroundImageFix" result="effect1_dropShadow_1628_44388"/>
<feBlend mode="normal" in="SourceGraphic" in2="effect1_dropShadow_1628_44388" result="shape"/>
</filter>
<linearGradient id="paint0_linear_1628_44388" x1="21.7477" y1="0" x2="21.7477" y2="48.123" gradientUnits="userSpaceOnUse">
<stop stop-color="#FF7979"/>
<stop offset="1" stop-color="#E85555"/>
</linearGradient>
<linearGradient id="paint1_linear_1628_44388" x1="21.7477" y1="0" x2="21.7477" y2="48.123" gradientUnits="userSpaceOnUse">
<stop stop-color="#FF6AC3"/>
<stop offset="1" stop-color="#DD3C9C"/>
</linearGradient>
<linearGradient id="paint2_linear_1628_44388" x1="35.029" y1="0" x2="35.029" y2="15.9368" gradientUnits="userSpaceOnUse">
<stop stop-color="#F430A6"/>
<stop offset="1" stop-color="#BF0B77"/>
</linearGradient>
</defs>
</svg>
