<svg width="43" height="49" viewBox="0 0 43 49" fill="none" xmlns="http://www.w3.org/2000/svg">
<mask id="mask0_1628_44385" style="mask-type:alpha" maskUnits="userSpaceOnUse" x="0" y="0" width="43" height="49">
<path d="M39.5453 48.123H3.92174C2.02333 48.123 0.484375 46.5841 0.484375 44.6857V3.43736C0.484375 1.53896 2.02333 0 3.92173 0H27.0458L42.9826 15.9368V44.6857C42.9826 46.5841 41.4437 48.123 39.5453 48.123Z" fill="url(#paint0_linear_1628_44385)"/>
</mask>
<g mask="url(#mask0_1628_44385)">
<path d="M39.5433 48.123H3.91978C2.02138 48.123 0.482422 46.5841 0.482422 44.6857V3.43736C0.482422 1.53896 2.02138 0 3.91978 0H27.0438L42.9807 15.9368V44.6857C42.9807 46.5841 41.4417 48.123 39.5433 48.123Z" fill="url(#paint1_linear_1628_44385)"/>
<g filter="url(#filter0_f_1628_44385)">
<rect x="7.82617" y="23.2803" width="27.8114" height="13.1245" fill="#3F3F46" fill-opacity="0.07" style="mix-blend-mode:darken"/>
</g>
<path d="M12.2025 33.717C12.0462 33.717 11.9145 33.6635 11.8076 33.5565C11.7006 33.4496 11.6471 33.3179 11.6471 33.1615V26.0889H9.12907C8.98095 26.0889 8.85752 26.0395 8.75878 25.9407C8.66003 25.842 8.61066 25.7186 8.61066 25.5704C8.61066 25.4223 8.66003 25.2989 8.75878 25.2002C8.85752 25.0932 8.98095 25.0397 9.12907 25.0397H15.276C15.4241 25.0397 15.5476 25.0932 15.6463 25.2002C15.7533 25.2989 15.8068 25.4223 15.8068 25.5704C15.8068 25.7186 15.7533 25.842 15.6463 25.9407C15.5476 26.0395 15.4241 26.0889 15.276 26.0889H12.7703V33.1615C12.7703 33.3179 12.7127 33.4496 12.5975 33.5565C12.4906 33.6635 12.3589 33.717 12.2025 33.717ZM18.3313 33.717C18.1915 33.717 18.068 33.6676 17.9611 33.5689C17.8623 33.4619 17.8129 33.3385 17.8129 33.1986C17.8129 33.0669 17.85 32.9517 17.924 32.853L20.7753 29.3475L17.9487 25.8667C17.8746 25.7679 17.8376 25.6527 17.8376 25.5211C17.8376 25.3647 17.887 25.2372 17.9857 25.1384C18.0927 25.0315 18.2244 24.978 18.3807 24.978C18.4712 24.978 18.5576 24.9985 18.6399 25.0397C18.7222 25.0808 18.788 25.1343 18.8374 25.2002L21.4418 28.5081L24.0463 25.1755C24.1368 25.0438 24.2726 24.978 24.4536 24.978C24.6017 24.978 24.7293 25.0315 24.8362 25.1384C24.9432 25.2372 24.9967 25.3606 24.9967 25.5087C24.9967 25.6239 24.9638 25.7268 24.898 25.8173L22.0467 29.3351L24.898 32.8406C24.972 32.9229 25.009 33.0299 25.009 33.1615C25.009 33.3179 24.9556 33.4496 24.8486 33.5565C24.7498 33.6635 24.6182 33.717 24.4536 33.717C24.2726 33.717 24.1244 33.6388 24.0092 33.4825L21.3678 30.1621L18.7634 33.4948C18.6399 33.6429 18.4959 33.717 18.3313 33.717ZM30.565 33.717C30.4087 33.717 30.277 33.6635 30.1701 33.5565C30.0631 33.4496 30.0096 33.3179 30.0096 33.1615V26.0889H27.4916C27.3435 26.0889 27.22 26.0395 27.1213 25.9407C27.0225 25.842 26.9732 25.7186 26.9732 25.5704C26.9732 25.4223 27.0225 25.2989 27.1213 25.2002C27.22 25.0932 27.3435 25.0397 27.4916 25.0397H33.6385C33.7866 25.0397 33.9101 25.0932 34.0088 25.2002C34.1158 25.2989 34.1693 25.4223 34.1693 25.5704C34.1693 25.7186 34.1158 25.842 34.0088 25.9407C33.9101 26.0395 33.7866 26.0889 33.6385 26.0889H31.1328V33.1615C31.1328 33.3179 31.0752 33.4496 30.96 33.5565C30.8531 33.6635 30.7214 33.717 30.565 33.717Z" fill="white"/>
<path d="M11.8076 33.5565L11.5866 33.7775L11.8076 33.5565ZM11.6471 26.0889H11.9596V25.7764H11.6471V26.0889ZM8.75878 25.9407L8.53781 26.1617L8.53781 26.1617L8.75878 25.9407ZM8.75878 25.2002L8.97992 25.4213L8.98839 25.4121L8.75878 25.2002ZM15.6463 25.2002L15.4167 25.4121L15.4252 25.4213L15.4344 25.4298L15.6463 25.2002ZM15.6463 25.9407L15.4342 25.7109L15.4253 25.7198L15.6463 25.9407ZM12.7703 26.0889V25.7764H12.4578V26.0889H12.7703ZM12.5975 33.5565L12.3847 33.3274L12.3766 33.3356L12.5975 33.5565ZM12.2025 33.4045C12.126 33.4045 12.0747 33.3818 12.0285 33.3356L11.5866 33.7775C11.7543 33.9452 11.9664 34.0295 12.2025 34.0295V33.4045ZM12.0285 33.3356C11.9823 33.2893 11.9596 33.2381 11.9596 33.1615H11.3346C11.3346 33.3977 11.4189 33.6098 11.5866 33.7775L12.0285 33.3356ZM11.9596 33.1615V26.0889H11.3346V33.1615H11.9596ZM11.6471 25.7764H9.12907V26.4014H11.6471V25.7764ZM9.12907 25.7764C9.05825 25.7764 9.01605 25.7561 8.97974 25.7198L8.53781 26.1617C8.69899 26.3229 8.90366 26.4014 9.12907 26.4014V25.7764ZM8.97974 25.7198C8.94343 25.6835 8.92314 25.6413 8.92314 25.5704H8.29817C8.29817 25.7959 8.37664 26.0005 8.53781 26.1617L8.97974 25.7198ZM8.92314 25.5704C8.92314 25.4996 8.94343 25.4574 8.97974 25.4211L8.53781 24.9792C8.37664 25.1404 8.29817 25.345 8.29817 25.5704H8.92314ZM8.98839 25.4121C9.02682 25.3705 9.06644 25.3522 9.12907 25.3522V24.7272C8.89547 24.7272 8.68822 24.8159 8.52916 24.9882L8.98839 25.4121ZM9.12907 25.3522H15.276V24.7272H9.12907V25.3522ZM15.276 25.3522C15.3386 25.3522 15.3783 25.3705 15.4167 25.4121L15.8759 24.9882C15.7169 24.8159 15.5096 24.7272 15.276 24.7272V25.3522ZM15.4344 25.4298C15.476 25.4682 15.4943 25.5078 15.4943 25.5704H16.1193C16.1193 25.3368 16.0306 25.1296 15.8583 24.9705L15.4344 25.4298ZM15.4943 25.5704C15.4943 25.6331 15.476 25.6727 15.4344 25.7111L15.8583 26.1704C16.0306 26.0113 16.1193 25.8041 16.1193 25.5704H15.4943ZM15.4253 25.7198C15.389 25.7561 15.3468 25.7764 15.276 25.7764V26.4014C15.5014 26.4014 15.7061 26.3229 15.8673 26.1617L15.4253 25.7198ZM15.276 25.7764H12.7703V26.4014H15.276V25.7764ZM12.4578 26.0889V33.1615H13.0828V26.0889H12.4578ZM12.4578 33.1615C12.4578 33.2305 12.4368 33.2793 12.3849 33.3275L12.8102 33.7855C12.9886 33.6198 13.0828 33.4053 13.0828 33.1615H12.4578ZM12.3766 33.3356C12.3303 33.3818 12.2791 33.4045 12.2025 33.4045V34.0295C12.4387 34.0295 12.6508 33.9452 12.8185 33.7775L12.3766 33.3356ZM17.9611 33.5689L17.7314 33.7808L17.7399 33.79L17.7491 33.7985L17.9611 33.5689ZM17.924 32.853L17.6814 32.6556L17.674 32.6655L17.924 32.853ZM20.7753 29.3475L21.0177 29.5447L21.178 29.3476L21.0179 29.1505L20.7753 29.3475ZM17.9487 25.8667L17.6985 26.0543L17.7061 26.0637L17.9487 25.8667ZM17.9857 25.1384L17.7648 24.9175V24.9175L17.9857 25.1384ZM18.6399 25.0397L18.7797 24.7602L18.6399 25.0397ZM18.8374 25.2002L18.5874 25.3877L18.5919 25.3935L18.8374 25.2002ZM21.4418 28.5081L21.1963 28.7014L21.4428 29.0145L21.6881 28.7006L21.4418 28.5081ZM24.0463 25.1755L24.2925 25.3679L24.2984 25.3604L24.3038 25.3525L24.0463 25.1755ZM24.8362 25.1384L24.6151 25.3596L24.6243 25.3681L24.8362 25.1384ZM24.898 25.8173L25.1407 26.0141L25.1459 26.0077L25.1507 26.0011L24.898 25.8173ZM22.0467 29.3351L21.8039 29.1384L21.6441 29.3355L21.8042 29.5323L22.0467 29.3351ZM24.898 32.8406L24.6555 33.0378L24.6605 33.0439L24.6657 33.0497L24.898 32.8406ZM24.8486 33.5565L24.6274 33.3354L24.619 33.3446L24.8486 33.5565ZM24.0092 33.4825L24.261 33.297L24.2538 33.2879L24.0092 33.4825ZM21.3678 30.1621L21.6123 29.9676L21.3656 29.6574L21.1216 29.9697L21.3678 30.1621ZM18.7634 33.4948L19.0035 33.695L19.0096 33.6872L18.7634 33.4948ZM18.3313 33.4045C18.2735 33.4045 18.2248 33.3871 18.173 33.3393L17.7491 33.7985C17.9112 33.9481 18.1094 34.0295 18.3313 34.0295V33.4045ZM18.1907 33.3569C18.1428 33.3051 18.1254 33.2565 18.1254 33.1986H17.5004C17.5004 33.4205 17.5818 33.6187 17.7314 33.7808L18.1907 33.3569ZM18.1254 33.1986C18.1254 33.1297 18.1433 33.0814 18.174 33.0405L17.674 32.6655C17.5566 32.822 17.5004 33.0041 17.5004 33.1986H18.1254ZM18.1664 33.0501L21.0177 29.5447L20.5329 29.1503L17.6816 32.6558L18.1664 33.0501ZM21.0179 29.1505L18.1913 25.6697L17.7061 26.0637L20.5327 29.5445L21.0179 29.1505ZM18.1987 25.6792C18.168 25.6383 18.1501 25.5899 18.1501 25.5211H17.5251C17.5251 25.7156 17.5813 25.8976 17.6987 26.0542L18.1987 25.6792ZM18.1501 25.5211C18.1501 25.4368 18.1738 25.3923 18.2067 25.3594L17.7648 24.9175C17.6002 25.0821 17.5251 25.2927 17.5251 25.5211H18.1501ZM18.2067 25.3594C18.2529 25.3132 18.3042 25.2905 18.3807 25.2905V24.6655C18.1446 24.6655 17.9325 24.7497 17.7648 24.9175L18.2067 25.3594ZM18.3807 25.2905C18.4219 25.2905 18.4605 25.2994 18.5002 25.3192L18.7797 24.7602C18.6547 24.6977 18.5206 24.6655 18.3807 24.6655V25.2905ZM18.5002 25.3192C18.5443 25.3412 18.5705 25.365 18.5874 25.3876L19.0874 25.0127C19.0056 24.9036 18.9002 24.8204 18.7797 24.7602L18.5002 25.3192ZM18.5919 25.3935L21.1963 28.7014L21.6874 28.3148L19.0829 25.0068L18.5919 25.3935ZM21.6881 28.7006L24.2925 25.3679L23.8001 24.983L21.1956 28.3157L21.6881 28.7006ZM24.3038 25.3525C24.3275 25.318 24.3595 25.2905 24.4536 25.2905V24.6655C24.1856 24.6655 23.9461 24.7696 23.7888 24.9984L24.3038 25.3525ZM24.4536 25.2905C24.5169 25.2905 24.5655 25.3096 24.6153 25.3594L25.0572 24.9175C24.893 24.7533 24.6866 24.6655 24.4536 24.6655V25.2905ZM24.6243 25.3681C24.6659 25.4065 24.6842 25.4461 24.6842 25.5087H25.3092C25.3092 25.2751 25.2205 25.0679 25.0482 24.9088L24.6243 25.3681ZM24.6842 25.5087C24.6842 25.56 24.671 25.5981 24.6452 25.6335L25.1507 26.0011C25.2565 25.8555 25.3092 25.6879 25.3092 25.5087H24.6842ZM24.6552 25.6205L21.8039 29.1384L22.2894 29.5319L25.1407 26.0141L24.6552 25.6205ZM21.8042 29.5323L24.6555 33.0378L25.1404 32.6434L22.2891 29.138L21.8042 29.5323ZM24.6657 33.0497C24.6786 33.064 24.6966 33.0916 24.6966 33.1615H25.3215C25.3215 32.9681 25.2654 32.7818 25.1302 32.6316L24.6657 33.0497ZM24.6966 33.1615C24.6966 33.2381 24.6738 33.2893 24.6276 33.3356L25.0695 33.7775C25.2373 33.6098 25.3215 33.3977 25.3215 33.1615H24.6966ZM24.619 33.3446C24.5874 33.3788 24.5435 33.4045 24.4536 33.4045V34.0295C24.6928 34.0295 24.9123 33.9482 25.0782 33.7685L24.619 33.3446ZM24.4536 33.4045C24.38 33.4045 24.3221 33.3803 24.2608 33.2971L23.7577 33.6678C23.9268 33.8973 24.1651 34.0295 24.4536 34.0295V33.4045ZM24.2538 33.2879L21.6123 29.9676L21.1232 30.3567L23.7647 33.677L24.2538 33.2879ZM21.1216 29.9697L18.5171 33.3024L19.0096 33.6872L21.614 30.3546L21.1216 29.9697ZM18.5233 33.2948C18.4479 33.3852 18.3868 33.4045 18.3313 33.4045V34.0295C18.605 34.0295 18.8319 33.9006 19.0034 33.6949L18.5233 33.2948ZM30.1701 33.5565L29.9491 33.7775L30.1701 33.5565ZM30.0096 26.0889H30.3221V25.7764H30.0096V26.0889ZM27.1213 25.9407L26.9003 26.1617V26.1617L27.1213 25.9407ZM27.1213 25.2002L27.3424 25.4213L27.3509 25.4121L27.1213 25.2002ZM34.0088 25.2002L33.7792 25.4121L33.7877 25.4213L33.7969 25.4298L34.0088 25.2002ZM34.0088 25.9407L33.7967 25.7109L33.7878 25.7198L34.0088 25.9407ZM31.1328 26.0889V25.7764H30.8203V26.0889H31.1328ZM30.96 33.5565L30.7473 33.3274L30.7391 33.3356L30.96 33.5565ZM30.565 33.4045C30.4885 33.4045 30.4372 33.3818 30.391 33.3356L29.9491 33.7775C30.1168 33.9452 30.3289 34.0295 30.565 34.0295V33.4045ZM30.391 33.3356C30.3448 33.2893 30.3221 33.2381 30.3221 33.1615H29.6971C29.6971 33.3977 29.7814 33.6098 29.9491 33.7775L30.391 33.3356ZM30.3221 33.1615V26.0889H29.6971V33.1615H30.3221ZM30.0096 25.7764H27.4916V26.4014H30.0096V25.7764ZM27.4916 25.7764C27.4208 25.7764 27.3786 25.7561 27.3422 25.7198L26.9003 26.1617C27.0615 26.3229 27.2662 26.4014 27.4916 26.4014V25.7764ZM27.3422 25.7198C27.3059 25.6835 27.2857 25.6413 27.2857 25.5704H26.6607C26.6607 25.7959 26.7391 26.0005 26.9003 26.1617L27.3422 25.7198ZM27.2857 25.5704C27.2857 25.4996 27.3059 25.4574 27.3422 25.4211L26.9003 24.9792C26.7391 25.1404 26.6607 25.345 26.6607 25.5704H27.2857ZM27.3509 25.4121C27.3893 25.3705 27.4289 25.3522 27.4916 25.3522V24.7272C27.258 24.7272 27.0507 24.8159 26.8917 24.9882L27.3509 25.4121ZM27.4916 25.3522H33.6385V24.7272H27.4916V25.3522ZM33.6385 25.3522C33.7011 25.3522 33.7408 25.3705 33.7792 25.4121L34.2384 24.9882C34.0794 24.8159 33.8721 24.7272 33.6385 24.7272V25.3522ZM33.7969 25.4298C33.8385 25.4682 33.8568 25.5078 33.8568 25.5704H34.4818C34.4818 25.3368 34.3931 25.1296 34.2208 24.9705L33.7969 25.4298ZM33.8568 25.5704C33.8568 25.6331 33.8385 25.6727 33.7969 25.7111L34.2208 26.1704C34.3931 26.0113 34.4818 25.8041 34.4818 25.5704H33.8568ZM33.7878 25.7198C33.7515 25.7561 33.7093 25.7764 33.6385 25.7764V26.4014C33.8639 26.4014 34.0686 26.3229 34.2298 26.1617L33.7878 25.7198ZM33.6385 25.7764H31.1328V26.4014H33.6385V25.7764ZM30.8203 26.0889V33.1615H31.4453V26.0889H30.8203ZM30.8203 33.1615C30.8203 33.2305 30.7993 33.2793 30.7474 33.3275L31.1727 33.7855C31.3511 33.6198 31.4453 33.4053 31.4453 33.1615H30.8203ZM30.7391 33.3356C30.6929 33.3818 30.6416 33.4045 30.565 33.4045V34.0295C30.8012 34.0295 31.0133 33.9452 31.181 33.7775L30.7391 33.3356Z" fill="white"/>
<g filter="url(#filter1_d_1628_44385)">
<path d="M42.9818 15.9368H30.4823C28.5839 15.9368 27.0449 14.3979 27.0449 12.4995V0L42.9818 15.9368Z" fill="url(#paint2_linear_1628_44385)"/>
</g>
</g>
<defs>
<filter id="filter0_f_1628_44385" x="1.73267" y="17.1868" width="39.9985" height="25.3115" filterUnits="userSpaceOnUse" color-interpolation-filters="sRGB">
<feFlood flood-opacity="0" result="BackgroundImageFix"/>
<feBlend mode="normal" in="SourceGraphic" in2="BackgroundImageFix" result="shape"/>
<feGaussianBlur stdDeviation="3.04675" result="effect1_foregroundBlur_1628_44385"/>
</filter>
<filter id="filter1_d_1628_44385" x="23.4513" y="-3.74985" width="23.7487" height="23.7492" filterUnits="userSpaceOnUse" color-interpolation-filters="sRGB">
<feFlood flood-opacity="0" result="BackgroundImageFix"/>
<feColorMatrix in="SourceAlpha" type="matrix" values="0 0 0 0 0 0 0 0 0 0 0 0 0 0 0 0 0 0 127 0" result="hardAlpha"/>
<feOffset dx="0.312487" dy="0.156244"/>
<feGaussianBlur stdDeviation="1.95305"/>
<feColorMatrix type="matrix" values="0 0 0 0 0 0 0 0 0 0 0 0 0 0 0 0 0 0 0.33 0"/>
<feBlend mode="normal" in2="BackgroundImageFix" result="effect1_dropShadow_1628_44385"/>
<feBlend mode="normal" in="SourceGraphic" in2="effect1_dropShadow_1628_44385" result="shape"/>
</filter>
<linearGradient id="paint0_linear_1628_44385" x1="21.7335" y1="0" x2="21.7335" y2="48.123" gradientUnits="userSpaceOnUse">
<stop stop-color="#FF7979"/>
<stop offset="1" stop-color="#E85555"/>
</linearGradient>
<linearGradient id="paint1_linear_1628_44385" x1="21.7316" y1="0" x2="21.7316" y2="48.123" gradientUnits="userSpaceOnUse">
<stop stop-color="#B4B6BC"/>
<stop offset="0.0730828" stop-color="#B1B3B9"/>
<stop offset="1" stop-color="#8D8F94"/>
</linearGradient>
<linearGradient id="paint2_linear_1628_44385" x1="35.0133" y1="0" x2="35.0133" y2="15.9368" gradientUnits="userSpaceOnUse">
<stop stop-color="#979CAB"/>
<stop offset="1" stop-color="#797C88"/>
</linearGradient>
</defs>
</svg>
