<svg width="43" height="49" viewBox="0 0 43 49" fill="none" xmlns="http://www.w3.org/2000/svg">
<mask id="mask0_1628_44396" style="mask-type:alpha" maskUnits="userSpaceOnUse" x="0" y="0" width="43" height="49">
<path d="M39.5375 48.123H3.91392C2.01552 48.123 0.476562 46.5841 0.476562 44.6857V3.43736C0.476562 1.53896 2.01552 0 3.91392 0H27.038L42.9748 15.9368V44.6857C42.9748 46.5841 41.4359 48.123 39.5375 48.123Z" fill="url(#paint0_linear_1628_44396)"/>
</mask>
<g mask="url(#mask0_1628_44396)">
<path d="M39.5384 48.123H3.9149C2.0165 48.123 0.477539 46.5841 0.477539 44.6857V3.43736C0.477539 1.53896 2.0165 0 3.9149 0H27.039L42.9758 15.9368V44.6857C42.9758 46.5841 41.4368 48.123 39.5384 48.123Z" fill="url(#paint1_linear_1628_44396)"/>
<g opacity="0.2" filter="url(#filter0_f_1628_44396)">
<rect x="7.97656" y="23.2803" width="27.8114" height="13.1245" fill="#780AAF" style="mix-blend-mode:darken"/>
</g>
<path d="M8.42339 33.717C8.26704 33.717 8.13538 33.6635 8.02841 33.5565C7.92143 33.4496 7.86794 33.3179 7.86794 33.1615V25.7926C7.86794 25.5704 7.94612 25.3812 8.10247 25.2248C8.25881 25.0603 8.44808 24.978 8.67026 24.978H9.07758C9.24216 24.978 9.39028 25.0273 9.52194 25.1261C9.66183 25.2248 9.76469 25.3483 9.83052 25.4964L12.6324 32.4827L15.4344 25.4964C15.5002 25.3483 15.5989 25.2248 15.7306 25.1261C15.8705 25.0273 16.0227 24.978 16.1873 24.978H16.5946C16.8168 24.978 17.0061 25.0603 17.1624 25.2248C17.3188 25.3812 17.3969 25.5704 17.3969 25.7926V33.1615C17.3969 33.3179 17.3434 33.4496 17.2365 33.5565C17.1295 33.6635 16.9978 33.717 16.8415 33.717C16.6851 33.717 16.5494 33.6635 16.4342 33.5565C16.3272 33.4496 16.2737 33.3179 16.2737 33.1615V26.1506L13.4224 33.1986C13.3566 33.3549 13.2496 33.4825 13.1015 33.5812C12.9616 33.6717 12.8052 33.717 12.6324 33.717C12.4596 33.717 12.2992 33.6717 12.1511 33.5812C12.0112 33.4825 11.9083 33.3549 11.8425 33.1986L8.99118 26.1506V33.1615C8.99118 33.3179 8.93358 33.4496 8.81837 33.5565C8.7114 33.6635 8.57974 33.717 8.42339 33.717ZM21.2088 33.717C21.0524 33.717 20.9208 33.6635 20.8138 33.5565C20.7068 33.4496 20.6533 33.3179 20.6533 33.1615V25.5458C20.6533 25.3894 20.7068 25.2578 20.8138 25.1508C20.9208 25.0356 21.0524 24.978 21.2088 24.978C21.3651 24.978 21.4968 25.0356 21.6038 25.1508C21.719 25.2578 21.7766 25.3894 21.7766 25.5458V29.4709L25.998 25.1755C26.1132 25.0438 26.253 24.978 26.4176 24.978C26.5575 24.978 26.6768 25.0273 26.7756 25.1261C26.8826 25.2166 26.936 25.3318 26.936 25.4717C26.936 25.6363 26.8908 25.7638 26.8003 25.8543L23.949 28.6933L27.2199 32.8159C27.3105 32.9311 27.3557 33.0505 27.3557 33.1739C27.3639 33.322 27.3146 33.4496 27.2076 33.5565C27.1006 33.6635 26.969 33.717 26.8126 33.717C26.6233 33.717 26.4752 33.6429 26.3682 33.4948L23.1837 29.4339L21.7766 30.8534V33.1615C21.7766 33.3179 21.719 33.4496 21.6038 33.5565C21.4968 33.6635 21.3651 33.717 21.2088 33.717ZM32.7364 33.717C32.399 33.717 32.1439 33.5277 31.9711 33.1492L28.9223 25.7556C28.8977 25.6898 28.8853 25.6198 28.8853 25.5458C28.8853 25.373 28.9347 25.2372 29.0334 25.1384C29.1322 25.0315 29.2679 24.978 29.4408 24.978C29.556 24.978 29.6588 25.015 29.7493 25.0891C29.8481 25.1549 29.9221 25.2454 29.9715 25.3606L32.8722 32.5938L35.7728 25.3606C35.8222 25.2454 35.8922 25.1549 35.9827 25.0891C36.0814 25.015 36.1884 24.978 36.3036 24.978C36.4764 24.978 36.6122 25.0315 36.7109 25.1384C36.8097 25.2372 36.859 25.373 36.859 25.5458C36.859 25.6198 36.8467 25.6898 36.822 25.7556L33.7732 33.1492C33.6004 33.5277 33.3453 33.717 33.008 33.717H32.7364Z" fill="white"/>
<path d="M8.02841 33.5565L8.24937 33.3356H8.24937L8.02841 33.5565ZM8.10247 25.2248L8.3235 25.4459L8.32902 25.4401L8.10247 25.2248ZM9.52194 25.1261L9.33437 25.3762L9.34173 25.3814L9.52194 25.1261ZM9.83052 25.4964L10.1207 25.38L10.1161 25.3695L9.83052 25.4964ZM12.6324 32.4827L12.3424 32.599L12.6324 33.3221L12.9225 32.599L12.6324 32.4827ZM15.4344 25.4964L15.1486 25.3694L15.1443 25.3801L15.4344 25.4964ZM15.7306 25.1261L15.5503 24.8707L15.5431 24.8761L15.7306 25.1261ZM17.1624 25.2248L16.9358 25.4401L16.9414 25.4458L17.1624 25.2248ZM17.2365 33.5565L17.4574 33.7775V33.7775L17.2365 33.5565ZM16.4342 33.5565L16.213 33.7776L16.2215 33.7855L16.4342 33.5565ZM16.2737 26.1506H16.5862L15.984 26.0334L16.2737 26.1506ZM13.4224 33.1986L13.7104 33.3198L13.7121 33.3158L13.4224 33.1986ZM13.1015 33.5812L13.2713 33.8436L13.2748 33.8412L13.1015 33.5812ZM12.1511 33.5812L11.9708 33.8365L11.9793 33.8425L11.9881 33.8479L12.1511 33.5812ZM11.8425 33.1986L11.5528 33.3158L11.5545 33.3198L11.8425 33.1986ZM8.99118 26.1506L9.28086 26.0334L8.67869 26.1506H8.99118ZM8.81837 33.5565L8.6056 33.3274L8.59741 33.3356L8.81837 33.5565ZM8.42339 33.4045C8.34682 33.4045 8.29558 33.3818 8.24937 33.3356L7.80744 33.7775C7.97518 33.9452 8.18727 34.0295 8.42339 34.0295V33.4045ZM8.24937 33.3356C8.20315 33.2893 8.18043 33.2381 8.18043 33.1615H7.55546C7.55546 33.3977 7.63971 33.6098 7.80744 33.7775L8.24937 33.3356ZM8.18043 33.1615V25.7926H7.55546V33.1615H8.18043ZM8.18043 25.7926C8.18043 25.6529 8.226 25.5432 8.32343 25.4458L7.8815 25.0039C7.66624 25.2191 7.55546 25.488 7.55546 25.7926H8.18043ZM8.32902 25.4401C8.42782 25.3361 8.53581 25.2905 8.67026 25.2905V24.6655C8.36034 24.6655 8.08981 24.7845 7.87591 25.0096L8.32902 25.4401ZM8.67026 25.2905H9.07758V24.6655H8.67026V25.2905ZM9.07758 25.2905C9.17455 25.2905 9.25688 25.3179 9.33445 25.3761L9.70943 24.8761C9.52368 24.7368 9.30977 24.6655 9.07758 24.6655V25.2905ZM9.34173 25.3814C9.43828 25.4495 9.50334 25.5296 9.54497 25.6233L10.1161 25.3695C10.026 25.1669 9.88538 25.0001 9.70215 24.8708L9.34173 25.3814ZM9.54049 25.6127L12.3424 32.599L12.9225 32.3663L10.1206 25.3801L9.54049 25.6127ZM12.9225 32.599L15.7244 25.6127L15.1443 25.3801L12.3424 32.3663L12.9225 32.599ZM15.7199 25.6233C15.7637 25.5247 15.8284 25.4434 15.9181 25.3761L15.5431 24.8761C15.3695 25.0063 15.2366 25.1719 15.1488 25.3695L15.7199 25.6233ZM15.9108 25.3814C16.0002 25.3183 16.09 25.2905 16.1873 25.2905V24.6655C15.9555 24.6655 15.7407 24.7364 15.5504 24.8708L15.9108 25.3814ZM16.1873 25.2905H16.5946V24.6655H16.1873V25.2905ZM16.5946 25.2905C16.7291 25.2905 16.8371 25.3361 16.9359 25.4401L17.389 25.0096C17.1751 24.7845 16.9045 24.6655 16.5946 24.6655V25.2905ZM16.9414 25.4458C17.0389 25.5432 17.0844 25.6529 17.0844 25.7926H17.7094C17.7094 25.488 17.5986 25.2191 17.3834 25.0039L16.9414 25.4458ZM17.0844 25.7926V33.1615H17.7094V25.7926H17.0844ZM17.0844 33.1615C17.0844 33.2381 17.0617 33.2893 17.0155 33.3356L17.4574 33.7775C17.6252 33.6098 17.7094 33.3977 17.7094 33.1615H17.0844ZM17.0155 33.3356C16.9693 33.3818 16.9181 33.4045 16.8415 33.4045V34.0295C17.0776 34.0295 17.2897 33.9452 17.4574 33.7775L17.0155 33.3356ZM16.8415 33.4045C16.7645 33.4045 16.7045 33.3812 16.6468 33.3275L16.2215 33.7855C16.3942 33.9458 16.6058 34.0295 16.8415 34.0295V33.4045ZM16.6551 33.3356C16.6089 33.2893 16.5862 33.2381 16.5862 33.1615H15.9612C15.9612 33.3977 16.0455 33.6098 16.2132 33.7775L16.6551 33.3356ZM16.5862 33.1615V26.1506H15.9612V33.1615H16.5862ZM15.984 26.0334L13.1327 33.0814L13.7121 33.3158L16.5634 26.2678L15.984 26.0334ZM13.1344 33.0773C13.0936 33.1743 13.0279 33.2547 12.9281 33.3212L13.2748 33.8412C13.4713 33.7102 13.6196 33.5355 13.7104 33.3198L13.1344 33.0773ZM12.9317 33.3189C12.8443 33.3754 12.7474 33.4045 12.6324 33.4045V34.0295C12.8631 34.0295 13.0788 33.9681 13.2712 33.8436L12.9317 33.3189ZM12.6324 33.4045C12.5174 33.4045 12.4133 33.3753 12.314 33.3146L11.9881 33.8479C12.1851 33.9682 12.4019 34.0295 12.6324 34.0295V33.4045ZM12.3313 33.3259C12.2387 33.2606 12.1734 33.1792 12.1305 33.0773L11.5545 33.3198C11.6432 33.5306 11.7837 33.7044 11.9708 33.8365L12.3313 33.3259ZM12.1321 33.0814L9.28086 26.0334L8.7015 26.2678L11.5528 33.3158L12.1321 33.0814ZM8.67869 26.1506V33.1615H9.30367V26.1506H8.67869ZM8.67869 33.1615C8.67869 33.2305 8.65767 33.2793 8.60574 33.3275L9.03101 33.7855C9.20948 33.6198 9.30367 33.4053 9.30367 33.1615H8.67869ZM8.59741 33.3356C8.5512 33.3818 8.49996 33.4045 8.42339 33.4045V34.0295C8.65952 34.0295 8.8716 33.9452 9.03934 33.7775L8.59741 33.3356ZM20.8138 33.5565L21.0348 33.3356L20.8138 33.5565ZM20.8138 25.1508L21.0349 25.3719L21.0428 25.3634L20.8138 25.1508ZM21.6038 25.1508L21.3748 25.3634L21.3826 25.3719L21.3911 25.3798L21.6038 25.1508ZM21.7766 29.4709H21.4641V30.2347L21.9994 29.6899L21.7766 29.4709ZM25.998 25.1755L26.2208 25.3945L26.2272 25.388L26.2331 25.3812L25.998 25.1755ZM26.7756 25.1261L26.5546 25.3471L26.5638 25.3562L26.5737 25.3646L26.7756 25.1261ZM26.8003 25.8543L27.0207 26.0758L27.0212 26.0753L26.8003 25.8543ZM23.949 28.6933L23.7285 28.4718L23.5307 28.6688L23.7042 28.8875L23.949 28.6933ZM27.2199 32.8159L27.4657 32.6229L27.4647 32.6217L27.2199 32.8159ZM27.3557 33.1739H27.0432V33.1826L27.0437 33.1912L27.3557 33.1739ZM27.2076 33.5565L27.4286 33.7775L27.2076 33.5565ZM26.3682 33.4948L26.6218 33.3117L26.6141 33.302L26.3682 33.4948ZM23.1837 29.4339L23.4296 29.2411L23.2111 28.9624L22.9618 29.2139L23.1837 29.4339ZM21.7766 30.8534L21.5546 30.6334L21.4641 30.7247V30.8534H21.7766ZM21.6038 33.5565L21.391 33.3274L21.3828 33.3356L21.6038 33.5565ZM21.2088 33.4045C21.1322 33.4045 21.081 33.3818 21.0348 33.3356L20.5928 33.7775C20.7606 33.9452 20.9726 34.0295 21.2088 34.0295V33.4045ZM21.0348 33.3356C20.9885 33.2893 20.9658 33.2381 20.9658 33.1615H20.3408C20.3408 33.3977 20.4251 33.6098 20.5928 33.7775L21.0348 33.3356ZM20.9658 33.1615V25.5458H20.3408V33.1615H20.9658ZM20.9658 25.5458C20.9658 25.4692 20.9885 25.418 21.0348 25.3717L20.5928 24.9298C20.4251 25.0975 20.3408 25.3096 20.3408 25.5458H20.9658ZM21.0428 25.3634C21.091 25.3115 21.1399 25.2905 21.2088 25.2905V24.6655C20.965 24.6655 20.7505 24.7597 20.5848 24.9381L21.0428 25.3634ZM21.2088 25.2905C21.2777 25.2905 21.3265 25.3115 21.3748 25.3634L21.8327 24.9381C21.667 24.7597 21.4526 24.6655 21.2088 24.6655V25.2905ZM21.3911 25.3798C21.4431 25.428 21.4641 25.4769 21.4641 25.5458H22.0891C22.0891 25.302 21.9949 25.0875 21.8164 24.9218L21.3911 25.3798ZM21.4641 25.5458V29.4709H22.0891V25.5458H21.4641ZM21.9994 29.6899L26.2208 25.3945L25.7751 24.9564L21.5537 29.2519L21.9994 29.6899ZM26.2331 25.3812C26.2932 25.3125 26.3494 25.2905 26.4176 25.2905V24.6655C26.1567 24.6655 25.9331 24.7751 25.7628 24.9697L26.2331 25.3812ZM26.4176 25.2905C26.4748 25.2905 26.5146 25.307 26.5546 25.3471L26.9965 24.9051C26.8391 24.7477 26.6402 24.6655 26.4176 24.6655V25.2905ZM26.5737 25.3646C26.6107 25.3959 26.6236 25.4239 26.6236 25.4717H27.2485C27.2485 25.2397 27.1544 25.0373 26.9774 24.8875L26.5737 25.3646ZM26.6236 25.4717C26.6236 25.5782 26.5958 25.6169 26.5793 25.6334L27.0212 26.0753C27.1858 25.9107 27.2485 25.6944 27.2485 25.4717H26.6236ZM26.5798 25.6329L23.7285 28.4718L24.1695 28.9147L27.0207 26.0758L26.5798 25.6329ZM23.7042 28.8875L26.9751 33.0102L27.4647 32.6217L24.1938 28.4991L23.7042 28.8875ZM26.9742 33.009C27.0299 33.0798 27.0432 33.1329 27.0432 33.1739H27.6682C27.6682 32.968 27.591 32.7824 27.4656 32.6229L26.9742 33.009ZM27.0437 33.1912C27.0469 33.2486 27.0322 33.29 26.9866 33.3356L27.4286 33.7775C27.597 33.6091 27.681 33.3954 27.6677 33.1566L27.0437 33.1912ZM26.9866 33.3356C26.9404 33.3818 26.8892 33.4045 26.8126 33.4045V34.0295C27.0487 34.0295 27.2608 33.9452 27.4286 33.7775L26.9866 33.3356ZM26.8126 33.4045C26.7194 33.4045 26.6674 33.3752 26.6216 33.3119L26.1149 33.6778C26.2831 33.9106 26.5273 34.0295 26.8126 34.0295V33.4045ZM26.6141 33.302L23.4296 29.2411L22.9378 29.6267L26.1224 33.6876L26.6141 33.302ZM22.9618 29.2139L21.5546 30.6334L21.9985 31.0734L23.4056 29.6539L22.9618 29.2139ZM21.4641 30.8534V33.1615H22.0891V30.8534H21.4641ZM21.4641 33.1615C21.4641 33.2305 21.4431 33.2793 21.3911 33.3275L21.8164 33.7855C21.9949 33.6198 22.0891 33.4053 22.0891 33.1615H21.4641ZM21.3828 33.3356C21.3366 33.3818 21.2853 33.4045 21.2088 33.4045V34.0295C21.4449 34.0295 21.657 33.9452 21.8247 33.7775L21.3828 33.3356ZM31.9711 33.1492L31.682 33.2684L31.6869 33.279L31.9711 33.1492ZM28.9223 25.7556L28.6296 25.8654L28.6334 25.8747L28.9223 25.7556ZM29.0334 25.1384L29.2546 25.3596L29.263 25.3504L29.0334 25.1384ZM29.7493 25.0891L29.5515 25.3309L29.5633 25.3406L29.576 25.3491L29.7493 25.0891ZM29.9715 25.3606L30.2616 25.2443L30.2587 25.2375L29.9715 25.3606ZM32.8722 32.5938L32.5821 32.7101L32.8722 33.4333L33.1622 32.7101L32.8722 32.5938ZM35.7728 25.3606L35.4855 25.2375L35.4828 25.2443L35.7728 25.3606ZM35.9827 25.0891L36.1665 25.3418L36.1702 25.3391L35.9827 25.0891ZM36.7109 25.1384L36.4811 25.3506L36.49 25.3594L36.7109 25.1384ZM36.822 25.7556L37.1111 25.8748L37.1146 25.8653L36.822 25.7556ZM33.7732 33.1492L34.0577 33.2791L34.0621 33.2683L33.7732 33.1492ZM32.7364 33.4045C32.6303 33.4045 32.5485 33.3762 32.4782 33.3241C32.4042 33.2692 32.3264 33.1751 32.2554 33.0194L31.6869 33.279C31.7886 33.5018 31.9248 33.6916 32.1058 33.826C32.2907 33.9632 32.5051 34.0295 32.7364 34.0295V33.4045ZM32.26 33.0301L29.2112 25.6365L28.6334 25.8747L31.6822 33.2683L32.26 33.0301ZM29.2149 25.6459C29.2041 25.617 29.1978 25.5844 29.1978 25.5458H28.5728C28.5728 25.6553 28.5912 25.7626 28.6297 25.8653L29.2149 25.6459ZM29.1978 25.5458C29.1978 25.435 29.2275 25.3863 29.2544 25.3594L28.8125 24.9175C28.6419 25.0881 28.5728 25.3109 28.5728 25.5458H29.1978ZM29.263 25.3504C29.2916 25.3195 29.3374 25.2905 29.4408 25.2905V24.6655C29.1985 24.6655 28.9728 24.7435 28.8038 24.9265L29.263 25.3504ZM29.4408 25.2905C29.4826 25.2905 29.5158 25.3018 29.5515 25.3309L29.9472 24.8472C29.8018 24.7282 29.6293 24.6655 29.4408 24.6655V25.2905ZM29.576 25.3491C29.6214 25.3793 29.6574 25.4209 29.6843 25.4837L30.2587 25.2375C30.1869 25.0699 30.0747 24.9304 29.9227 24.8291L29.576 25.3491ZM29.6815 25.4769L32.5821 32.7101L33.1622 32.4774L30.2615 25.2443L29.6815 25.4769ZM33.1622 32.7101L36.0629 25.4769L35.4828 25.2443L32.5821 32.4774L33.1622 32.7101ZM36.0601 25.4837C36.09 25.4139 36.1268 25.3707 36.1665 25.3418L35.7989 24.8363C35.6576 24.9391 35.5544 25.0769 35.4856 25.2375L36.0601 25.4837ZM36.1702 25.3391C36.2189 25.3025 36.261 25.2905 36.3036 25.2905V24.6655C36.1158 24.6655 35.9439 24.7275 35.7952 24.8391L36.1702 25.3391ZM36.3036 25.2905C36.4069 25.2905 36.4528 25.3195 36.4813 25.3504L36.9405 24.9265C36.7716 24.7435 36.5459 24.6655 36.3036 24.6655V25.2905ZM36.49 25.3594C36.5168 25.3863 36.5466 25.435 36.5466 25.5458H37.1715C37.1715 25.3109 37.1025 25.0881 36.9319 24.9175L36.49 25.3594ZM36.5466 25.5458C36.5466 25.5844 36.5403 25.617 36.5294 25.6459L37.1146 25.8653C37.1531 25.7626 37.1715 25.6553 37.1715 25.5458H36.5466ZM36.5331 25.6365L33.4843 33.0301L34.0621 33.2683L37.1109 25.8747L36.5331 25.6365ZM33.489 33.0194C33.4179 33.1751 33.3401 33.2692 33.2661 33.3241C33.1959 33.3762 33.114 33.4045 33.008 33.4045V34.0295C33.2393 34.0295 33.4536 33.9632 33.6385 33.826C33.8196 33.6916 33.9558 33.5018 34.0575 33.279L33.489 33.0194ZM33.008 33.4045H32.7364V34.0295H33.008V33.4045Z" fill="white"/>
<g filter="url(#filter1_d_1628_44396)">
<path d="M42.9759 15.9368H30.4764C28.578 15.9368 27.0391 14.3979 27.0391 12.4995V0L42.9759 15.9368Z" fill="url(#paint2_linear_1628_44396)"/>
</g>
</g>
<defs>
<filter id="filter0_f_1628_44396" x="1.88306" y="17.1868" width="39.9985" height="25.3115" filterUnits="userSpaceOnUse" color-interpolation-filters="sRGB">
<feFlood flood-opacity="0" result="BackgroundImageFix"/>
<feBlend mode="normal" in="SourceGraphic" in2="BackgroundImageFix" result="shape"/>
<feGaussianBlur stdDeviation="3.04675" result="effect1_foregroundBlur_1628_44396"/>
</filter>
<filter id="filter1_d_1628_44396" x="23.4455" y="-3.74985" width="23.7487" height="23.7492" filterUnits="userSpaceOnUse" color-interpolation-filters="sRGB">
<feFlood flood-opacity="0" result="BackgroundImageFix"/>
<feColorMatrix in="SourceAlpha" type="matrix" values="0 0 0 0 0 0 0 0 0 0 0 0 0 0 0 0 0 0 127 0" result="hardAlpha"/>
<feOffset dx="0.312487" dy="0.156244"/>
<feGaussianBlur stdDeviation="1.95305"/>
<feColorMatrix type="matrix" values="0 0 0 0 0 0 0 0 0 0 0 0 0 0 0 0 0 0 0.33 0"/>
<feBlend mode="normal" in2="BackgroundImageFix" result="effect1_dropShadow_1628_44396"/>
<feBlend mode="normal" in="SourceGraphic" in2="effect1_dropShadow_1628_44396" result="shape"/>
</filter>
<linearGradient id="paint0_linear_1628_44396" x1="21.7257" y1="0" x2="21.7257" y2="48.123" gradientUnits="userSpaceOnUse">
<stop stop-color="#FF7979"/>
<stop offset="1" stop-color="#E85555"/>
</linearGradient>
<linearGradient id="paint1_linear_1628_44396" x1="21.7267" y1="0" x2="21.7267" y2="48.123" gradientUnits="userSpaceOnUse">
<stop stop-color="#CB74F4"/>
<stop offset="0.942892" stop-color="#A849F3"/>
</linearGradient>
<linearGradient id="paint2_linear_1628_44396" x1="35.0075" y1="0" x2="35.0075" y2="15.9368" gradientUnits="userSpaceOnUse">
<stop stop-color="#B051E0"/>
<stop offset="1" stop-color="#952BCB"/>
</linearGradient>
</defs>
</svg>
