<svg width="43" height="49" viewBox="0 0 43 49" fill="none" xmlns="http://www.w3.org/2000/svg">
<mask id="mask0_1628_44393" style="mask-type:alpha" maskUnits="userSpaceOnUse" x="0" y="0" width="43" height="49">
<path d="M39.5414 48.123H3.91783C2.01943 48.123 0.480469 46.5841 0.480469 44.6857V3.43736C0.480469 1.53896 2.01943 0 3.91783 0H27.0419L42.9787 15.9368V44.6857C42.9787 46.5841 41.4398 48.123 39.5414 48.123Z" fill="url(#paint0_linear_1628_44393)"/>
</mask>
<g mask="url(#mask0_1628_44393)">
<path d="M39.5404 48.123H3.91685C2.01845 48.123 0.479492 46.5841 0.479492 44.6857V3.43736C0.479492 1.53896 2.01845 0 3.91685 0H27.0409L42.9778 15.9368V44.6857C42.9778 46.5841 41.4388 48.123 39.5404 48.123Z" fill="url(#paint1_linear_1628_44393)"/>
<g filter="url(#filter0_f_1628_44393)">
<rect x="7.97852" y="23.2803" width="27.8114" height="13.1245" fill="#0B07C6" fill-opacity="0.16" style="mix-blend-mode:darken"/>
</g>
<path d="M8.79187 33.717C8.63553 33.717 8.50386 33.6635 8.39689 33.5565C8.28992 33.4496 8.23643 33.3179 8.23643 33.1615V25.7926C8.23643 25.5704 8.3146 25.3812 8.47095 25.2248C8.6273 25.0603 8.81656 24.978 9.03874 24.978H9.44607C9.61064 24.978 9.75876 25.0273 9.89042 25.1261C10.0303 25.2248 10.1332 25.3483 10.199 25.4964L13.0009 32.4827L15.8028 25.4964C15.8687 25.3483 15.9674 25.2248 16.0991 25.1261C16.239 25.0273 16.3912 24.978 16.5558 24.978H16.9631C17.1853 24.978 17.3745 25.0603 17.5309 25.2248C17.6872 25.3812 17.7654 25.5704 17.7654 25.7926V33.1615C17.7654 33.3179 17.7119 33.4496 17.605 33.5565C17.498 33.6635 17.3663 33.717 17.21 33.717C17.0536 33.717 16.9178 33.6635 16.8026 33.5565C16.6957 33.4496 16.6422 33.3179 16.6422 33.1615V26.1506L13.7909 33.1986C13.7251 33.3549 13.6181 33.4825 13.47 33.5812C13.3301 33.6717 13.1737 33.717 13.0009 33.717C12.8281 33.717 12.6677 33.6717 12.5195 33.5812C12.3796 33.4825 12.2768 33.3549 12.211 33.1986L9.35966 26.1506V33.1615C9.35966 33.3179 9.30206 33.4496 9.18686 33.5565C9.07988 33.6635 8.94822 33.717 8.79187 33.717ZM21.5773 33.717C21.4209 33.717 21.2892 33.6635 21.1823 33.5565C21.0753 33.4496 21.0218 33.3179 21.0218 33.1615V25.6075C21.0218 25.4511 21.0753 25.3195 21.1823 25.2125C21.2892 25.0973 21.4209 25.0397 21.5773 25.0397H24.3915C25.1733 25.0397 25.811 25.1713 26.3047 25.4347C26.7984 25.698 27.1523 26.0354 27.3662 26.4468C27.5802 26.8583 27.6872 27.3026 27.6872 27.7799C27.6872 28.2572 27.5802 28.7015 27.3662 29.113C27.1523 29.5244 26.7984 29.8618 26.3047 30.1251C25.811 30.3884 25.1733 30.5201 24.3915 30.5201H22.145V33.1615C22.145 33.3179 22.0874 33.4496 21.9722 33.5565C21.8653 33.6635 21.7336 33.717 21.5773 33.717ZM24.2804 29.4586C25.1198 29.4586 25.7081 29.2981 26.0455 28.9772C26.3911 28.6563 26.5639 28.2572 26.5639 27.7799C26.5639 27.3026 26.3911 26.9035 26.0455 26.5826C25.7081 26.2617 25.1198 26.1012 24.2804 26.1012H22.145V29.4586H24.2804ZM32.6106 33.7787C31.6972 33.7787 30.8373 33.6141 30.0308 33.285C29.9321 33.2438 29.8539 33.1862 29.7963 33.1122C29.7387 33.0299 29.7099 32.9311 29.7099 32.8159C29.7099 32.676 29.7552 32.5567 29.8457 32.458C29.9444 32.351 30.0638 32.2975 30.2036 32.2975C30.2777 32.2975 30.3559 32.314 30.4382 32.3469C31.0306 32.5855 31.6848 32.7048 32.4007 32.7048C33.0426 32.7048 33.5816 32.602 34.0177 32.3963C34.4621 32.1823 34.6842 31.8285 34.6842 31.3347C34.6842 30.2979 33.775 29.7795 31.9564 29.7795H31.7589C31.619 29.7795 31.4956 29.7301 31.3886 29.6314C31.2898 29.5244 31.2405 29.401 31.2405 29.2611C31.2405 29.1212 31.2898 29.0019 31.3886 28.9031C31.4956 28.7961 31.619 28.7427 31.7589 28.7427H31.833C32.6558 28.7427 33.2853 28.6192 33.7215 28.3724C34.1576 28.1173 34.3757 27.7429 34.3757 27.2491C34.3757 26.8541 34.2111 26.5414 33.8819 26.311C33.5528 26.0806 33.0673 25.9654 32.4254 25.9654C31.7342 25.9654 31.0965 26.1012 30.5122 26.3728C30.4299 26.4057 30.3559 26.4221 30.29 26.4221C30.1666 26.4221 30.0596 26.381 29.9691 26.2987C29.8786 26.2082 29.8333 26.0971 29.8333 25.9654C29.8333 25.7762 29.9156 25.6363 30.0802 25.5458C30.8702 25.1261 31.6848 24.9163 32.5242 24.9163C33.4705 24.9163 34.2029 25.1096 34.7213 25.4964C35.2397 25.8831 35.4989 26.4304 35.4989 27.138C35.4989 27.7058 35.3549 28.1543 35.0669 28.4835C34.7871 28.8044 34.4333 29.043 34.0054 29.1994C34.4744 29.3063 34.89 29.5326 35.252 29.8782C35.6223 30.2156 35.8075 30.7217 35.8075 31.3965C35.8075 32.1535 35.5071 32.7419 34.9064 33.1615C34.3139 33.573 33.5487 33.7787 32.6106 33.7787Z" fill="white"/>
<path d="M8.39689 33.5565L8.61785 33.3356H8.61785L8.39689 33.5565ZM8.47095 25.2248L8.69198 25.4459L8.6975 25.4401L8.47095 25.2248ZM9.89042 25.1261L9.70285 25.3762L9.71022 25.3814L9.89042 25.1261ZM10.199 25.4964L10.4892 25.38L10.4846 25.3695L10.199 25.4964ZM13.0009 32.4827L12.7109 32.599L13.0009 33.3221L13.291 32.599L13.0009 32.4827ZM15.8028 25.4964L15.5171 25.3694L15.5128 25.3801L15.8028 25.4964ZM16.0991 25.1261L15.9188 24.8707L15.9116 24.8761L16.0991 25.1261ZM17.5309 25.2248L17.3043 25.4401L17.3099 25.4458L17.5309 25.2248ZM17.605 33.5565L17.8259 33.7775V33.7775L17.605 33.5565ZM16.8026 33.5565L16.5815 33.7776L16.59 33.7855L16.8026 33.5565ZM16.6422 26.1506H16.9547L16.3525 26.0334L16.6422 26.1506ZM13.7909 33.1986L14.0789 33.3198L14.0806 33.3158L13.7909 33.1986ZM13.47 33.5812L13.6397 33.8436L13.6433 33.8412L13.47 33.5812ZM12.5195 33.5812L12.3393 33.8365L12.3478 33.8425L12.3566 33.8479L12.5195 33.5812ZM12.211 33.1986L11.9212 33.3158L11.923 33.3198L12.211 33.1986ZM9.35966 26.1506L9.64934 26.0334L9.04718 26.1506H9.35966ZM9.18686 33.5565L8.97408 33.3274L8.9659 33.3356L9.18686 33.5565ZM8.79187 33.4045C8.7153 33.4045 8.66407 33.3818 8.61785 33.3356L8.17593 33.7775C8.34366 33.9452 8.55575 34.0295 8.79187 34.0295V33.4045ZM8.61785 33.3356C8.57164 33.2893 8.54892 33.2381 8.54892 33.1615H7.92394C7.92394 33.3977 8.00819 33.6098 8.17593 33.7775L8.61785 33.3356ZM8.54892 33.1615V25.7926H7.92394V33.1615H8.54892ZM8.54892 25.7926C8.54892 25.6529 8.59448 25.5432 8.69191 25.4458L8.24999 25.0039C8.03472 25.2191 7.92394 25.488 7.92394 25.7926H8.54892ZM8.6975 25.4401C8.7963 25.3361 8.9043 25.2905 9.03874 25.2905V24.6655C8.72882 24.6655 8.45829 24.7845 8.2444 25.0096L8.6975 25.4401ZM9.03874 25.2905H9.44607V24.6655H9.03874V25.2905ZM9.44607 25.2905C9.54303 25.2905 9.62536 25.3179 9.70293 25.3761L10.0779 24.8761C9.89216 24.7368 9.67826 24.6655 9.44607 24.6655V25.2905ZM9.71022 25.3814C9.80676 25.4495 9.87182 25.5296 9.91345 25.6233L10.4846 25.3695C10.3945 25.1669 10.2539 25.0001 10.0706 24.8708L9.71022 25.3814ZM9.90897 25.6127L12.7109 32.599L13.291 32.3663L10.489 25.3801L9.90897 25.6127ZM13.291 32.599L16.0929 25.6127L15.5128 25.3801L12.7109 32.3663L13.291 32.599ZM16.0884 25.6233C16.1322 25.5247 16.1969 25.4434 16.2866 25.3761L15.9116 24.8761C15.738 25.0063 15.6051 25.1719 15.5173 25.3695L16.0884 25.6233ZM16.2793 25.3814C16.3687 25.3183 16.4585 25.2905 16.5558 25.2905V24.6655C16.3239 24.6655 16.1092 24.7364 15.9189 24.8708L16.2793 25.3814ZM16.5558 25.2905H16.9631V24.6655H16.5558V25.2905ZM16.9631 25.2905C17.0975 25.2905 17.2055 25.3361 17.3043 25.4401L17.7574 25.0096C17.5435 24.7845 17.273 24.6655 16.9631 24.6655V25.2905ZM17.3099 25.4458C17.4074 25.5432 17.4529 25.6529 17.4529 25.7926H18.0779C18.0779 25.488 17.9671 25.2191 17.7519 25.0039L17.3099 25.4458ZM17.4529 25.7926V33.1615H18.0779V25.7926H17.4529ZM17.4529 33.1615C17.4529 33.2381 17.4302 33.2893 17.384 33.3356L17.8259 33.7775C17.9936 33.6098 18.0779 33.3977 18.0779 33.1615H17.4529ZM17.384 33.3356C17.3378 33.3818 17.2865 33.4045 17.21 33.4045V34.0295C17.4461 34.0295 17.6582 33.9452 17.8259 33.7775L17.384 33.3356ZM17.21 33.4045C17.133 33.4045 17.073 33.3812 17.0153 33.3275L16.59 33.7855C16.7627 33.9458 16.9743 34.0295 17.21 34.0295V33.4045ZM17.0236 33.3356C16.9774 33.2893 16.9547 33.2381 16.9547 33.1615H16.3297C16.3297 33.3977 16.4139 33.6098 16.5817 33.7775L17.0236 33.3356ZM16.9547 33.1615V26.1506H16.3297V33.1615H16.9547ZM16.3525 26.0334L13.5012 33.0814L14.0806 33.3158L16.9319 26.2678L16.3525 26.0334ZM13.5029 33.0773C13.4621 33.1743 13.3964 33.2547 13.2966 33.3212L13.6433 33.8412C13.8398 33.7102 13.9881 33.5355 14.0789 33.3198L13.5029 33.0773ZM13.3002 33.3189C13.2128 33.3754 13.1158 33.4045 13.0009 33.4045V34.0295C13.2316 34.0295 13.4473 33.9681 13.6397 33.8436L13.3002 33.3189ZM13.0009 33.4045C12.8859 33.4045 12.7818 33.3753 12.6825 33.3146L12.3566 33.8479C12.5535 33.9682 12.7703 34.0295 13.0009 34.0295V33.4045ZM12.6997 33.3259C12.6071 33.2606 12.5419 33.1792 12.499 33.0773L11.923 33.3198C12.0117 33.5306 12.1522 33.7044 12.3393 33.8365L12.6997 33.3259ZM12.5006 33.0814L9.64934 26.0334L9.06998 26.2678L11.9213 33.3158L12.5006 33.0814ZM9.04718 26.1506V33.1615H9.67215V26.1506H9.04718ZM9.04718 33.1615C9.04718 33.2305 9.02616 33.2793 8.97423 33.3275L9.39949 33.7855C9.57797 33.6198 9.67215 33.4053 9.67215 33.1615H9.04718ZM8.9659 33.3356C8.91968 33.3818 8.86844 33.4045 8.79187 33.4045V34.0295C9.028 34.0295 9.24009 33.9452 9.40782 33.7775L8.9659 33.3356ZM21.1823 33.5565L21.4032 33.3356L21.1823 33.5565ZM21.1823 25.2125L21.4034 25.4336L21.4113 25.4251L21.1823 25.2125ZM27.3662 26.4468L27.089 26.591L27.3662 26.4468ZM27.3662 29.113L27.089 28.9688V28.9688L27.3662 29.113ZM22.145 30.5201V30.2076H21.8326V30.5201H22.145ZM21.9722 33.5565L21.7595 33.3274L21.7513 33.3356L21.9722 33.5565ZM26.0455 28.9772L25.8329 28.7482L25.8301 28.7508L26.0455 28.9772ZM26.0455 26.5826L25.8301 26.809L25.8329 26.8116L26.0455 26.5826ZM22.145 26.1012V25.7887H21.8326V26.1012H22.145ZM22.145 29.4586H21.8326V29.7711H22.145V29.4586ZM21.5773 33.4045C21.5007 33.4045 21.4495 33.3818 21.4032 33.3356L20.9613 33.7775C21.129 33.9452 21.3411 34.0295 21.5773 34.0295V33.4045ZM21.4032 33.3356C21.357 33.2893 21.3343 33.2381 21.3343 33.1615H20.7093C20.7093 33.3977 20.7936 33.6098 20.9613 33.7775L21.4032 33.3356ZM21.3343 33.1615V25.6075H20.7093V33.1615H21.3343ZM21.3343 25.6075C21.3343 25.5309 21.357 25.4797 21.4032 25.4335L20.9613 24.9915C20.7936 25.1593 20.7093 25.3714 20.7093 25.6075H21.3343ZM21.4113 25.4251C21.4595 25.3732 21.5083 25.3522 21.5773 25.3522V24.7272C21.3335 24.7272 21.119 24.8214 20.9533 24.9999L21.4113 25.4251ZM21.5773 25.3522H24.3915V24.7272H21.5773V25.3522ZM24.3915 25.3522C25.1412 25.3522 25.7236 25.4789 26.1577 25.7104L26.4518 25.1589C25.8984 24.8638 25.2053 24.7272 24.3915 24.7272V25.3522ZM26.1577 25.7104C26.6074 25.9503 26.9097 26.2462 27.089 26.591L27.6435 26.3027C27.3948 25.8245 26.9895 25.4457 26.4518 25.1589L26.1577 25.7104ZM27.089 26.591C27.2791 26.9566 27.3747 27.3513 27.3747 27.7799H27.9997C27.9997 27.2539 27.8813 26.7599 27.6435 26.3027L27.089 26.591ZM27.3747 27.7799C27.3747 28.2085 27.2791 28.6032 27.089 28.9688L27.6435 29.2571C27.8813 28.7998 27.9997 28.3058 27.9997 27.7799H27.3747ZM27.089 28.9688C26.9097 29.3135 26.6074 29.6095 26.1577 29.8494L26.4518 30.4008C26.9895 30.114 27.3948 29.7353 27.6435 29.2571L27.089 28.9688ZM26.1577 29.8494C25.7236 30.0809 25.1412 30.2076 24.3915 30.2076V30.8326C25.2053 30.8326 25.8984 30.696 26.4518 30.4008L26.1577 29.8494ZM24.3915 30.2076H22.145V30.8326H24.3915V30.2076ZM21.8326 30.5201V33.1615H22.4575V30.5201H21.8326ZM21.8326 33.1615C21.8326 33.2305 21.8115 33.2793 21.7596 33.3275L22.1849 33.7855C22.3634 33.6198 22.4575 33.4053 22.4575 33.1615H21.8326ZM21.7513 33.3356C21.7051 33.3818 21.6538 33.4045 21.5773 33.4045V34.0295C21.8134 34.0295 22.0255 33.9452 22.1932 33.7775L21.7513 33.3356ZM24.2804 29.7711C25.1416 29.7711 25.8337 29.6099 26.2609 29.2036L25.8301 28.7508C25.5825 28.9863 25.0979 29.1461 24.2804 29.1461V29.7711ZM26.2581 29.2062C26.6683 28.8253 26.8764 28.3429 26.8764 27.7799H26.2514C26.2514 28.1714 26.114 28.4872 25.8329 28.7482L26.2581 29.2062ZM26.8764 27.7799C26.8764 27.2169 26.6683 26.7345 26.2581 26.3536L25.8329 26.8116C26.114 27.0726 26.2514 27.3883 26.2514 27.7799H26.8764ZM26.2609 26.3562C25.8337 25.9499 25.1416 25.7887 24.2804 25.7887V26.4137C25.0979 26.4137 25.5825 26.5735 25.8301 26.809L26.2609 26.3562ZM24.2804 25.7887H22.145V26.4137H24.2804V25.7887ZM21.8326 26.1012V29.4586H22.4575V26.1012H21.8326ZM22.145 29.7711H24.2804V29.1461H22.145V29.7711ZM30.0308 33.285L29.9106 33.5734L29.9127 33.5743L30.0308 33.285ZM29.7963 33.1122L29.5403 33.2914L29.5448 33.2978L29.5497 33.304L29.7963 33.1122ZM29.8457 32.458L29.6161 32.246L29.6153 32.2468L29.8457 32.458ZM30.4382 32.3469L30.5549 32.057L30.5542 32.0568L30.4382 32.3469ZM34.0177 32.3963L34.151 32.6789L34.1533 32.6778L34.0177 32.3963ZM31.3886 29.6314L31.159 29.8433L31.1675 29.8525L31.1766 29.861L31.3886 29.6314ZM31.3886 28.9031L31.6096 29.1241L31.3886 28.9031ZM33.7215 28.3724L33.8754 28.6443L33.8792 28.6421L33.7215 28.3724ZM30.5122 26.3728L30.6283 26.6629L30.6362 26.6597L30.6439 26.6561L30.5122 26.3728ZM29.9691 26.2987L29.7482 26.5197L29.7534 26.5249L29.7589 26.5299L29.9691 26.2987ZM30.0802 25.5458L29.9336 25.2698L29.9296 25.272L30.0802 25.5458ZM34.7213 25.4964L34.9081 25.2459L34.7213 25.4964ZM35.0669 28.4835L34.8317 28.2777L34.8313 28.2781L35.0669 28.4835ZM34.0054 29.1994L33.8981 28.9059L32.9047 29.2688L33.9359 29.504L34.0054 29.1994ZM35.252 29.8782L35.0362 30.1043L35.0416 30.1092L35.252 29.8782ZM34.9064 33.1615L35.0847 33.4182L35.0854 33.4177L34.9064 33.1615ZM32.6106 33.4662C31.7357 33.4662 30.916 33.3088 30.1489 32.9957L29.9127 33.5743C30.7585 33.9195 31.6587 34.0912 32.6106 34.0912V33.4662ZM30.151 32.9965C30.095 32.9732 30.0631 32.9461 30.043 32.9203L29.5497 33.304C29.6448 33.4263 29.7692 33.5145 29.9106 33.5734L30.151 32.9965ZM30.0523 32.933C30.0367 32.9107 30.0224 32.8768 30.0224 32.8159H29.3974C29.3974 32.9855 29.4407 33.1491 29.5403 33.2914L30.0523 32.933ZM30.0224 32.8159C30.0224 32.7504 30.0409 32.7075 30.076 32.6691L29.6153 32.2468C29.4695 32.4059 29.3974 32.6017 29.3974 32.8159H30.0224ZM30.0753 32.6699C30.1176 32.6241 30.1549 32.61 30.2036 32.61V31.985C29.9726 31.985 29.7713 32.0779 29.6161 32.246L30.0753 32.6699ZM30.2036 32.61C30.231 32.61 30.2696 32.616 30.3221 32.637L30.5542 32.0568C30.4421 32.0119 30.3244 31.985 30.2036 31.985V32.61ZM30.3214 32.6367C30.9552 32.892 31.6496 33.0173 32.4007 33.0173V32.3924C31.72 32.3924 31.1061 32.279 30.5549 32.057L30.3214 32.6367ZM32.4007 33.0173C33.0741 33.0173 33.6618 32.9097 34.151 32.6789L33.8844 32.1136C33.5014 32.2943 33.011 32.3924 32.4007 32.3924V33.0173ZM34.1533 32.6778C34.4188 32.55 34.6346 32.3718 34.7822 32.1366C34.9299 31.9014 34.9967 31.6296 34.9967 31.3347H34.3718C34.3718 31.5336 34.3275 31.6856 34.253 31.8042C34.1784 31.9229 34.061 32.0286 33.8821 32.1147L34.1533 32.6778ZM34.9967 31.3347C34.9967 30.7028 34.708 30.211 34.157 29.8968C33.6322 29.5976 32.8851 29.467 31.9564 29.467V30.092C32.8462 30.092 33.4631 30.2206 33.8475 30.4398C34.2058 30.644 34.3718 30.9299 34.3718 31.3347H34.9967ZM31.9564 29.467H31.7589V30.092H31.9564V29.467ZM31.7589 29.467C31.701 29.467 31.6524 29.4496 31.6005 29.4018L31.1766 29.861C31.3387 30.0106 31.537 30.092 31.7589 30.092V29.467ZM31.6182 29.4194C31.5704 29.3676 31.553 29.319 31.553 29.2611H30.928C30.928 29.483 31.0093 29.6812 31.159 29.8433L31.6182 29.4194ZM31.553 29.2611C31.553 29.2039 31.5695 29.1641 31.6096 29.1241L31.1676 28.6822C31.0102 28.8396 30.928 29.0385 30.928 29.2611H31.553ZM31.6096 29.1241C31.6632 29.0704 31.709 29.0551 31.7589 29.0551V28.4302C31.529 28.4302 31.3279 28.5219 31.1676 28.6822L31.6096 29.1241ZM31.7589 29.0551H31.833V28.4302H31.7589V29.0551ZM31.833 29.0551C32.6789 29.0551 33.3713 28.9297 33.8754 28.6443L33.5675 28.1004C33.1994 28.3088 32.6327 28.4302 31.833 28.4302V29.0551ZM33.8792 28.6421C34.4084 28.3326 34.6881 27.857 34.6881 27.2491H34.0632C34.0632 27.6287 33.9068 27.902 33.5637 28.1026L33.8792 28.6421ZM34.6881 27.2491C34.6881 26.7501 34.4721 26.3427 34.0611 26.055L33.7027 26.567C33.9501 26.7402 34.0632 26.9582 34.0632 27.2491H34.6881ZM34.0611 26.055C33.6565 25.7718 33.0962 25.6529 32.4254 25.6529V26.2779C33.0384 26.2779 33.449 26.3894 33.7027 26.567L34.0611 26.055ZM32.4254 25.6529C31.6921 25.6529 31.009 25.7973 30.3805 26.0894L30.6439 26.6561C31.184 26.4051 31.7763 26.2779 32.4254 26.2779V25.6529ZM30.3962 26.0826C30.3388 26.1056 30.305 26.1096 30.29 26.1096V26.7346C30.4068 26.7346 30.5211 26.7058 30.6283 26.6629L30.3962 26.0826ZM30.29 26.1096C30.2436 26.1096 30.2117 26.097 30.1793 26.0675L29.7589 26.5299C29.9075 26.665 30.0897 26.7346 30.29 26.7346V26.1096ZM30.1901 26.0777C30.16 26.0477 30.1458 26.0169 30.1458 25.9654H29.5209C29.5209 26.1773 29.5972 26.3687 29.7482 26.5197L30.1901 26.0777ZM30.1458 25.9654C30.1458 25.9172 30.1559 25.8915 30.1644 25.877C30.1728 25.8627 30.1899 25.8421 30.2308 25.8196L29.9296 25.272C29.806 25.34 29.6996 25.4346 29.6257 25.5601C29.5519 25.6856 29.5209 25.8244 29.5209 25.9654H30.1458ZM30.2268 25.8217C30.9747 25.4244 31.7393 25.2287 32.5242 25.2287V24.6038C31.6304 24.6038 30.7657 24.8278 29.9336 25.2698L30.2268 25.8217ZM32.5242 25.2287C33.4331 25.2287 34.0898 25.4152 34.5344 25.7469L34.9081 25.2459C34.3159 24.8041 33.5079 24.6038 32.5242 24.6038V25.2287ZM34.5344 25.7469C34.9655 26.0685 35.1864 26.5183 35.1864 27.138H35.8114C35.8114 26.3425 35.5138 25.6978 34.9081 25.2459L34.5344 25.7469ZM35.1864 27.138C35.1864 27.6532 35.0565 28.0207 34.8317 28.2777L35.3021 28.6892C35.6532 28.2879 35.8114 27.7584 35.8114 27.138H35.1864ZM34.8313 28.2781C34.5886 28.5565 34.2801 28.7663 33.8981 28.9059L34.1126 29.4929C34.5864 29.3197 34.9856 29.0522 35.3024 28.6888L34.8313 28.2781ZM33.9359 29.504C34.3477 29.5979 34.7132 29.7959 35.0363 30.1043L35.4678 29.6522C35.0667 29.2693 34.6011 29.0147 34.0748 28.8947L33.9359 29.504ZM35.0416 30.1092C35.3266 30.3689 35.495 30.7777 35.495 31.3965H36.12C36.12 30.6656 35.9181 30.0624 35.4625 29.6473L35.0416 30.1092ZM35.495 31.3965C35.495 32.0555 35.2412 32.5464 34.7275 32.9054L35.0854 33.4177C35.773 32.9373 36.12 32.2516 36.12 31.3965H35.495ZM34.7282 32.9049C34.2017 33.2705 33.504 33.4662 32.6106 33.4662V34.0912C33.5934 34.0912 34.4261 33.8755 35.0847 33.4182L34.7282 32.9049Z" fill="white"/>
<g filter="url(#filter1_d_1628_44393)">
<path d="M42.9779 15.9368H30.4784C28.58 15.9368 27.041 14.3979 27.041 12.4995V0L42.9779 15.9368Z" fill="url(#paint2_linear_1628_44393)"/>
</g>
</g>
<defs>
<filter id="filter0_f_1628_44393" x="1.88502" y="17.1868" width="39.9985" height="25.3115" filterUnits="userSpaceOnUse" color-interpolation-filters="sRGB">
<feFlood flood-opacity="0" result="BackgroundImageFix"/>
<feBlend mode="normal" in="SourceGraphic" in2="BackgroundImageFix" result="shape"/>
<feGaussianBlur stdDeviation="3.04675" result="effect1_foregroundBlur_1628_44393"/>
</filter>
<filter id="filter1_d_1628_44393" x="23.4474" y="-3.74985" width="23.7487" height="23.7492" filterUnits="userSpaceOnUse" color-interpolation-filters="sRGB">
<feFlood flood-opacity="0" result="BackgroundImageFix"/>
<feColorMatrix in="SourceAlpha" type="matrix" values="0 0 0 0 0 0 0 0 0 0 0 0 0 0 0 0 0 0 127 0" result="hardAlpha"/>
<feOffset dx="0.312487" dy="0.156244"/>
<feGaussianBlur stdDeviation="1.95305"/>
<feColorMatrix type="matrix" values="0 0 0 0 0 0 0 0 0 0 0 0 0 0 0 0 0 0 0.33 0"/>
<feBlend mode="normal" in2="BackgroundImageFix" result="effect1_dropShadow_1628_44393"/>
<feBlend mode="normal" in="SourceGraphic" in2="effect1_dropShadow_1628_44393" result="shape"/>
</filter>
<linearGradient id="paint0_linear_1628_44393" x1="21.7296" y1="0" x2="21.7296" y2="48.123" gradientUnits="userSpaceOnUse">
<stop stop-color="#FF7979"/>
<stop offset="1" stop-color="#E85555"/>
</linearGradient>
<linearGradient id="paint1_linear_1628_44393" x1="21.7286" y1="0" x2="21.7286" y2="48.123" gradientUnits="userSpaceOnUse">
<stop stop-color="#7CA9FF"/>
<stop offset="1" stop-color="#4377DC"/>
</linearGradient>
<linearGradient id="paint2_linear_1628_44393" x1="35.0094" y1="0" x2="35.0094" y2="15.9368" gradientUnits="userSpaceOnUse">
<stop stop-color="#4B7BF7"/>
<stop offset="1" stop-color="#1A4DD1"/>
</linearGradient>
</defs>
</svg>
