<svg width="43" height="49" viewBox="0 0 43 49" fill="none" xmlns="http://www.w3.org/2000/svg">
<mask id="mask0_1628_44392" style="mask-type:alpha" maskUnits="userSpaceOnUse" x="0" y="0" width="43" height="49">
<path d="M39.5541 48.123H3.93052C2.03212 48.123 0.493164 46.5841 0.493164 44.6857V3.43736C0.493164 1.53896 2.03212 0 3.93052 0H27.0546L42.9914 15.9368V44.6857C42.9914 46.5841 41.4525 48.123 39.5541 48.123Z" fill="url(#paint0_linear_1628_44392)"/>
</mask>
<g mask="url(#mask0_1628_44392)">
<path d="M39.555 48.123H3.9315C2.0331 48.123 0.494141 46.5841 0.494141 44.6857V3.43736C0.494141 1.53896 2.0331 0 3.9315 0H27.0556L42.9924 15.9368V44.6857C42.9924 46.5841 41.4534 48.123 39.555 48.123Z" fill="url(#paint1_linear_1628_44392)"/>
<g opacity="0.27" filter="url(#filter0_f_1628_44392)">
<rect x="7.99316" y="23.2803" width="27.8114" height="13.1245" fill="#0072A2" style="mix-blend-mode:darken"/>
</g>
<path d="M8.85474 33.6553C8.69839 33.6553 8.56673 33.6018 8.45975 33.4948C8.35278 33.3878 8.29929 33.2562 8.29929 33.0998V25.6075C8.29929 25.4511 8.35278 25.3195 8.45975 25.2125C8.56673 25.0973 8.69839 25.0397 8.85474 25.0397H11.3357C12.2738 25.0397 13.0679 25.2495 13.718 25.6692C14.3763 26.0806 14.87 26.6155 15.1992 27.2738C15.5283 27.9321 15.6929 28.6233 15.6929 29.3475C15.6929 30.0716 15.5283 30.7628 15.1992 31.4211C14.87 32.0795 14.3763 32.6184 13.718 33.0381C13.0679 33.4496 12.2738 33.6553 11.3357 33.6553H8.85474ZM11.2 32.6061C11.8747 32.6061 12.4672 32.4703 12.9774 32.1988C13.4876 31.919 13.8826 31.5363 14.1623 31.0508C14.4421 30.5571 14.582 29.9893 14.582 29.3475C14.582 28.7056 14.4421 28.142 14.1623 27.6565C13.8826 27.1627 13.4876 26.7801 12.9774 26.5085C12.4672 26.2288 11.8747 26.0889 11.2 26.0889H9.42253V32.6061H11.2ZM22.2469 33.7787C21.3828 33.7787 20.6258 33.5894 19.9757 33.2109C19.3256 32.8324 18.8237 32.3099 18.4698 31.6433C18.116 30.9768 17.9308 30.2115 17.9144 29.3475C17.9308 28.4835 18.116 27.7182 18.4698 27.0516C18.8237 26.3851 19.3256 25.8626 19.9757 25.484C20.6258 25.1055 21.3828 24.9163 22.2469 24.9163C23.1109 24.9163 23.8638 25.1055 24.5057 25.484C25.1558 25.8626 25.6577 26.3892 26.0116 27.064C26.3736 27.7305 26.5629 28.4917 26.5793 29.3475C26.5629 30.2033 26.3736 30.9686 26.0116 31.6433C25.6577 32.3099 25.1558 32.8324 24.5057 33.2109C23.8638 33.5894 23.1109 33.7787 22.2469 33.7787ZM22.2469 32.7295C22.9052 32.7295 23.4771 32.5814 23.9626 32.2852C24.4481 31.9889 24.8184 31.5857 25.0735 31.0755C25.3286 30.5653 25.4561 29.9893 25.4561 29.3475C25.4561 28.7056 25.3286 28.1296 25.0735 27.6194C24.8184 27.1092 24.4481 26.706 23.9626 26.4098C23.4771 26.1136 22.9052 25.9654 22.2469 25.9654C21.5803 25.9654 21.0043 26.1136 20.5188 26.4098C20.0415 26.706 19.6754 27.1092 19.4203 27.6194C19.1652 28.1296 19.0376 28.7056 19.0376 29.3475C19.0376 29.9893 19.1652 30.5653 19.4203 31.0755C19.6754 31.5857 20.0415 31.9889 20.5188 32.2852C21.0043 32.5814 21.5803 32.7295 22.2469 32.7295ZM33.1154 33.7787C32.2925 33.7787 31.5519 33.6018 30.8936 33.2479C30.2435 32.8859 29.7292 32.3716 29.3507 31.705C28.9804 31.0303 28.7952 30.2444 28.7952 29.3475C28.7952 28.4505 28.9804 27.6688 29.3507 27.0023C29.7292 26.3275 30.2435 25.8132 30.8936 25.4594C31.5519 25.0973 32.2925 24.9163 33.1154 24.9163C33.6749 24.9163 34.1728 24.9821 34.6089 25.1137C35.0533 25.2454 35.4935 25.4347 35.9296 25.6815C36.1107 25.7803 36.2012 25.9366 36.2012 26.1506C36.2012 26.274 36.1559 26.3851 36.0654 26.4838C35.9749 26.5744 35.8556 26.6196 35.7075 26.6196C35.6252 26.6196 35.5511 26.6032 35.4853 26.5703C35.1232 26.381 34.7694 26.237 34.4238 26.1382C34.0782 26.0395 33.6791 25.9901 33.2265 25.9901C32.5188 25.9901 31.914 26.1382 31.412 26.4345C30.9183 26.7225 30.5439 27.1216 30.2888 27.6318C30.0419 28.1337 29.9185 28.7056 29.9185 29.3475C29.9185 29.9893 30.0419 30.5653 30.2888 31.0755C30.5439 31.5775 30.9183 31.9766 31.412 32.2728C31.914 32.5608 32.5188 32.7048 33.2265 32.7048C33.6791 32.7048 34.0782 32.6555 34.4238 32.5567C34.7694 32.458 35.1232 32.314 35.4853 32.1247C35.5511 32.0918 35.6252 32.0753 35.7075 32.0753C35.8556 32.0753 35.9749 32.1206 36.0654 32.2111C36.1559 32.3016 36.2012 32.4127 36.2012 32.5444C36.2012 32.7583 36.1107 32.9147 35.9296 33.0134C35.4935 33.2603 35.0533 33.4496 34.6089 33.5812C34.1728 33.7129 33.6749 33.7787 33.1154 33.7787Z" fill="white"/>
<path d="M8.45975 33.4948L8.68072 33.2738H8.68072L8.45975 33.4948ZM8.45975 25.2125L8.68087 25.4336L8.68874 25.4251L8.45975 25.2125ZM13.718 25.6692L13.5485 25.9318L13.5524 25.9342L13.718 25.6692ZM15.1992 27.2738L14.9197 27.4136L15.1992 27.2738ZM15.1992 31.4211L14.9197 31.2814L15.1992 31.4211ZM13.718 33.0381L13.8851 33.3022L13.886 33.3016L13.718 33.0381ZM12.9774 32.1988L13.1242 32.4746L13.1276 32.4728L12.9774 32.1988ZM14.1623 31.0508L14.4331 31.2069L14.4342 31.2049L14.1623 31.0508ZM14.1623 27.6565L13.8905 27.8105L13.8916 27.8125L14.1623 27.6565ZM12.9774 26.5085L12.8271 26.7825L12.8306 26.7844L12.9774 26.5085ZM9.42253 26.0889V25.7764H9.11004V26.0889H9.42253ZM9.42253 32.6061H9.11004V32.9186H9.42253V32.6061ZM8.85474 33.3428C8.77817 33.3428 8.72693 33.3201 8.68072 33.2738L8.23879 33.7158C8.40653 33.8835 8.61861 33.9678 8.85474 33.9678V33.3428ZM8.68072 33.2738C8.6345 33.2276 8.61178 33.1764 8.61178 33.0998H7.9868C7.9868 33.336 8.07106 33.548 8.23879 33.7158L8.68072 33.2738ZM8.61178 33.0998V25.6075H7.9868V33.0998H8.61178ZM8.61178 25.6075C8.61178 25.5309 8.6345 25.4797 8.68072 25.4335L8.23879 24.9915C8.07106 25.1593 7.9868 25.3714 7.9868 25.6075H8.61178ZM8.68874 25.4251C8.73696 25.3732 8.78583 25.3522 8.85474 25.3522V24.7272C8.61095 24.7272 8.39649 24.8214 8.23077 24.9999L8.68874 25.4251ZM8.85474 25.3522H11.3357V24.7272H8.85474V25.3522ZM11.3357 25.3522C12.2266 25.3522 12.9588 25.551 13.5485 25.9317L13.8875 25.4067C13.177 24.948 12.3211 24.7272 11.3357 24.7272V25.3522ZM13.5524 25.9342C14.1647 26.3169 14.6177 26.8096 14.9197 27.4136L15.4787 27.1341C15.1224 26.4215 14.5879 25.8444 13.8836 25.4042L13.5524 25.9342ZM14.9197 27.4136C15.2275 28.0292 15.3804 28.6727 15.3804 29.3475H16.0054C16.0054 28.574 15.8291 27.835 15.4787 27.1341L14.9197 27.4136ZM15.3804 29.3475C15.3804 30.0223 15.2275 30.6657 14.9197 31.2814L15.4787 31.5609C15.8291 30.8599 16.0054 30.1209 16.0054 29.3475H15.3804ZM14.9197 31.2814C14.6174 31.886 14.1636 32.3834 13.55 32.7746L13.886 33.3016C14.5889 32.8535 15.1227 32.2729 15.4787 31.5609L14.9197 31.2814ZM13.5509 32.7741C12.9608 33.1475 12.2277 33.3428 11.3357 33.3428V33.9678C12.3199 33.9678 13.175 33.7516 13.8851 33.3022L13.5509 32.7741ZM11.3357 33.3428H8.85474V33.9678H11.3357V33.3428ZM11.2 32.9186C11.9173 32.9186 12.5618 32.774 13.1242 32.4746L12.8306 31.9229C12.3726 32.1667 11.8321 32.2936 11.2 32.2936V32.9186ZM13.1276 32.4728C13.686 32.1666 14.1236 31.744 14.4331 31.2069L13.8916 30.8948C13.6415 31.3287 13.2891 31.6714 12.8271 31.9248L13.1276 32.4728ZM14.4342 31.2049C14.7439 30.6583 14.8945 30.0361 14.8945 29.3475H14.2695C14.2695 29.9425 14.1403 30.4559 13.8905 30.8968L14.4342 31.2049ZM14.8945 29.3475C14.8945 28.659 14.744 28.0399 14.4331 27.5004L13.8916 27.8125C14.1402 28.244 14.2695 28.7523 14.2695 29.3475H14.8945ZM14.4342 27.5024C14.1246 26.956 13.6858 26.5316 13.1242 26.2327L12.8306 26.7844C13.2894 27.0286 13.6405 27.3694 13.8905 27.8105L14.4342 27.5024ZM13.1276 26.2345C12.5645 25.9257 11.9188 25.7764 11.2 25.7764V26.4014C11.8306 26.4014 12.3699 26.5318 12.8271 26.7825L13.1276 26.2345ZM11.2 25.7764H9.42253V26.4014H11.2V25.7764ZM9.11004 26.0889V32.6061H9.73501V26.0889H9.11004ZM9.42253 32.9186H11.2V32.2936H9.42253V32.9186ZM19.9757 33.2109L20.133 32.9409L19.9757 33.2109ZM18.4698 31.6433L18.1938 31.7898L18.4698 31.6433ZM17.9144 29.3475L17.6017 29.3415L17.602 29.3534L17.9144 29.3475ZM18.4698 27.0516L18.7458 27.1982L18.4698 27.0516ZM19.9757 25.484L19.8185 25.214L19.9757 25.484ZM24.5057 25.484L24.3469 25.7532L24.3484 25.7541L24.5057 25.484ZM26.0116 27.064L25.7348 27.2091L25.737 27.2131L26.0116 27.064ZM26.5793 29.3475L26.892 29.3535L26.8918 29.3415L26.5793 29.3475ZM26.0116 31.6433L25.7362 31.4956L25.7356 31.4968L26.0116 31.6433ZM24.5057 33.2109L24.3484 32.9409L24.3469 32.9418L24.5057 33.2109ZM23.9626 32.2852L23.7998 32.0184L23.9626 32.2852ZM25.0735 31.0755L25.353 31.2153L25.0735 31.0755ZM25.0735 27.6194L25.353 27.4797L25.0735 27.6194ZM23.9626 26.4098L23.7998 26.6765L23.9626 26.4098ZM20.5188 26.4098L20.356 26.143L20.354 26.1443L20.5188 26.4098ZM19.4203 27.6194L19.1408 27.4797L19.4203 27.6194ZM19.4203 31.0755L19.1408 31.2153L19.4203 31.0755ZM20.5188 32.2852L20.354 32.5507L20.3561 32.5519L20.5188 32.2852ZM22.2469 33.4662C21.4298 33.4662 20.7286 33.2877 20.133 32.9409L19.8185 33.481C20.523 33.8912 21.3359 34.0912 22.2469 34.0912V33.4662ZM20.133 32.9409C19.5334 32.5917 19.0725 32.1121 18.7458 31.4968L18.1938 31.7898C18.5749 32.5076 19.1179 33.073 19.8185 33.481L20.133 32.9409ZM18.7458 31.4968C18.4182 30.8795 18.2425 30.1636 18.2268 29.3415L17.602 29.3534C17.6192 30.2594 17.8138 31.0741 18.1938 31.7898L18.7458 31.4968ZM18.2268 29.3534C18.2425 28.5313 18.4182 27.8154 18.7458 27.1982L18.1938 26.9051C17.8138 27.6209 17.6192 28.4356 17.602 29.3415L18.2268 29.3534ZM18.7458 27.1982C19.0725 26.5829 19.5334 26.1032 20.133 25.7541L19.8185 25.214C19.1179 25.6219 18.5749 26.1873 18.1938 26.9051L18.7458 27.1982ZM20.133 25.7541C20.7286 25.4073 21.4298 25.2287 22.2469 25.2287V24.6038C21.3359 24.6038 20.523 24.8038 19.8185 25.214L20.133 25.7541ZM22.2469 25.2287C23.0641 25.2287 23.7604 25.4073 24.3469 25.7532L24.6644 25.2149C23.9673 24.8037 23.1577 24.6038 22.2469 24.6038V25.2287ZM24.3484 25.7541C24.947 26.1026 25.4079 26.5857 25.7348 27.2091L26.2883 26.9189C25.9075 26.1928 25.3645 25.6225 24.6629 25.214L24.3484 25.7541ZM25.737 27.2131C26.0722 27.8303 26.2513 28.5413 26.2669 29.3535L26.8918 29.3415C26.8745 28.4421 26.675 27.6307 26.2861 26.9148L25.737 27.2131ZM26.2669 29.3415C26.2513 30.1537 26.0722 30.8694 25.7362 31.4956L26.2869 31.7911C26.675 31.0677 26.8745 30.2529 26.8918 29.3535L26.2669 29.3415ZM25.7356 31.4968C25.4089 32.1121 24.948 32.5917 24.3484 32.9409L24.6629 33.481C25.3635 33.073 25.9065 32.5076 26.2876 31.7898L25.7356 31.4968ZM24.3469 32.9418C23.7604 33.2877 23.0641 33.4662 22.2469 33.4662V34.0912C23.1577 34.0912 23.9673 33.8912 24.6644 33.4801L24.3469 32.9418ZM22.2469 33.042C22.9534 33.042 23.5835 32.8825 24.1253 32.5519L23.7998 32.0184C23.3706 32.2803 22.8569 32.417 22.2469 32.417V33.042ZM24.1253 32.5519C24.6611 32.225 25.0717 31.7778 25.353 31.2153L24.794 30.9358C24.565 31.3937 24.2351 31.7528 23.7998 32.0184L24.1253 32.5519ZM25.353 31.2153C25.6323 30.6565 25.7686 30.0317 25.7686 29.3475H25.1436C25.1436 29.9469 25.0248 30.4742 24.794 30.9358L25.353 31.2153ZM25.7686 29.3475C25.7686 28.6633 25.6323 28.0384 25.353 27.4797L24.794 27.7592C25.0248 28.2208 25.1436 28.748 25.1436 29.3475H25.7686ZM25.353 27.4797C25.0717 26.9172 24.6611 26.4699 24.1253 26.143L23.7998 26.6765C24.2351 26.9421 24.565 27.3013 24.794 27.7592L25.353 27.4797ZM24.1253 26.143C23.5835 25.8124 22.9534 25.6529 22.2469 25.6529V26.2779C22.8569 26.2779 23.3706 26.4147 23.7998 26.6765L24.1253 26.143ZM22.2469 25.6529C21.5329 25.6529 20.8985 25.8121 20.3561 26.143L20.6816 26.6765C21.1102 26.415 21.6278 26.2779 22.2469 26.2779V25.6529ZM20.354 26.1443C19.8268 26.4715 19.4213 26.9186 19.1408 27.4797L19.6998 27.7592C19.9294 27.2999 20.2563 26.9405 20.6836 26.6753L20.354 26.1443ZM19.1408 27.4797C18.8614 28.0384 18.7251 28.6633 18.7251 29.3475H19.3501C19.3501 28.748 19.4689 28.2208 19.6998 27.7592L19.1408 27.4797ZM18.7251 29.3475C18.7251 30.0317 18.8614 30.6565 19.1408 31.2153L19.6998 30.9358C19.4689 30.4742 19.3501 29.9469 19.3501 29.3475H18.7251ZM19.1408 31.2153C19.4213 31.7764 19.8268 32.2234 20.354 32.5507L20.6836 32.0197C20.2563 31.7544 19.9294 31.3951 19.6998 30.9358L19.1408 31.2153ZM20.3561 32.5519C20.8985 32.8829 21.5329 33.042 22.2469 33.042V32.417C21.6278 32.417 21.1102 32.2799 20.6816 32.0184L20.3561 32.5519ZM30.8936 33.2479L30.7415 33.521L30.7457 33.5232L30.8936 33.2479ZM29.3507 31.705L29.0767 31.8554L29.079 31.8594L29.3507 31.705ZM29.3507 27.0023L29.0782 26.8494L29.0775 26.8505L29.3507 27.0023ZM30.8936 25.4594L31.043 25.7338L31.0442 25.7332L30.8936 25.4594ZM34.6089 25.1137L34.5186 25.4129L34.5201 25.4134L34.6089 25.1137ZM35.9296 25.6815L35.7757 25.9535L35.78 25.9559L35.9296 25.6815ZM36.0654 26.4838L36.2866 26.705L36.2958 26.695L36.0654 26.4838ZM35.4853 26.5703L35.3405 26.8472L35.3455 26.8497L35.4853 26.5703ZM34.4238 26.1382L34.5096 25.8378L34.4238 26.1382ZM31.412 26.4345L31.5695 26.7044L31.5708 26.7036L31.412 26.4345ZM30.2888 27.6318L30.0093 27.492L30.0084 27.4939L30.2888 27.6318ZM30.2888 31.0755L30.0074 31.2117L30.0102 31.2171L30.2888 31.0755ZM31.412 32.2728L31.2512 32.5408L31.2565 32.5439L31.412 32.2728ZM34.4238 32.5567L34.5096 32.8572L34.4238 32.5567ZM35.4853 32.1247L35.3455 31.8452L35.3405 31.8478L35.4853 32.1247ZM36.0654 32.2111L36.2864 31.9902V31.9902L36.0654 32.2111ZM35.9296 33.0134L35.78 32.7391L35.7757 32.7415L35.9296 33.0134ZM34.6089 33.5812L34.5201 33.2816L34.5186 33.2821L34.6089 33.5812ZM33.1154 33.4662C32.3388 33.4662 31.6499 33.2997 31.0415 32.9727L30.7457 33.5232C31.4539 33.9039 32.2462 34.0912 33.1154 34.0912V33.4662ZM31.0457 32.9749C30.4471 32.6416 29.9736 32.1691 29.6224 31.5507L29.079 31.8594C29.4849 32.5741 30.0399 33.1302 30.7416 33.5209L31.0457 32.9749ZM29.6246 31.5547C29.2835 30.9331 29.1077 30.2006 29.1077 29.3475H28.4828C28.4828 30.2882 28.6773 31.1274 29.0767 31.8554L29.6246 31.5547ZM29.1077 29.3475C29.1077 28.4942 29.2836 27.7666 29.6239 27.154L29.0775 26.8505C28.6772 27.571 28.4828 28.4068 28.4828 29.3475H29.1077ZM29.6232 27.1551C29.9743 26.5293 30.447 26.0582 31.043 25.7338L30.7442 25.1849C30.0401 25.5682 29.4841 26.1257 29.0782 26.8494L29.6232 27.1551ZM31.0442 25.7332C31.6521 25.3988 32.34 25.2287 33.1154 25.2287V24.6038C32.245 24.6038 31.4518 24.7957 30.743 25.1856L31.0442 25.7332ZM33.1154 25.2287C33.651 25.2287 34.1176 25.2918 34.5186 25.4129L34.6992 24.8146C34.228 24.6723 33.6988 24.6038 33.1154 24.6038V25.2287ZM34.5201 25.4134C34.94 25.5378 35.3585 25.7173 35.7757 25.9535L36.0836 25.4096C35.6285 25.152 35.1665 24.953 34.6977 24.8141L34.5201 25.4134ZM35.78 25.9559C35.8275 25.9818 35.8502 26.0075 35.8629 26.0294C35.8759 26.0519 35.8887 26.0884 35.8887 26.1506H36.5137C36.5137 25.9988 36.4812 25.8501 36.4037 25.7163C36.3259 25.5818 36.2128 25.4801 36.0793 25.4072L35.78 25.9559ZM35.8887 26.1506C35.8887 26.1889 35.8777 26.2262 35.8351 26.2727L36.2958 26.695C36.4342 26.544 36.5137 26.3592 36.5137 26.1506H35.8887ZM35.8445 26.2629C35.8218 26.2855 35.7868 26.3071 35.7075 26.3071V26.9321C35.9244 26.9321 36.128 26.8632 36.2864 26.7048L35.8445 26.2629ZM35.7075 26.3071C35.6679 26.3071 35.6426 26.2995 35.625 26.2908L35.3455 26.8497C35.4597 26.9068 35.5825 26.9321 35.7075 26.9321V26.3071ZM35.63 26.2933C35.2517 26.0955 34.8782 25.9431 34.5096 25.8378L34.3379 26.4387C34.6606 26.5309 34.9947 26.6664 35.3405 26.8472L35.63 26.2933ZM34.5096 25.8378C34.13 25.7293 33.701 25.6776 33.2265 25.6776V26.3026C33.6572 26.3026 34.0264 26.3497 34.3379 26.4387L34.5096 25.8378ZM33.2265 25.6776C32.4749 25.6776 31.8126 25.8352 31.2532 26.1654L31.5708 26.7036C32.0153 26.4413 32.5627 26.3026 33.2265 26.3026V25.6776ZM31.2546 26.1646C30.7085 26.4831 30.2916 26.9274 30.0093 27.492L30.5683 27.7715C30.7961 27.3158 31.1281 26.9619 31.5695 26.7044L31.2546 26.1646ZM30.0084 27.4939C29.7375 28.0446 29.606 28.6649 29.606 29.3475H30.231C30.231 28.7464 30.3463 28.2228 30.5692 27.7697L30.0084 27.4939ZM29.606 29.3475C29.606 30.0302 29.7375 30.6537 30.0075 31.2116L30.5701 30.9394C30.3463 30.477 30.231 29.9485 30.231 29.3475H29.606ZM30.0102 31.2171C30.2925 31.7727 30.7084 32.215 31.2512 32.5408L31.5728 32.0049C31.1282 31.7381 30.7952 31.3823 30.5674 30.934L30.0102 31.2171ZM31.2565 32.5439C31.8153 32.8645 32.4763 33.0173 33.2265 33.0173V32.3924C32.5613 32.3924 32.0127 32.2572 31.5675 32.0018L31.2565 32.5439ZM33.2265 33.0173C33.701 33.0173 34.13 32.9657 34.5096 32.8572L34.3379 32.2563C34.0264 32.3453 33.6572 32.3924 33.2265 32.3924V33.0173ZM34.5096 32.8572C34.8782 32.7519 35.2517 32.5994 35.63 32.4016L35.3405 31.8478C34.9947 32.0285 34.6606 32.1641 34.3379 32.2563L34.5096 32.8572ZM35.625 32.4042C35.6426 32.3954 35.6679 32.3878 35.7075 32.3878V31.7629C35.5825 31.7629 35.4597 31.7882 35.3455 31.8452L35.625 32.4042ZM35.7075 32.3878C35.7868 32.3878 35.8218 32.4094 35.8445 32.4321L36.2864 31.9902C36.128 31.8318 35.9244 31.7629 35.7075 31.7629V32.3878ZM35.8445 32.4321C35.8745 32.4621 35.8887 32.493 35.8887 32.5444H36.5137C36.5137 32.3325 36.4373 32.1411 36.2864 31.9902L35.8445 32.4321ZM35.8887 32.5444C35.8887 32.6066 35.8759 32.643 35.8629 32.6655C35.8502 32.6874 35.8275 32.7132 35.78 32.7391L36.0793 33.2878C36.2128 33.2149 36.3259 33.1131 36.4037 32.9787C36.4812 32.8448 36.5137 32.6962 36.5137 32.5444H35.8887ZM35.7757 32.7415C35.3585 32.9776 34.94 33.1572 34.5201 33.2816L34.6977 33.8808C35.1665 33.7419 35.6285 33.543 36.0836 33.2854L35.7757 32.7415ZM34.5186 33.2821C34.1176 33.4031 33.651 33.4662 33.1154 33.4662V34.0912C33.6988 34.0912 34.228 34.0226 34.6992 33.8804L34.5186 33.2821Z" fill="white"/>
<g filter="url(#filter1_d_1628_44392)">
<path d="M42.9925 15.9368H30.493C28.5946 15.9368 27.0557 14.3979 27.0557 12.4995V0L42.9925 15.9368Z" fill="url(#paint2_linear_1628_44392)"/>
</g>
</g>
<defs>
<filter id="filter0_f_1628_44392" x="1.89966" y="17.1868" width="39.9985" height="25.3115" filterUnits="userSpaceOnUse" color-interpolation-filters="sRGB">
<feFlood flood-opacity="0" result="BackgroundImageFix"/>
<feBlend mode="normal" in="SourceGraphic" in2="BackgroundImageFix" result="shape"/>
<feGaussianBlur stdDeviation="3.04675" result="effect1_foregroundBlur_1628_44392"/>
</filter>
<filter id="filter1_d_1628_44392" x="23.4621" y="-3.74985" width="23.7487" height="23.7492" filterUnits="userSpaceOnUse" color-interpolation-filters="sRGB">
<feFlood flood-opacity="0" result="BackgroundImageFix"/>
<feColorMatrix in="SourceAlpha" type="matrix" values="0 0 0 0 0 0 0 0 0 0 0 0 0 0 0 0 0 0 127 0" result="hardAlpha"/>
<feOffset dx="0.312487" dy="0.156244"/>
<feGaussianBlur stdDeviation="1.95305"/>
<feColorMatrix type="matrix" values="0 0 0 0 0 0 0 0 0 0 0 0 0 0 0 0 0 0 0.33 0"/>
<feBlend mode="normal" in2="BackgroundImageFix" result="effect1_dropShadow_1628_44392"/>
<feBlend mode="normal" in="SourceGraphic" in2="effect1_dropShadow_1628_44392" result="shape"/>
</filter>
<linearGradient id="paint0_linear_1628_44392" x1="21.7423" y1="0" x2="21.7423" y2="48.123" gradientUnits="userSpaceOnUse">
<stop stop-color="#FF7979"/>
<stop offset="1" stop-color="#E85555"/>
</linearGradient>
<linearGradient id="paint1_linear_1628_44392" x1="21.7433" y1="0" x2="21.7433" y2="48.123" gradientUnits="userSpaceOnUse">
<stop stop-color="#6ABDF8"/>
<stop offset="1" stop-color="#008BD6"/>
</linearGradient>
<linearGradient id="paint2_linear_1628_44392" x1="35.0241" y1="0" x2="35.0241" y2="15.9368" gradientUnits="userSpaceOnUse">
<stop stop-color="#009FE3"/>
<stop offset="1" stop-color="#0087C1"/>
</linearGradient>
</defs>
</svg>
