<svg width="43" height="49" viewBox="0 0 43 49" fill="none" xmlns="http://www.w3.org/2000/svg">
<mask id="mask0_1628_44395" style="mask-type:alpha" maskUnits="userSpaceOnUse" x="0" y="0" width="43" height="49">
<path d="M39.5482 48.123H3.92466C2.02626 48.123 0.487305 46.5841 0.487305 44.6857V3.43736C0.487305 1.53896 2.02626 0 3.92466 0H27.0487L42.9856 15.9368V44.6857C42.9856 46.5841 41.4466 48.123 39.5482 48.123Z" fill="url(#paint0_linear_1628_44395)"/>
</mask>
<g mask="url(#mask0_1628_44395)">
<path d="M39.5482 48.123H3.92466C2.02626 48.123 0.487305 46.5841 0.487305 44.6857V3.43736C0.487305 1.53896 2.02626 0 3.92466 0H27.0487L42.9856 15.9368V44.6857C42.9856 46.5841 41.4466 48.123 39.5482 48.123Z" fill="url(#paint1_linear_1628_44395)"/>
<g opacity="0.23" filter="url(#filter0_f_1628_44395)">
<rect x="2.83008" y="23.2803" width="38.1234" height="13.1245" fill="#E32E06" style="mix-blend-mode:darken"/>
</g>
<path d="M10.6023 33.717C10.446 33.717 10.3143 33.6635 10.2074 33.5565C10.1004 33.4496 10.0469 33.3179 10.0469 33.1615V25.6075C10.0469 25.4511 10.1004 25.3195 10.2074 25.2125C10.3143 25.0973 10.446 25.0397 10.6023 25.0397H13.4166C14.1983 25.0397 14.8361 25.1713 15.3298 25.4347C15.8235 25.698 16.1774 26.0354 16.3913 26.4468C16.6053 26.8583 16.7122 27.3026 16.7122 27.7799C16.7122 28.2572 16.6053 28.7015 16.3913 29.113C16.1774 29.5244 15.8235 29.8618 15.3298 30.1251C14.8361 30.3884 14.1983 30.5201 13.4166 30.5201H11.1701V33.1615C11.1701 33.3179 11.1125 33.4496 10.9973 33.5565C10.8904 33.6635 10.7587 33.717 10.6023 33.717ZM13.3055 29.4586C14.1449 29.4586 14.7332 29.2981 15.0706 28.9772C15.4162 28.6563 15.589 28.2572 15.589 27.7799C15.589 27.3026 15.4162 26.9035 15.0706 26.5826C14.7332 26.2617 14.1449 26.1012 13.3055 26.1012H11.1701V29.4586H13.3055ZM19.7595 33.717C19.6031 33.717 19.4715 33.6635 19.3645 33.5565C19.2575 33.4496 19.204 33.3179 19.204 33.1615V25.6075C19.204 25.4511 19.2575 25.3195 19.3645 25.2125C19.4715 25.0973 19.6031 25.0397 19.7595 25.0397H22.5737C23.3555 25.0397 23.9932 25.1713 24.4869 25.4347C24.9807 25.698 25.3345 26.0354 25.5485 26.4468C25.7624 26.8583 25.8694 27.3026 25.8694 27.7799C25.8694 28.2572 25.7624 28.7015 25.5485 29.113C25.3345 29.5244 24.9807 29.8618 24.4869 30.1251C23.9932 30.3884 23.3555 30.5201 22.5737 30.5201H20.3273V33.1615C20.3273 33.3179 20.2697 33.4496 20.1545 33.5565C20.0475 33.6635 19.9158 33.717 19.7595 33.717ZM22.4627 29.4586C23.302 29.4586 23.8904 29.2981 24.2277 28.9772C24.5734 28.6563 24.7462 28.2572 24.7462 27.7799C24.7462 27.3026 24.5734 26.9035 24.2277 26.5826C23.8904 26.2617 23.302 26.1012 22.4627 26.1012H20.3273V29.4586H22.4627ZM30.9162 33.717C30.7599 33.717 30.6282 33.6635 30.5213 33.5565C30.4143 33.4496 30.3608 33.3179 30.3608 33.1615V26.0889H27.8428C27.6947 26.0889 27.5712 26.0395 27.4725 25.9407C27.3737 25.842 27.3244 25.7186 27.3244 25.5704C27.3244 25.4223 27.3737 25.2989 27.4725 25.2002C27.5712 25.0932 27.6947 25.0397 27.8428 25.0397H33.9897C34.1378 25.0397 34.2613 25.0932 34.36 25.2002C34.467 25.2989 34.5205 25.4223 34.5205 25.5704C34.5205 25.7186 34.467 25.842 34.36 25.9407C34.2613 26.0395 34.1378 26.0889 33.9897 26.0889H31.484V33.1615C31.484 33.3179 31.4264 33.4496 31.3112 33.5565C31.2042 33.6635 31.0726 33.717 30.9162 33.717Z" fill="white"/>
<path d="M10.2074 33.5565L10.4283 33.3356H10.4283L10.2074 33.5565ZM10.2074 25.2125L10.4285 25.4336L10.4363 25.4251L10.2074 25.2125ZM16.3913 26.4468L16.1141 26.591L16.3913 26.4468ZM16.3913 29.113L16.1141 28.9688L16.1141 28.9688L16.3913 29.113ZM11.1701 30.5201V30.2076H10.8576V30.5201H11.1701ZM10.9973 33.5565L10.7845 33.3274L10.7764 33.3356L10.9973 33.5565ZM15.0706 28.9772L14.8579 28.7482L14.8552 28.7508L15.0706 28.9772ZM15.0706 26.5826L14.8552 26.809L14.858 26.8116L15.0706 26.5826ZM11.1701 26.1012V25.7887H10.8576V26.1012H11.1701ZM11.1701 29.4586H10.8576V29.7711H11.1701V29.4586ZM10.6023 33.4045C10.5258 33.4045 10.4745 33.3818 10.4283 33.3356L9.9864 33.7775C10.1541 33.9452 10.3662 34.0295 10.6023 34.0295V33.4045ZM10.4283 33.3356C10.3821 33.2893 10.3594 33.2381 10.3594 33.1615H9.73441C9.73441 33.3977 9.81866 33.6098 9.9864 33.7775L10.4283 33.3356ZM10.3594 33.1615V25.6075H9.73441V33.1615H10.3594ZM10.3594 25.6075C10.3594 25.5309 10.3821 25.4797 10.4283 25.4335L9.9864 24.9915C9.81866 25.1593 9.73441 25.3714 9.73441 25.6075H10.3594ZM10.4363 25.4251C10.4846 25.3732 10.5334 25.3522 10.6023 25.3522V24.7272C10.3586 24.7272 10.1441 24.8214 9.97837 24.9999L10.4363 25.4251ZM10.6023 25.3522H13.4166V24.7272H10.6023V25.3522ZM13.4166 25.3522C14.1663 25.3522 14.7487 25.4789 15.1828 25.7104L15.4769 25.1589C14.9235 24.8638 14.2304 24.7272 13.4166 24.7272V25.3522ZM15.1828 25.7104C15.6325 25.9503 15.9348 26.2462 16.1141 26.591L16.6686 26.3027C16.4199 25.8245 16.0146 25.4457 15.4769 25.1589L15.1828 25.7104ZM16.1141 26.591C16.3042 26.9566 16.3998 27.3513 16.3998 27.7799H17.0247C17.0247 27.2539 16.9064 26.7599 16.6686 26.3027L16.1141 26.591ZM16.3998 27.7799C16.3998 28.2085 16.3042 28.6032 16.1141 28.9688L16.6686 29.2571C16.9064 28.7998 17.0247 28.3058 17.0247 27.7799H16.3998ZM16.1141 28.9688C15.9348 29.3135 15.6325 29.6095 15.1828 29.8494L15.4769 30.4008C16.0146 30.114 16.4199 29.7353 16.6686 29.2571L16.1141 28.9688ZM15.1828 29.8494C14.7487 30.0809 14.1663 30.2076 13.4166 30.2076V30.8326C14.2304 30.8326 14.9235 30.696 15.4769 30.4008L15.1828 29.8494ZM13.4166 30.2076H11.1701V30.8326H13.4166V30.2076ZM10.8576 30.5201V33.1615H11.4826V30.5201H10.8576ZM10.8576 33.1615C10.8576 33.2305 10.8366 33.2793 10.7847 33.3275L11.21 33.7855C11.3884 33.6198 11.4826 33.4053 11.4826 33.1615H10.8576ZM10.7764 33.3356C10.7301 33.3818 10.6789 33.4045 10.6023 33.4045V34.0295C10.8385 34.0295 11.0506 33.9452 11.2183 33.7775L10.7764 33.3356ZM13.3055 29.7711C14.1667 29.7711 14.8588 29.6099 15.286 29.2036L14.8552 28.7508C14.6076 28.9863 14.123 29.1461 13.3055 29.1461V29.7711ZM15.2832 29.2062C15.6934 28.8253 15.9015 28.3429 15.9015 27.7799H15.2765C15.2765 28.1714 15.139 28.4872 14.858 28.7482L15.2832 29.2062ZM15.9015 27.7799C15.9015 27.2169 15.6934 26.7345 15.2832 26.3536L14.858 26.8116C15.139 27.0726 15.2765 27.3883 15.2765 27.7799H15.9015ZM15.286 26.3562C14.8588 25.9499 14.1667 25.7887 13.3055 25.7887V26.4137C14.123 26.4137 14.6076 26.5735 14.8552 26.809L15.286 26.3562ZM13.3055 25.7887H11.1701V26.4137H13.3055V25.7887ZM10.8576 26.1012V29.4586H11.4826V26.1012H10.8576ZM11.1701 29.7711H13.3055V29.1461H11.1701V29.7711ZM19.3645 33.5565L19.5855 33.3356L19.3645 33.5565ZM19.3645 25.2125L19.5856 25.4336L19.5935 25.4251L19.3645 25.2125ZM25.5485 26.4468L25.2712 26.591L25.5485 26.4468ZM25.5485 29.113L25.2712 28.9688V28.9688L25.5485 29.113ZM20.3273 30.5201V30.2076H20.0148V30.5201H20.3273ZM20.1545 33.5565L19.9417 33.3274L19.9335 33.3356L20.1545 33.5565ZM24.2277 28.9772L24.0151 28.7482L24.0124 28.7508L24.2277 28.9772ZM24.2277 26.5826L24.0124 26.809L24.0151 26.8116L24.2277 26.5826ZM20.3273 26.1012V25.7887H20.0148V26.1012H20.3273ZM20.3273 29.4586H20.0148V29.7711H20.3273V29.4586ZM19.7595 33.4045C19.6829 33.4045 19.6317 33.3818 19.5855 33.3356L19.1435 33.7775C19.3113 33.9452 19.5234 34.0295 19.7595 34.0295V33.4045ZM19.5855 33.3356C19.5392 33.2893 19.5165 33.2381 19.5165 33.1615H18.8916C18.8916 33.3977 18.9758 33.6098 19.1435 33.7775L19.5855 33.3356ZM19.5165 33.1615V25.6075H18.8916V33.1615H19.5165ZM19.5165 25.6075C19.5165 25.5309 19.5392 25.4797 19.5855 25.4335L19.1435 24.9915C18.9758 25.1593 18.8916 25.3714 18.8916 25.6075H19.5165ZM19.5935 25.4251C19.6417 25.3732 19.6906 25.3522 19.7595 25.3522V24.7272C19.5157 24.7272 19.3012 24.8214 19.1355 24.9999L19.5935 25.4251ZM19.7595 25.3522H22.5737V24.7272H19.7595V25.3522ZM22.5737 25.3522C23.3234 25.3522 23.9058 25.4789 24.3399 25.7104L24.634 25.1589C24.0806 24.8638 23.3875 24.7272 22.5737 24.7272V25.3522ZM24.3399 25.7104C24.7896 25.9503 25.092 26.2462 25.2712 26.591L25.8257 26.3027C25.5771 25.8245 25.1717 25.4457 24.634 25.1589L24.3399 25.7104ZM25.2712 26.591C25.4613 26.9566 25.5569 27.3513 25.5569 27.7799H26.1819C26.1819 27.2539 26.0635 26.7599 25.8257 26.3027L25.2712 26.591ZM25.5569 27.7799C25.5569 28.2085 25.4613 28.6032 25.2712 28.9688L25.8257 29.2571C26.0635 28.7998 26.1819 28.3058 26.1819 27.7799H25.5569ZM25.2712 28.9688C25.092 29.3135 24.7896 29.6095 24.3399 29.8494L24.634 30.4008C25.1717 30.114 25.5771 29.7353 25.8257 29.2571L25.2712 28.9688ZM24.3399 29.8494C23.9058 30.0809 23.3234 30.2076 22.5737 30.2076V30.8326C23.3875 30.8326 24.0806 30.696 24.634 30.4008L24.3399 29.8494ZM22.5737 30.2076H20.3273V30.8326H22.5737V30.2076ZM20.0148 30.5201V33.1615H20.6398V30.5201H20.0148ZM20.0148 33.1615C20.0148 33.2305 19.9938 33.2793 19.9418 33.3275L20.3671 33.7855C20.5456 33.6198 20.6398 33.4053 20.6398 33.1615H20.0148ZM19.9335 33.3356C19.8873 33.3818 19.8361 33.4045 19.7595 33.4045V34.0295C19.9956 34.0295 20.2077 33.9452 20.3754 33.7775L19.9335 33.3356ZM22.4627 29.7711C23.3239 29.7711 24.0159 29.6099 24.4431 29.2036L24.0124 28.7508C23.7648 28.9863 23.2801 29.1461 22.4627 29.1461V29.7711ZM24.4404 29.2062C24.8505 28.8253 25.0586 28.3429 25.0586 27.7799H24.4337C24.4337 28.1714 24.2962 28.4872 24.0151 28.7482L24.4404 29.2062ZM25.0586 27.7799C25.0586 27.2169 24.8505 26.7345 24.4404 26.3536L24.0151 26.8116C24.2962 27.0726 24.4337 27.3883 24.4337 27.7799H25.0586ZM24.4431 26.3562C24.0159 25.9499 23.3239 25.7887 22.4627 25.7887V26.4137C23.2801 26.4137 23.7648 26.5735 24.0124 26.809L24.4431 26.3562ZM22.4627 25.7887H20.3273V26.4137H22.4627V25.7887ZM20.0148 26.1012V29.4586H20.6398V26.1012H20.0148ZM20.3273 29.7711H22.4627V29.1461H20.3273V29.7711ZM30.5213 33.5565L30.3003 33.7775L30.5213 33.5565ZM30.3608 26.0889H30.6733V25.7764H30.3608V26.0889ZM27.4725 25.9407L27.2515 26.1617V26.1617L27.4725 25.9407ZM27.4725 25.2002L27.6936 25.4213L27.7021 25.4121L27.4725 25.2002ZM34.36 25.2002L34.1304 25.4121L34.1389 25.4213L34.148 25.4298L34.36 25.2002ZM34.36 25.9407L34.1479 25.7109L34.139 25.7198L34.36 25.9407ZM31.484 26.0889V25.7764H31.1715V26.0889H31.484ZM31.3112 33.5565L31.0984 33.3274L31.0903 33.3356L31.3112 33.5565ZM30.9162 33.4045C30.8397 33.4045 30.7884 33.3818 30.7422 33.3356L30.3003 33.7775C30.468 33.9452 30.6801 34.0295 30.9162 34.0295V33.4045ZM30.7422 33.3356C30.696 33.2893 30.6733 33.2381 30.6733 33.1615H30.0483C30.0483 33.3977 30.1326 33.6098 30.3003 33.7775L30.7422 33.3356ZM30.6733 33.1615V26.0889H30.0483V33.1615H30.6733ZM30.3608 25.7764H27.8428V26.4014H30.3608V25.7764ZM27.8428 25.7764C27.7719 25.7764 27.7297 25.7561 27.6934 25.7198L27.2515 26.1617C27.4127 26.3229 27.6174 26.4014 27.8428 26.4014V25.7764ZM27.6934 25.7198C27.6571 25.6835 27.6368 25.6413 27.6368 25.5704H27.0119C27.0119 25.7959 27.0903 26.0005 27.2515 26.1617L27.6934 25.7198ZM27.6368 25.5704C27.6368 25.4996 27.6571 25.4574 27.6934 25.4211L27.2515 24.9792C27.0903 25.1404 27.0119 25.345 27.0119 25.5704H27.6368ZM27.7021 25.4121C27.7405 25.3705 27.7801 25.3522 27.8428 25.3522V24.7272C27.6092 24.7272 27.4019 24.8159 27.2429 24.9882L27.7021 25.4121ZM27.8428 25.3522H33.9897V24.7272H27.8428V25.3522ZM33.9897 25.3522C34.0523 25.3522 34.092 25.3705 34.1304 25.4121L34.5896 24.9882C34.4306 24.8159 34.2233 24.7272 33.9897 24.7272V25.3522ZM34.148 25.4298C34.1897 25.4682 34.208 25.5078 34.208 25.5704H34.833C34.833 25.3368 34.7443 25.1296 34.572 24.9705L34.148 25.4298ZM34.208 25.5704C34.208 25.6331 34.1897 25.6727 34.148 25.7111L34.572 26.1704C34.7443 26.0113 34.833 25.8041 34.833 25.5704H34.208ZM34.139 25.7198C34.1027 25.7561 34.0605 25.7764 33.9897 25.7764V26.4014C34.2151 26.4014 34.4198 26.3229 34.581 26.1617L34.139 25.7198ZM33.9897 25.7764H31.484V26.4014H33.9897V25.7764ZM31.1715 26.0889V33.1615H31.7965V26.0889H31.1715ZM31.1715 33.1615C31.1715 33.2305 31.1505 33.2793 31.0986 33.3275L31.5239 33.7855C31.7023 33.6198 31.7965 33.4053 31.7965 33.1615H31.1715ZM31.0903 33.3356C31.044 33.3818 30.9928 33.4045 30.9162 33.4045V34.0295C31.1524 34.0295 31.3645 33.9452 31.5322 33.7775L31.0903 33.3356Z" fill="white"/>
<g filter="url(#filter1_d_1628_44395)">
<path d="M42.9857 15.9368H30.4862C28.5878 15.9368 27.0488 14.3979 27.0488 12.4995V0L42.9857 15.9368Z" fill="url(#paint2_linear_1628_44395)"/>
</g>
</g>
<defs>
<filter id="filter0_f_1628_44395" x="-3.26342" y="17.1868" width="50.31" height="25.3115" filterUnits="userSpaceOnUse" color-interpolation-filters="sRGB">
<feFlood flood-opacity="0" result="BackgroundImageFix"/>
<feBlend mode="normal" in="SourceGraphic" in2="BackgroundImageFix" result="shape"/>
<feGaussianBlur stdDeviation="3.04675" result="effect1_foregroundBlur_1628_44395"/>
</filter>
<filter id="filter1_d_1628_44395" x="23.4552" y="-3.74985" width="23.7487" height="23.7492" filterUnits="userSpaceOnUse" color-interpolation-filters="sRGB">
<feFlood flood-opacity="0" result="BackgroundImageFix"/>
<feColorMatrix in="SourceAlpha" type="matrix" values="0 0 0 0 0 0 0 0 0 0 0 0 0 0 0 0 0 0 127 0" result="hardAlpha"/>
<feOffset dx="0.312487" dy="0.156244"/>
<feGaussianBlur stdDeviation="1.95305"/>
<feColorMatrix type="matrix" values="0 0 0 0 0 0 0 0 0 0 0 0 0 0 0 0 0 0 0.33 0"/>
<feBlend mode="normal" in2="BackgroundImageFix" result="effect1_dropShadow_1628_44395"/>
<feBlend mode="normal" in="SourceGraphic" in2="effect1_dropShadow_1628_44395" result="shape"/>
</filter>
<linearGradient id="paint0_linear_1628_44395" x1="21.7364" y1="0" x2="21.7364" y2="48.123" gradientUnits="userSpaceOnUse">
<stop stop-color="#FF7979"/>
<stop offset="1" stop-color="#E85555"/>
</linearGradient>
<linearGradient id="paint1_linear_1628_44395" x1="21.7364" y1="0" x2="21.7364" y2="48.123" gradientUnits="userSpaceOnUse">
<stop stop-color="#FF8777"/>
<stop offset="1" stop-color="#F0695F"/>
</linearGradient>
<linearGradient id="paint2_linear_1628_44395" x1="35.0173" y1="0" x2="35.0173" y2="15.9368" gradientUnits="userSpaceOnUse">
<stop stop-color="#DA5D4C"/>
<stop offset="1" stop-color="#E32900"/>
</linearGradient>
</defs>
</svg>
