<svg width="44" height="49" viewBox="0 0 44 49" fill="none" xmlns="http://www.w3.org/2000/svg">
<rect width="42.4983" height="48.123" transform="translate(0.982422)" fill="#E5E5E5"/>
<mask id="mask0_1628_44394" style="mask-type:alpha" maskUnits="userSpaceOnUse" x="0" y="0" width="44" height="49">
<path d="M40.0433 48.123H4.41978C2.52138 48.123 0.982422 46.5841 0.982422 44.6857V3.43736C0.982422 1.53896 2.52138 0 4.41978 0H27.5438L43.4807 15.9368V44.6857C43.4807 46.5841 41.9417 48.123 40.0433 48.123Z" fill="url(#paint0_linear_1628_44394)"/>
</mask>
<g mask="url(#mask0_1628_44394)">
<path d="M40.0443 48.123H4.42076C2.52236 48.123 0.983398 46.5841 0.983398 44.6857V3.43736C0.983398 1.53896 2.52236 0 4.42076 0H27.5448L43.4817 15.9368V44.6857C43.4817 46.5841 41.9427 48.123 40.0443 48.123Z" fill="url(#paint1_linear_1628_44394)"/>
<g opacity="0.2" filter="url(#filter0_f_1628_44394)">
<rect x="8.48242" y="23.2803" width="27.8114" height="13.1245" fill="#780AAF" style="mix-blend-mode:darken"/>
</g>
<path d="M12.4126 33.717C12.248 33.717 12.1122 33.6635 12.0052 33.5565C11.9065 33.4496 11.8571 33.3179 11.8571 33.1615C11.8571 33.0957 11.8777 33.0134 11.9188 32.9147L15.0664 25.484C15.1322 25.3359 15.2227 25.2166 15.3379 25.1261C15.4613 25.0273 15.6095 24.978 15.7823 24.978H15.9057C16.0785 24.978 16.2225 25.0273 16.3377 25.1261C16.4611 25.2166 16.5558 25.3359 16.6216 25.484L19.7691 32.9147C19.8103 33.0134 19.8308 33.0957 19.8308 33.1615C19.8308 33.3179 19.7774 33.4496 19.6704 33.5565C19.5716 33.6635 19.44 33.717 19.2754 33.717C19.1602 33.717 19.0532 33.6882 18.9545 33.6306C18.864 33.5648 18.794 33.4784 18.7446 33.3714L17.9423 31.4458H13.7456L12.9433 33.3714C12.8939 33.4784 12.8199 33.5648 12.7211 33.6306C12.6306 33.6882 12.5278 33.717 12.4126 33.717ZM14.1776 30.4213H17.5103L15.844 26.4098L14.1776 30.4213ZM24.9181 33.717C24.5807 33.717 24.3256 33.5277 24.1528 33.1492L21.104 25.7556C21.0793 25.6898 21.067 25.6198 21.067 25.5458C21.067 25.373 21.1164 25.2372 21.2151 25.1384C21.3139 25.0315 21.4496 24.978 21.6224 24.978C21.7376 24.978 21.8405 25.015 21.931 25.0891C22.0298 25.1549 22.1038 25.2454 22.1532 25.3606L25.0539 32.5938L27.9545 25.3606C28.0039 25.2454 28.0738 25.1549 28.1644 25.0891C28.2631 25.015 28.3701 24.978 28.4853 24.978C28.6581 24.978 28.7939 25.0315 28.8926 25.1384C28.9914 25.2372 29.0407 25.373 29.0407 25.5458C29.0407 25.6198 29.0284 25.6898 29.0037 25.7556L25.9549 33.1492C25.7821 33.5277 25.527 33.717 25.1896 33.717H24.9181ZM31.9579 33.717C31.8015 33.717 31.6699 33.6635 31.5629 33.5565C31.4559 33.4496 31.4024 33.3179 31.4024 33.1615V25.5458C31.4024 25.3894 31.4559 25.2578 31.5629 25.1508C31.6699 25.0356 31.8015 24.978 31.9579 24.978C32.1142 24.978 32.2459 25.0356 32.3529 25.1508C32.4681 25.2578 32.5257 25.3894 32.5257 25.5458V33.1615C32.5257 33.3179 32.4681 33.4496 32.3529 33.5565C32.2459 33.6635 32.1142 33.717 31.9579 33.717Z" fill="white"/>
<path d="M12.0052 33.5565L11.7754 33.7687L11.7843 33.7775L12.0052 33.5565ZM11.9188 32.9147L11.6311 32.7928L11.6304 32.7945L11.9188 32.9147ZM15.0664 25.484L14.7808 25.3571L14.7786 25.3622L15.0664 25.484ZM15.3379 25.1261L15.531 25.3718L15.5331 25.3701L15.3379 25.1261ZM16.3377 25.1261L16.1343 25.3633L16.1433 25.3711L16.1529 25.3781L16.3377 25.1261ZM16.6216 25.484L16.9094 25.3621L16.9072 25.3571L16.6216 25.484ZM19.7691 32.9147L20.0576 32.7945L20.0569 32.7928L19.7691 32.9147ZM19.6704 33.5565L19.4492 33.3354L19.4408 33.3446L19.6704 33.5565ZM18.9545 33.6306L18.7707 33.8833L18.7834 33.8926L18.797 33.9005L18.9545 33.6306ZM18.7446 33.3714L18.456 33.4917L18.4609 33.5023L18.7446 33.3714ZM17.9423 31.4458L18.2308 31.3256L18.1507 31.1333H17.9423V31.4458ZM13.7456 31.4458V31.1333H13.5373L13.4572 31.3256L13.7456 31.4458ZM12.9433 33.3714L13.2272 33.5024L13.2318 33.4916L12.9433 33.3714ZM12.7211 33.6306L12.8889 33.8943L12.8945 33.8906L12.7211 33.6306ZM14.1776 30.4213L13.8891 30.3015L13.7095 30.7338H14.1776V30.4213ZM17.5103 30.4213V30.7338H17.9785L17.7989 30.3015L17.5103 30.4213ZM15.844 26.4098L16.1326 26.2899L15.844 25.5952L15.5554 26.2899L15.844 26.4098ZM12.4126 33.4045C12.3228 33.4045 12.2691 33.3785 12.2262 33.3356L11.7843 33.7775C11.9553 33.9485 12.1731 34.0295 12.4126 34.0295V33.4045ZM12.2348 33.3446C12.1935 33.2998 12.1696 33.2457 12.1696 33.1615H11.5446C11.5446 33.3901 11.6194 33.5993 11.7756 33.7685L12.2348 33.3446ZM12.1696 33.1615C12.1696 33.1548 12.1733 33.1164 12.2073 33.0349L11.6304 32.7945C11.5821 32.9104 11.5446 33.0367 11.5446 33.1615H12.1696ZM12.2066 33.0366L15.3541 25.6059L14.7786 25.3622L11.6311 32.7928L12.2066 33.0366ZM15.3519 25.611C15.3993 25.5043 15.4599 25.4276 15.531 25.3718L15.1448 24.8804C14.9855 25.0056 14.8651 25.1675 14.7808 25.3571L15.3519 25.611ZM15.5331 25.3701C15.5959 25.3199 15.6734 25.2905 15.7823 25.2905V24.6655C15.5455 24.6655 15.3268 24.7348 15.1427 24.8821L15.5331 25.3701ZM15.7823 25.2905H15.9057V24.6655H15.7823V25.2905ZM15.9057 25.2905C16.0149 25.2905 16.0836 25.3199 16.1343 25.3633L16.5411 24.8888C16.3614 24.7348 16.1421 24.6655 15.9057 24.6655V25.2905ZM16.1529 25.3781C16.2298 25.4345 16.291 25.5096 16.336 25.611L16.9072 25.3571C16.8206 25.1623 16.6925 24.9987 16.5225 24.8741L16.1529 25.3781ZM16.3339 25.6059L19.4814 33.0366L20.0569 32.7928L16.9093 25.3622L16.3339 25.6059ZM19.4807 33.0349C19.5147 33.1164 19.5184 33.1548 19.5184 33.1615H20.1433C20.1433 33.0367 20.1059 32.9104 20.0576 32.7945L19.4807 33.0349ZM19.5184 33.1615C19.5184 33.2381 19.4956 33.2893 19.4494 33.3356L19.8913 33.7775C20.0591 33.6098 20.1433 33.3977 20.1433 33.1615H19.5184ZM19.4408 33.3446C19.4092 33.3788 19.3653 33.4045 19.2754 33.4045V34.0295C19.5146 34.0295 19.7341 33.9482 19.9 33.7685L19.4408 33.3446ZM19.2754 33.4045C19.2151 33.4045 19.1625 33.3902 19.1119 33.3607L18.797 33.9005C18.9439 33.9862 19.1053 34.0295 19.2754 34.0295V33.4045ZM19.1383 33.3779C19.0932 33.3451 19.0566 33.3016 19.0284 33.2404L18.4609 33.5023C18.5314 33.6551 18.6347 33.7844 18.7707 33.8833L19.1383 33.3779ZM19.0331 33.2512L18.2308 31.3256L17.6539 31.566L18.4562 33.4916L19.0331 33.2512ZM17.9423 31.1333H13.7456V31.7583H17.9423V31.1333ZM13.4572 31.3256L12.6549 33.2512L13.2318 33.4916L14.0341 31.566L13.4572 31.3256ZM12.6596 33.2404C12.6346 33.2946 12.5989 33.3365 12.5478 33.3706L12.8945 33.8906C13.0409 33.793 13.1533 33.6621 13.227 33.5023L12.6596 33.2404ZM12.5534 33.367C12.5167 33.3903 12.4729 33.4045 12.4126 33.4045V34.0295C12.5826 34.0295 12.7445 33.9861 12.8889 33.8942L12.5534 33.367ZM14.1776 30.7338H17.5103V30.1089H14.1776V30.7338ZM17.7989 30.3015L16.1326 26.2899L15.5554 26.5297L17.2217 30.5412L17.7989 30.3015ZM15.5554 26.2899L13.8891 30.3015L14.4662 30.5412L16.1326 26.5297L15.5554 26.2899ZM24.1528 33.1492L23.8637 33.2684L23.8685 33.279L24.1528 33.1492ZM21.104 25.7556L20.8113 25.8654L20.8151 25.8747L21.104 25.7556ZM21.2151 25.1384L21.4363 25.3596L21.4447 25.3504L21.2151 25.1384ZM21.931 25.0891L21.7331 25.3309L21.745 25.3406L21.7577 25.3491L21.931 25.0891ZM22.1532 25.3606L22.4433 25.2443L22.4404 25.2375L22.1532 25.3606ZM25.0539 32.5938L24.7638 32.7101L25.0539 33.4333L25.3439 32.7101L25.0539 32.5938ZM27.9545 25.3606L27.6672 25.2375L27.6645 25.2443L27.9545 25.3606ZM28.1644 25.0891L28.3482 25.3418L28.3519 25.3391L28.1644 25.0891ZM28.8926 25.1384L28.6628 25.3506L28.6717 25.3594L28.8926 25.1384ZM29.0037 25.7556L29.2927 25.8748L29.2963 25.8653L29.0037 25.7556ZM25.9549 33.1492L26.2394 33.2791L26.2438 33.2683L25.9549 33.1492ZM24.9181 33.4045C24.812 33.4045 24.7302 33.3762 24.6599 33.3241C24.5859 33.2692 24.5081 33.1751 24.4371 33.0194L23.8685 33.279C23.9703 33.5018 24.1065 33.6916 24.2875 33.826C24.4724 33.9632 24.6868 34.0295 24.9181 34.0295V33.4045ZM24.4417 33.0301L21.3929 25.6365L20.8151 25.8747L23.8639 33.2683L24.4417 33.0301ZM21.3966 25.6459C21.3858 25.617 21.3795 25.5844 21.3795 25.5458H20.7545C20.7545 25.6553 20.7729 25.7626 20.8114 25.8653L21.3966 25.6459ZM21.3795 25.5458C21.3795 25.435 21.4092 25.3863 21.4361 25.3594L20.9942 24.9175C20.8235 25.0881 20.7545 25.3109 20.7545 25.5458H21.3795ZM21.4447 25.3504C21.4733 25.3195 21.5191 25.2905 21.6224 25.2905V24.6655C21.3802 24.6655 21.1545 24.7435 20.9855 24.9265L21.4447 25.3504ZM21.6224 25.2905C21.6643 25.2905 21.6975 25.3018 21.7331 25.3309L22.1289 24.8472C21.9835 24.7282 21.811 24.6655 21.6224 24.6655V25.2905ZM21.7577 25.3491C21.8031 25.3793 21.8391 25.4209 21.866 25.4837L22.4404 25.2375C22.3686 25.0699 22.2564 24.9304 22.1044 24.8291L21.7577 25.3491ZM21.8632 25.4769L24.7638 32.7101L25.3439 32.4774L22.4432 25.2443L21.8632 25.4769ZM25.3439 32.7101L28.2446 25.4769L27.6645 25.2443L24.7638 32.4774L25.3439 32.7101ZM28.2418 25.4837C28.2717 25.4139 28.3084 25.3707 28.3482 25.3418L27.9806 24.8363C27.8392 24.9391 27.7361 25.0769 27.6673 25.2375L28.2418 25.4837ZM28.3519 25.3391C28.4006 25.3025 28.4427 25.2905 28.4853 25.2905V24.6655C28.2975 24.6655 28.1256 24.7275 27.9769 24.8391L28.3519 25.3391ZM28.4853 25.2905C28.5886 25.2905 28.6345 25.3195 28.663 25.3504L29.1222 24.9265C28.9533 24.7435 28.7276 24.6655 28.4853 24.6655V25.2905ZM28.6717 25.3594C28.6985 25.3863 28.7282 25.435 28.7282 25.5458H29.3532C29.3532 25.3109 29.2842 25.0881 29.1136 24.9175L28.6717 25.3594ZM28.7282 25.5458C28.7282 25.5844 28.722 25.617 28.7111 25.6459L29.2963 25.8653C29.3348 25.7626 29.3532 25.6553 29.3532 25.5458H28.7282ZM28.7148 25.6365L25.666 33.0301L26.2438 33.2683L29.2926 25.8747L28.7148 25.6365ZM25.6707 33.0194C25.5996 33.1751 25.5218 33.2692 25.4478 33.3241C25.3776 33.3762 25.2957 33.4045 25.1896 33.4045V34.0295C25.421 34.0295 25.6353 33.9632 25.8202 33.826C26.0013 33.6916 26.1374 33.5018 26.2392 33.279L25.6707 33.0194ZM25.1896 33.4045H24.9181V34.0295H25.1896V33.4045ZM31.5629 33.5565L31.7839 33.3356L31.5629 33.5565ZM31.5629 25.1508L31.784 25.3719L31.7919 25.3634L31.5629 25.1508ZM32.3529 25.1508L32.1239 25.3634L32.1318 25.3719L32.1402 25.3798L32.3529 25.1508ZM32.3529 33.5565L32.1401 33.3274L32.1319 33.3356L32.3529 33.5565ZM31.9579 33.4045C31.8813 33.4045 31.8301 33.3818 31.7839 33.3356L31.3419 33.7775C31.5097 33.9452 31.7218 34.0295 31.9579 34.0295V33.4045ZM31.7839 33.3356C31.7376 33.2893 31.7149 33.2381 31.7149 33.1615H31.09C31.09 33.3977 31.1742 33.6098 31.3419 33.7775L31.7839 33.3356ZM31.7149 33.1615V25.5458H31.09V33.1615H31.7149ZM31.7149 25.5458C31.7149 25.4692 31.7376 25.418 31.7839 25.3717L31.3419 24.9298C31.1742 25.0975 31.09 25.3096 31.09 25.5458H31.7149ZM31.7919 25.3634C31.8401 25.3115 31.889 25.2905 31.9579 25.2905V24.6655C31.7141 24.6655 31.4996 24.7597 31.3339 24.9381L31.7919 25.3634ZM31.9579 25.2905C32.0268 25.2905 32.0757 25.3115 32.1239 25.3634L32.5819 24.9381C32.4161 24.7597 32.2017 24.6655 31.9579 24.6655V25.2905ZM32.1402 25.3798C32.1922 25.428 32.2132 25.4769 32.2132 25.5458H32.8382C32.8382 25.302 32.744 25.0875 32.5655 24.9218L32.1402 25.3798ZM32.2132 25.5458V33.1615H32.8382V25.5458H32.2132ZM32.2132 33.1615C32.2132 33.2305 32.1922 33.2793 32.1402 33.3275L32.5655 33.7855C32.744 33.6198 32.8382 33.4053 32.8382 33.1615H32.2132ZM32.1319 33.3356C32.0857 33.3818 32.0345 33.4045 31.9579 33.4045V34.0295C32.194 34.0295 32.4061 33.9452 32.5738 33.7775L32.1319 33.3356Z" fill="white"/>
<g filter="url(#filter1_d_1628_44394)">
<path d="M43.4818 15.9368H30.9823C29.0839 15.9368 27.5449 14.3979 27.5449 12.4995V0L43.4818 15.9368Z" fill="url(#paint2_linear_1628_44394)"/>
</g>
</g>
<defs>
<filter id="filter0_f_1628_44394" x="2.38892" y="17.1868" width="39.9985" height="25.3115" filterUnits="userSpaceOnUse" color-interpolation-filters="sRGB">
<feFlood flood-opacity="0" result="BackgroundImageFix"/>
<feBlend mode="normal" in="SourceGraphic" in2="BackgroundImageFix" result="shape"/>
<feGaussianBlur stdDeviation="3.04675" result="effect1_foregroundBlur_1628_44394"/>
</filter>
<filter id="filter1_d_1628_44394" x="23.9513" y="-3.74985" width="23.7487" height="23.7492" filterUnits="userSpaceOnUse" color-interpolation-filters="sRGB">
<feFlood flood-opacity="0" result="BackgroundImageFix"/>
<feColorMatrix in="SourceAlpha" type="matrix" values="0 0 0 0 0 0 0 0 0 0 0 0 0 0 0 0 0 0 127 0" result="hardAlpha"/>
<feOffset dx="0.312487" dy="0.156244"/>
<feGaussianBlur stdDeviation="1.95305"/>
<feColorMatrix type="matrix" values="0 0 0 0 0 0 0 0 0 0 0 0 0 0 0 0 0 0 0.33 0"/>
<feBlend mode="normal" in2="BackgroundImageFix" result="effect1_dropShadow_1628_44394"/>
<feBlend mode="normal" in="SourceGraphic" in2="effect1_dropShadow_1628_44394" result="shape"/>
</filter>
<linearGradient id="paint0_linear_1628_44394" x1="22.2316" y1="0" x2="22.2316" y2="48.123" gradientUnits="userSpaceOnUse">
<stop stop-color="#FF7979"/>
<stop offset="1" stop-color="#E85555"/>
</linearGradient>
<linearGradient id="paint1_linear_1628_44394" x1="22.2325" y1="0" x2="22.2325" y2="48.123" gradientUnits="userSpaceOnUse">
<stop stop-color="#CB74F4"/>
<stop offset="0.942892" stop-color="#A849F3"/>
</linearGradient>
<linearGradient id="paint2_linear_1628_44394" x1="35.5133" y1="0" x2="35.5133" y2="15.9368" gradientUnits="userSpaceOnUse">
<stop stop-color="#B051E0"/>
<stop offset="1" stop-color="#952BCB"/>
</linearGradient>
</defs>
</svg>
