<svg width="44" height="49" viewBox="0 0 44 49" fill="none" xmlns="http://www.w3.org/2000/svg">
<mask id="mask0_1628_44397" style="mask-type:alpha" maskUnits="userSpaceOnUse" x="0" y="0" width="44" height="49">
<path d="M40.0536 48.123H4.43004C2.53163 48.123 0.992676 46.5841 0.992676 44.6857V3.43736C0.992676 1.53896 2.53163 0 4.43004 0H27.5541L43.4909 15.9368V44.6857C43.4909 46.5841 41.952 48.123 40.0536 48.123Z" fill="url(#paint0_linear_1628_44397)"/>
</mask>
<g mask="url(#mask0_1628_44397)">
<path d="M40.0511 48.123H4.42759C2.52919 48.123 0.990234 46.5841 0.990234 44.6857V3.43736C0.990234 1.53896 2.52919 0 4.42759 0H27.5516L43.4885 15.9368V44.6857C43.4885 46.5841 41.9495 48.123 40.0511 48.123Z" fill="url(#paint1_linear_1628_44397)"/>
<path d="M10.7107 33.717C10.5544 33.717 10.4227 33.6635 10.3158 33.5565C10.2088 33.4496 10.1553 33.3179 10.1553 33.1615V25.6075C10.1553 25.4511 10.2088 25.3195 10.3158 25.2125C10.4227 25.0973 10.5544 25.0397 10.7107 25.0397H13.525C14.3067 25.0397 14.9445 25.1713 15.4382 25.4347C15.9319 25.698 16.2858 26.0354 16.4997 26.4468C16.7137 26.8583 16.8207 27.3026 16.8207 27.7799C16.8207 28.2572 16.7137 28.7015 16.4997 29.113C16.2858 29.5244 15.9319 29.8618 15.4382 30.1251C14.9445 30.3884 14.3067 30.5201 13.525 30.5201H11.2785V33.1615C11.2785 33.3179 11.2209 33.4496 11.1057 33.5565C10.9988 33.6635 10.8671 33.717 10.7107 33.717ZM13.4139 29.4586C14.2533 29.4586 14.8416 29.2981 15.179 28.9772C15.5246 28.6563 15.6974 28.2572 15.6974 27.7799C15.6974 27.3026 15.5246 26.9035 15.179 26.5826C14.8416 26.2617 14.2533 26.1012 13.4139 26.1012H11.2785V29.4586H13.4139ZM22.028 33.7787C20.9829 33.7787 20.0037 33.5812 19.0903 33.1862C18.9915 33.1451 18.9092 33.0793 18.8434 32.9887C18.7776 32.89 18.7447 32.7871 18.7447 32.6802C18.7447 32.5403 18.7899 32.4209 18.8804 32.3222C18.9792 32.2152 19.1026 32.1617 19.2507 32.1617C19.333 32.1617 19.4112 32.1782 19.4853 32.2111C20.2423 32.5485 21.0528 32.7172 21.9169 32.7172C23.3569 32.7172 24.0769 32.244 24.0769 31.2977C24.0769 31.0508 23.9823 30.8451 23.793 30.6806C23.612 30.516 23.3857 30.3884 23.1142 30.2979C22.8426 30.1992 22.4559 30.084 21.9539 29.9523C21.2874 29.7795 20.7484 29.6149 20.3369 29.4586C19.9255 29.294 19.5717 29.0512 19.2754 28.7303C18.9792 28.4094 18.8311 27.9815 18.8311 27.4466C18.8311 26.9776 18.9545 26.5538 19.2014 26.1753C19.4482 25.7885 19.8103 25.484 20.2876 25.2619C20.7731 25.0315 21.3532 24.9163 22.028 24.9163C22.9331 24.9163 23.7519 25.052 24.4843 25.3236C24.7147 25.4059 24.8299 25.5704 24.8299 25.8173C24.8299 25.949 24.7846 26.0683 24.6941 26.1753C24.6036 26.2822 24.4843 26.3357 24.3361 26.3357C24.2868 26.3357 24.2209 26.3193 24.1387 26.2864C23.4968 26.0642 22.8344 25.9531 22.1514 25.9531C21.5013 25.9531 20.9706 26.0765 20.5591 26.3234C20.1559 26.5703 19.9543 26.9159 19.9543 27.3602C19.9543 27.6565 20.0489 27.8992 20.2382 28.0885C20.4357 28.2695 20.6784 28.4135 20.9664 28.5205C21.2627 28.6192 21.6618 28.7262 22.1637 28.8414C22.8138 28.9978 23.3363 29.1541 23.7313 29.3105C24.1345 29.4668 24.476 29.7095 24.7558 30.0387C25.0438 30.3679 25.1878 30.8122 25.1878 31.3718C25.1878 31.8326 25.0562 32.2481 24.7928 32.6184C24.5295 32.9805 24.1592 33.2644 23.682 33.4701C23.2047 33.6758 22.6534 33.7787 22.028 33.7787ZM28.338 33.6553C28.1816 33.6553 28.05 33.6018 27.943 33.4948C27.836 33.3878 27.7825 33.2562 27.7825 33.0998V25.6075C27.7825 25.4511 27.836 25.3195 27.943 25.2125C28.05 25.0973 28.1816 25.0397 28.338 25.0397H30.819C31.757 25.0397 32.5511 25.2495 33.2012 25.6692C33.8595 26.0806 34.3532 26.6155 34.6824 27.2738C35.0115 27.9321 35.1761 28.6233 35.1761 29.3475C35.1761 30.0716 35.0115 30.7628 34.6824 31.4211C34.3532 32.0795 33.8595 32.6184 33.2012 33.0381C32.5511 33.4496 31.757 33.6553 30.819 33.6553H28.338ZM30.6832 32.6061C31.3579 32.6061 31.9504 32.4703 32.4606 32.1988C32.9708 31.919 33.3658 31.5363 33.6456 31.0508C33.9253 30.5571 34.0652 29.9893 34.0652 29.3475C34.0652 28.7056 33.9253 28.142 33.6456 27.6565C33.3658 27.1627 32.9708 26.7801 32.4606 26.5085C31.9504 26.2288 31.3579 26.0889 30.6832 26.0889H28.9058V32.6061H30.6832Z" fill="white"/>
<path d="M10.3158 33.5565L10.5367 33.3356H10.5367L10.3158 33.5565ZM10.3158 25.2125L10.5369 25.4336L10.5448 25.4251L10.3158 25.2125ZM16.4997 26.4468L16.2225 26.591L16.4997 26.4468ZM16.4997 29.113L16.2225 28.9688L16.2225 28.9688L16.4997 29.113ZM11.2785 30.5201V30.2076H10.9661V30.5201H11.2785ZM11.1057 33.5565L10.893 33.3274L10.8848 33.3356L11.1057 33.5565ZM15.179 28.9772L14.9664 28.7482L14.9636 28.7508L15.179 28.9772ZM15.179 26.5826L14.9636 26.809L14.9664 26.8116L15.179 26.5826ZM11.2785 26.1012V25.7887H10.9661V26.1012H11.2785ZM11.2785 29.4586H10.9661V29.7711H11.2785V29.4586ZM10.7107 33.4045C10.6342 33.4045 10.5829 33.3818 10.5367 33.3356L10.0948 33.7775C10.2625 33.9452 10.4746 34.0295 10.7107 34.0295V33.4045ZM10.5367 33.3356C10.4905 33.2893 10.4678 33.2381 10.4678 33.1615H9.84282C9.84282 33.3977 9.92707 33.6098 10.0948 33.7775L10.5367 33.3356ZM10.4678 33.1615V25.6075H9.84282V33.1615H10.4678ZM10.4678 25.6075C10.4678 25.5309 10.4905 25.4797 10.5367 25.4335L10.0948 24.9915C9.92707 25.1593 9.84282 25.3714 9.84282 25.6075H10.4678ZM10.5448 25.4251C10.593 25.3732 10.6418 25.3522 10.7107 25.3522V24.7272C10.467 24.7272 10.2525 24.8214 10.0868 24.9999L10.5448 25.4251ZM10.7107 25.3522H13.525V24.7272H10.7107V25.3522ZM13.525 25.3522C14.2747 25.3522 14.8571 25.4789 15.2912 25.7104L15.5853 25.1589C15.0319 24.8638 14.3388 24.7272 13.525 24.7272V25.3522ZM15.2912 25.7104C15.7409 25.9503 16.0432 26.2462 16.2225 26.591L16.777 26.3027C16.5283 25.8245 16.123 25.4457 15.5853 25.1589L15.2912 25.7104ZM16.2225 26.591C16.4126 26.9566 16.5082 27.3513 16.5082 27.7799H17.1331C17.1331 27.2539 17.0148 26.7599 16.777 26.3027L16.2225 26.591ZM16.5082 27.7799C16.5082 28.2085 16.4126 28.6032 16.2225 28.9688L16.777 29.2571C17.0148 28.7998 17.1331 28.3058 17.1331 27.7799H16.5082ZM16.2225 28.9688C16.0432 29.3135 15.7409 29.6095 15.2912 29.8494L15.5853 30.4008C16.123 30.114 16.5283 29.7353 16.777 29.2571L16.2225 28.9688ZM15.2912 29.8494C14.8571 30.0809 14.2747 30.2076 13.525 30.2076V30.8326C14.3388 30.8326 15.0319 30.696 15.5853 30.4008L15.2912 29.8494ZM13.525 30.2076H11.2785V30.8326H13.525V30.2076ZM10.9661 30.5201V33.1615H11.591V30.5201H10.9661ZM10.9661 33.1615C10.9661 33.2305 10.945 33.2793 10.8931 33.3275L11.3184 33.7855C11.4968 33.6198 11.591 33.4053 11.591 33.1615H10.9661ZM10.8848 33.3356C10.8386 33.3818 10.7873 33.4045 10.7107 33.4045V34.0295C10.9469 34.0295 11.159 33.9452 11.3267 33.7775L10.8848 33.3356ZM13.4139 29.7711C14.2751 29.7711 14.9672 29.6099 15.3944 29.2036L14.9636 28.7508C14.716 28.9863 14.2314 29.1461 13.4139 29.1461V29.7711ZM15.3916 29.2062C15.8018 28.8253 16.0099 28.3429 16.0099 27.7799H15.3849C15.3849 28.1714 15.2474 28.4872 14.9664 28.7482L15.3916 29.2062ZM16.0099 27.7799C16.0099 27.2169 15.8018 26.7345 15.3916 26.3536L14.9664 26.8116C15.2474 27.0726 15.3849 27.3883 15.3849 27.7799H16.0099ZM15.3944 26.3562C14.9672 25.9499 14.2751 25.7887 13.4139 25.7887V26.4137C14.2314 26.4137 14.716 26.5735 14.9636 26.809L15.3944 26.3562ZM13.4139 25.7887H11.2785V26.4137H13.4139V25.7887ZM10.9661 26.1012V29.4586H11.591V26.1012H10.9661ZM11.2785 29.7711H13.4139V29.1461H11.2785V29.7711ZM19.0903 33.1862L19.2143 32.8994L19.2105 32.8978L19.0903 33.1862ZM18.8434 32.9887L18.5832 33.1622L18.5907 33.1725L18.8434 32.9887ZM18.8804 32.3222L18.6508 32.1102L18.6501 32.111L18.8804 32.3222ZM19.4853 32.2111L19.6125 31.9257L19.6122 31.9256L19.4853 32.2111ZM23.793 30.6806L23.5828 30.9118L23.588 30.9164L23.793 30.6806ZM23.1142 30.2979L23.0073 30.5917L23.0153 30.5944L23.1142 30.2979ZM21.9539 29.9523L22.0332 29.65L22.0323 29.6498L21.9539 29.9523ZM20.3369 29.4586L20.2209 29.7488L20.2259 29.7507L20.3369 29.4586ZM19.2754 28.7303L19.0458 28.9423L19.2754 28.7303ZM19.2014 26.1753L19.4631 26.346L19.4648 26.3434L19.2014 26.1753ZM20.2876 25.2619L20.4194 25.5452L20.4215 25.5442L20.2876 25.2619ZM24.4843 25.3236L24.3756 25.6166L24.3792 25.6179L24.4843 25.3236ZM24.6941 26.1753L24.9327 26.3771L24.9327 26.3771L24.6941 26.1753ZM24.1387 26.2864L24.2547 25.9962L24.2479 25.9935L24.2409 25.9911L24.1387 26.2864ZM20.5591 26.3234L20.3983 26.0554L20.3959 26.0569L20.5591 26.3234ZM20.2382 28.0885L20.017 28.3096L20.027 28.3188L20.2382 28.0885ZM20.9664 28.5205L20.8576 28.8136L20.8676 28.8169L20.9664 28.5205ZM22.1637 28.8414L22.2368 28.5376L22.2336 28.5368L22.1637 28.8414ZM23.7313 29.3105L23.6163 29.601L23.6184 29.6018L23.7313 29.3105ZM24.7558 30.0387L24.5177 30.2411L24.5206 30.2445L24.7558 30.0387ZM24.7928 32.6184L25.0456 32.8022L25.0475 32.7995L24.7928 32.6184ZM23.682 33.4701L23.8056 33.7571L23.682 33.4701ZM22.028 33.4662C21.0234 33.4662 20.0866 33.2766 19.2143 32.8994L18.9662 33.473C19.9207 33.8858 20.9424 34.0912 22.028 34.0912V33.4662ZM19.2105 32.8978C19.1672 32.8797 19.1299 32.8513 19.0961 32.8049L18.5907 33.1725C18.6886 33.3072 18.8159 33.4104 18.9701 33.4747L19.2105 32.8978ZM19.1034 32.8154C19.0679 32.7622 19.0571 32.7188 19.0571 32.6802H18.4322C18.4322 32.8555 18.4872 33.0178 18.5834 33.1621L19.1034 32.8154ZM19.0571 32.6802C19.0571 32.6146 19.0756 32.5717 19.1108 32.5334L18.6501 32.111C18.5042 32.2702 18.4322 32.4659 18.4322 32.6802H19.0571ZM19.1101 32.5342C19.1485 32.4925 19.1881 32.4742 19.2507 32.4742V31.8493C19.0171 31.8493 18.8099 31.9379 18.6508 32.1102L19.1101 32.5342ZM19.2507 32.4742C19.29 32.4742 19.3249 32.4818 19.3583 32.4967L19.6122 31.9256C19.4975 31.8746 19.3761 31.8493 19.2507 31.8493V32.4742ZM19.3581 32.4965C20.1568 32.8525 21.0109 33.0297 21.9169 33.0297V32.4047C21.0948 32.4047 20.3278 32.2445 19.6125 31.9257L19.3581 32.4965ZM21.9169 33.0297C22.6612 33.0297 23.2737 32.9092 23.7085 32.6235C24.1662 32.3227 24.3894 31.8638 24.3894 31.2977H23.7645C23.7645 31.6779 23.6276 31.9288 23.3653 32.1012C23.0801 32.2886 22.6126 32.4047 21.9169 32.4047V33.0297ZM24.3894 31.2977C24.3894 30.9588 24.2544 30.6676 23.9981 30.4447L23.588 30.9164C23.7103 31.0227 23.7645 31.1429 23.7645 31.2977H24.3894ZM24.0032 30.4493C23.785 30.2509 23.5189 30.1034 23.213 30.0015L23.0153 30.5944C23.2526 30.6734 23.439 30.781 23.5828 30.9118L24.0032 30.4493ZM23.221 30.0042C22.936 29.9006 22.5384 29.7825 22.0332 29.65L21.8746 30.2546C22.3733 30.3854 22.7493 30.4977 23.0074 30.5916L23.221 30.0042ZM22.0323 29.6498C21.3714 29.4785 20.8445 29.3172 20.4479 29.1665L20.2259 29.7507C20.6522 29.9127 21.2033 30.0805 21.8755 30.2548L22.0323 29.6498ZM20.453 29.1684C20.0841 29.0209 19.7692 28.8046 19.505 28.5184L19.0458 28.9423C19.3741 29.2979 19.7669 29.5671 20.2209 29.7487L20.453 29.1684ZM19.505 28.5184C19.2734 28.2675 19.1435 27.9215 19.1435 27.4466H18.5186C18.5186 28.0415 18.6849 28.5513 19.0458 28.9423L19.505 28.5184ZM19.1435 27.4466C19.1435 27.0358 19.2507 26.6717 19.4631 26.346L18.9396 26.0046C18.6583 26.4359 18.5186 26.9194 18.5186 27.4466H19.1435ZM19.4648 26.3434C19.6751 26.0138 19.9879 25.746 20.4194 25.5452L20.1557 24.9786C19.6326 25.2221 19.2213 25.5632 18.938 26.0071L19.4648 26.3434ZM20.4215 25.5442C20.8559 25.338 21.388 25.2287 22.028 25.2287V24.6038C21.3184 24.6038 20.6902 24.7249 20.1536 24.9796L20.4215 25.5442ZM22.028 25.2287C22.9018 25.2287 23.6831 25.3598 24.3756 25.6166L24.5929 25.0306C23.8207 24.7443 22.9644 24.6038 22.028 24.6038V25.2287ZM24.3792 25.6179C24.4469 25.642 24.4745 25.6694 24.4875 25.6879C24.5006 25.7067 24.5174 25.7431 24.5174 25.8173H25.1424C25.1424 25.6446 25.1015 25.4753 24.9995 25.3295C24.8973 25.1835 24.7521 25.0874 24.5894 25.0293L24.3792 25.6179ZM24.5174 25.8173C24.5174 25.8701 24.5017 25.9189 24.4556 25.9734L24.9327 26.3771C25.0676 26.2176 25.1424 26.0279 25.1424 25.8173H24.5174ZM24.4556 25.9734C24.4282 26.0058 24.3983 26.0232 24.3361 26.0232V26.6482C24.5702 26.6482 24.779 26.5587 24.9327 26.3771L24.4556 25.9734ZM24.3361 26.0232C24.3445 26.0232 24.3422 26.0244 24.3255 26.0202C24.3097 26.0163 24.2865 26.0089 24.2547 25.9962L24.0226 26.5765C24.1172 26.6143 24.2271 26.6482 24.3361 26.6482V26.0232ZM24.2409 25.9911C23.566 25.7574 22.869 25.6406 22.1514 25.6406V26.2656C22.7998 26.2656 23.4277 26.3709 24.0364 26.5817L24.2409 25.9911ZM22.1514 25.6406C21.4641 25.6406 20.8726 25.7708 20.3983 26.0554L20.7199 26.5913C21.0685 26.3822 21.5386 26.2656 22.1514 26.2656V25.6406ZM20.3959 26.0569C19.9072 26.3561 19.6418 26.7989 19.6418 27.3602H20.2668C20.2668 27.0328 20.4046 26.7844 20.7223 26.5899L20.3959 26.0569ZM19.6418 27.3602C19.6418 27.7296 19.7628 28.055 20.0172 28.3094L20.4592 27.8675C20.335 27.7434 20.2668 27.5833 20.2668 27.3602H19.6418ZM20.027 28.3188C20.2583 28.5308 20.5373 28.6944 20.8576 28.8134L21.0752 28.2276C20.8196 28.1326 20.613 28.0082 20.4493 27.8581L20.027 28.3188ZM20.8676 28.8169C21.1775 28.9202 21.5875 29.0298 22.0938 29.146L22.2336 28.5368C21.7361 28.4226 21.3479 28.3182 21.0653 28.224L20.8676 28.8169ZM22.0907 29.1452C22.7336 29.2999 23.2404 29.4522 23.6163 29.601L23.8463 29.0199C23.4323 28.856 22.8941 28.6957 22.2368 28.5376L22.0907 29.1452ZM23.6184 29.6018C23.9732 29.7394 24.2716 29.9516 24.5177 30.2411L24.9939 29.8363C24.6804 29.4675 24.2959 29.1942 23.8443 29.0191L23.6184 29.6018ZM24.5206 30.2445C24.7462 30.5022 24.8753 30.8662 24.8753 31.3718H25.5003C25.5003 30.7583 25.3415 30.2335 24.991 29.8329L24.5206 30.2445ZM24.8753 31.3718C24.8753 31.7687 24.7633 32.1207 24.5382 32.4373L25.0475 32.7995C25.349 32.3755 25.5003 31.8965 25.5003 31.3718H24.8753ZM24.5401 32.4346C24.3148 32.7445 23.9924 32.996 23.5583 33.1832L23.8056 33.7571C24.326 33.5328 24.7443 33.2165 25.0456 32.8022L24.5401 32.4346ZM23.5583 33.1832C23.1272 33.369 22.6193 33.4662 22.028 33.4662V34.0912C22.6874 34.0912 23.2822 33.9827 23.8056 33.7571L23.5583 33.1832ZM27.943 33.4948L28.1639 33.2738L27.943 33.4948ZM27.943 25.2125L28.1641 25.4336L28.172 25.4251L27.943 25.2125ZM33.2012 25.6692L33.0317 25.9318L33.0356 25.9342L33.2012 25.6692ZM34.6824 27.2738L34.4029 27.4136L34.6824 27.2738ZM34.6824 31.4211L34.4029 31.2814L34.6824 31.4211ZM33.2012 33.0381L33.3683 33.3022L33.3692 33.3016L33.2012 33.0381ZM32.4606 32.1988L32.6074 32.4746L32.6109 32.4728L32.4606 32.1988ZM33.6456 31.0508L33.9163 31.2069L33.9174 31.2049L33.6456 31.0508ZM33.6456 27.6565L33.3737 27.8105L33.3748 27.8125L33.6456 27.6565ZM32.4606 26.5085L32.3103 26.7825L32.3138 26.7844L32.4606 26.5085ZM28.9058 26.0889V25.7764H28.5933V26.0889H28.9058ZM28.9058 32.6061H28.5933V32.9186H28.9058V32.6061ZM28.338 33.3428C28.2614 33.3428 28.2102 33.3201 28.1639 33.2738L27.722 33.7158C27.8898 33.8835 28.1018 33.9678 28.338 33.9678V33.3428ZM28.1639 33.2738C28.1177 33.2276 28.095 33.1764 28.095 33.0998H27.47C27.47 33.336 27.5543 33.548 27.722 33.7158L28.1639 33.2738ZM28.095 33.0998V25.6075H27.47V33.0998H28.095ZM28.095 25.6075C28.095 25.5309 28.1177 25.4797 28.1639 25.4335L27.722 24.9915C27.5543 25.1593 27.47 25.3714 27.47 25.6075H28.095ZM28.172 25.4251C28.2202 25.3732 28.2691 25.3522 28.338 25.3522V24.7272C28.0942 24.7272 27.8797 24.8214 27.714 24.9999L28.172 25.4251ZM28.338 25.3522H30.819V24.7272H28.338V25.3522ZM30.819 25.3522C31.7098 25.3522 32.442 25.551 33.0317 25.9317L33.3707 25.4067C32.6603 24.948 31.8043 24.7272 30.819 24.7272V25.3522ZM33.0356 25.9342C33.6479 26.3169 34.1009 26.8096 34.4029 27.4136L34.9619 27.1341C34.6056 26.4215 34.0711 25.8444 33.3668 25.4042L33.0356 25.9342ZM34.4029 27.4136C34.7107 28.0292 34.8636 28.6727 34.8636 29.3475H35.4886C35.4886 28.574 35.3124 27.835 34.9619 27.1341L34.4029 27.4136ZM34.8636 29.3475C34.8636 30.0223 34.7107 30.6657 34.4029 31.2814L34.9619 31.5609C35.3124 30.8599 35.4886 30.1209 35.4886 29.3475H34.8636ZM34.4029 31.2814C34.1006 31.886 33.6469 32.3834 33.0332 32.7746L33.3692 33.3016C34.0722 32.8535 34.6059 32.2729 34.9619 31.5609L34.4029 31.2814ZM33.0341 32.7741C32.444 33.1475 31.7109 33.3428 30.819 33.3428V33.9678C31.8032 33.9678 32.6583 33.7516 33.3683 33.3022L33.0341 32.7741ZM30.819 33.3428H28.338V33.9678H30.819V33.3428ZM30.6832 32.9186C31.4005 32.9186 32.045 32.774 32.6074 32.4746L32.3138 31.9229C31.8558 32.1667 31.3153 32.2936 30.6832 32.2936V32.9186ZM32.6109 32.4728C33.1692 32.1666 33.6068 31.744 33.9163 31.2069L33.3748 30.8948C33.1248 31.3287 32.7723 31.6714 32.3104 31.9248L32.6109 32.4728ZM33.9174 31.2049C34.2272 30.6583 34.3777 30.0361 34.3777 29.3475H33.7527C33.7527 29.9425 33.6235 30.4559 33.3737 30.8968L33.9174 31.2049ZM34.3777 29.3475C34.3777 28.659 34.2272 28.0399 33.9163 27.5004L33.3748 27.8125C33.6235 28.244 33.7527 28.7523 33.7527 29.3475H34.3777ZM33.9174 27.5024C33.6078 26.956 33.169 26.5316 32.6074 26.2327L32.3138 26.7844C32.7726 27.0286 33.1237 27.3694 33.3737 27.8105L33.9174 27.5024ZM32.6109 26.2345C32.0477 25.9257 31.402 25.7764 30.6832 25.7764V26.4014C31.3139 26.4014 31.8531 26.5318 32.3104 26.7825L32.6109 26.2345ZM30.6832 25.7764H28.9058V26.4014H30.6832V25.7764ZM28.5933 26.0889V32.6061H29.2182V26.0889H28.5933ZM28.9058 32.9186H30.6832V32.2936H28.9058V32.9186Z" fill="white"/>
<g filter="url(#filter0_d_1628_44397)">
<path d="M43.4886 15.9368H30.9891C29.0907 15.9368 27.5518 14.3979 27.5518 12.4995V0L43.4886 15.9368Z" fill="url(#paint2_linear_1628_44397)"/>
</g>
</g>
<defs>
<filter id="filter0_d_1628_44397" x="23.9582" y="-3.74985" width="23.7487" height="23.7492" filterUnits="userSpaceOnUse" color-interpolation-filters="sRGB">
<feFlood flood-opacity="0" result="BackgroundImageFix"/>
<feColorMatrix in="SourceAlpha" type="matrix" values="0 0 0 0 0 0 0 0 0 0 0 0 0 0 0 0 0 0 127 0" result="hardAlpha"/>
<feOffset dx="0.312487" dy="0.156244"/>
<feGaussianBlur stdDeviation="1.95305"/>
<feColorMatrix type="matrix" values="0 0 0 0 0 0 0 0 0 0 0 0 0 0 0 0 0 0 0.33 0"/>
<feBlend mode="normal" in2="BackgroundImageFix" result="effect1_dropShadow_1628_44397"/>
<feBlend mode="normal" in="SourceGraphic" in2="effect1_dropShadow_1628_44397" result="shape"/>
</filter>
<linearGradient id="paint0_linear_1628_44397" x1="22.2418" y1="0" x2="22.2418" y2="48.123" gradientUnits="userSpaceOnUse">
<stop stop-color="#FF7979"/>
<stop offset="1" stop-color="#E85555"/>
</linearGradient>
<linearGradient id="paint1_linear_1628_44397" x1="22.2394" y1="0" x2="22.2394" y2="48.123" gradientUnits="userSpaceOnUse">
<stop stop-color="#9391FC"/>
<stop offset="1" stop-color="#5B59EF"/>
</linearGradient>
<linearGradient id="paint2_linear_1628_44397" x1="35.5202" y1="0" x2="35.5202" y2="15.9368" gradientUnits="userSpaceOnUse">
<stop stop-color="#7371F1"/>
<stop offset="1" stop-color="#504DE8"/>
</linearGradient>
</defs>
</svg>
