<svg width="44" height="49" viewBox="0 0 44 49" fill="none" xmlns="http://www.w3.org/2000/svg">
<mask id="mask0_1628_44389" style="mask-type:alpha" maskUnits="userSpaceOnUse" x="0" y="0" width="44" height="49">
<path d="M40.0575 48.123H4.43394C2.53554 48.123 0.996582 46.5841 0.996582 44.6857V3.43736C0.996582 1.53896 2.53554 0 4.43394 0H27.558L43.4948 15.9368V44.6857C43.4948 46.5841 41.9559 48.123 40.0575 48.123Z" fill="url(#paint0_linear_1628_44389)"/>
</mask>
<g mask="url(#mask0_1628_44389)">
<path d="M40.0594 48.123H4.4359C2.53749 48.123 0.998535 46.5841 0.998535 44.6857V3.43736C0.998535 1.53896 2.53749 0 4.43589 0H27.5599L43.4968 15.9368V44.6857C43.4968 46.5841 41.9578 48.123 40.0594 48.123Z" fill="url(#paint1_linear_1628_44389)"/>
<g opacity="0.51" filter="url(#filter0_f_1628_44389)">
<rect x="8.49756" y="23.2803" width="27.8114" height="13.1245" fill="#E33CC8" style="mix-blend-mode:darken"/>
</g>
<path d="M11.04 33.7787C10.4393 33.7787 9.89205 33.6388 9.39832 33.359C9.21729 33.2521 9.12677 33.0998 9.12677 32.9023C9.12677 32.7707 9.16791 32.6555 9.2502 32.5567C9.34072 32.4497 9.45592 32.3963 9.59581 32.3963C9.6781 32.3963 9.75216 32.4127 9.81799 32.4456C10.1965 32.6267 10.5792 32.7172 10.9659 32.7172C11.4103 32.7172 11.7682 32.5896 12.0398 32.3345C12.3196 32.0795 12.4594 31.5981 12.4594 30.8904V25.5458C12.4594 25.3894 12.5129 25.2578 12.6199 25.1508C12.7269 25.0356 12.8585 24.978 13.0149 24.978C13.1712 24.978 13.3029 25.0356 13.4099 25.1508C13.5251 25.2578 13.5827 25.3894 13.5827 25.5458V30.8163C13.5827 31.8943 13.3399 32.6596 12.8544 33.1122C12.3772 33.5565 11.7723 33.7787 11.04 33.7787ZM17.3328 33.717C17.1765 33.717 17.0448 33.6635 16.9378 33.5565C16.8309 33.4496 16.7774 33.3179 16.7774 33.1615V25.6075C16.7774 25.4511 16.8309 25.3195 16.9378 25.2125C17.0448 25.0973 17.1765 25.0397 17.3328 25.0397H20.1471C20.9288 25.0397 21.5665 25.1713 22.0603 25.4347C22.554 25.698 22.9078 26.0354 23.1218 26.4468C23.3357 26.8583 23.4427 27.3026 23.4427 27.7799C23.4427 28.2572 23.3357 28.7015 23.1218 29.113C22.9078 29.5244 22.554 29.8618 22.0603 30.1251C21.5665 30.3884 20.9288 30.5201 20.1471 30.5201H17.9006V33.1615C17.9006 33.3179 17.843 33.4496 17.7278 33.5565C17.6208 33.6635 17.4892 33.717 17.3328 33.717ZM20.036 29.4586C20.8753 29.4586 21.4637 29.2981 21.8011 28.9772C22.1467 28.6563 22.3195 28.2572 22.3195 27.7799C22.3195 27.3026 22.1467 26.9035 21.8011 26.5826C21.4637 26.2617 20.8753 26.1012 20.036 26.1012H17.9006V29.4586H20.036ZM29.7486 33.7787C28.901 33.7787 28.1481 33.5936 27.4898 33.2233C26.8315 32.8447 26.3213 32.3222 25.9592 31.6557C25.5971 30.9809 25.4161 30.2156 25.4161 29.3598C25.4161 28.4876 25.6054 27.7141 25.9839 27.0393C26.3624 26.3645 26.8767 25.842 27.5268 25.4717C28.1851 25.1014 28.9133 24.9163 29.7115 24.9163C30.3534 24.9163 30.913 24.9944 31.3902 25.1508C31.8757 25.3071 32.3407 25.5252 32.785 25.805C32.8508 25.8379 32.9084 25.8955 32.9578 25.9778C33.0072 26.0601 33.0319 26.1506 33.0319 26.2493C33.0319 26.3892 32.9825 26.5085 32.8838 26.6073C32.7932 26.706 32.6698 26.7554 32.5135 26.7554C32.4229 26.7554 32.3365 26.7348 32.2543 26.6937C31.8675 26.4633 31.4807 26.2905 31.094 26.1753C30.7072 26.0601 30.2876 26.0025 29.835 26.0025C29.2096 26.0025 28.6459 26.1341 28.1439 26.3974C27.642 26.6608 27.247 27.0475 26.959 27.5577C26.6792 28.0597 26.5393 28.6604 26.5393 29.3598C26.5393 30.0017 26.671 30.5777 26.9343 31.0879C27.2059 31.5898 27.5926 31.9889 28.0946 32.2852C28.6048 32.5732 29.2055 32.7172 29.8967 32.7172C30.6702 32.7172 31.3902 32.5362 32.0568 32.1741V29.94H30.0201C29.8802 29.94 29.7609 29.8906 29.6622 29.7918C29.5634 29.6931 29.5141 29.5738 29.5141 29.4339C29.5141 29.294 29.5634 29.1747 29.6622 29.0759C29.7609 28.9772 29.8802 28.9278 30.0201 28.9278H32.4517C32.6163 28.9278 32.7562 28.9854 32.8714 29.1006C32.9866 29.2158 33.0442 29.3557 33.0442 29.5203V32.3222C33.0442 32.495 32.999 32.6514 32.9084 32.7912C32.8262 32.9229 32.7151 33.0217 32.5752 33.0875C31.6535 33.5483 30.7113 33.7787 29.7486 33.7787Z" fill="white"/>
<path d="M9.39832 33.359L9.23932 33.6281L9.24426 33.6309L9.39832 33.359ZM9.2502 32.5567L9.01165 32.3549L9.01014 32.3567L9.2502 32.5567ZM9.81799 32.4456L9.67822 32.7252L9.68317 32.7275L9.81799 32.4456ZM12.0398 32.3345L11.8292 32.1036L11.8258 32.1068L12.0398 32.3345ZM12.6199 25.1508L12.841 25.3719L12.8489 25.3634L12.6199 25.1508ZM13.4099 25.1508L13.1809 25.3634L13.1888 25.3719L13.1972 25.3798L13.4099 25.1508ZM12.8544 33.1122L13.0674 33.3409L13.0675 33.3407L12.8544 33.1122ZM11.04 33.4662C10.49 33.4662 9.99636 33.3388 9.55238 33.0872L9.24426 33.6309C9.78774 33.9389 10.3885 34.0912 11.04 34.0912V33.4662ZM9.55729 33.09C9.4639 33.0348 9.43926 32.9809 9.43926 32.9023H8.81428C8.81428 33.2188 8.97068 33.4693 9.23935 33.6281L9.55729 33.09ZM9.43926 32.9023C9.43926 32.8418 9.456 32.7979 9.49026 32.7568L9.01014 32.3567C8.87983 32.5131 8.81428 32.6995 8.81428 32.9023H9.43926ZM9.48875 32.7586C9.52001 32.7216 9.54803 32.7087 9.59581 32.7087V32.0838C9.36382 32.0838 9.16143 32.1779 9.01165 32.3549L9.48875 32.7586ZM9.59581 32.7087C9.63538 32.7087 9.6607 32.7164 9.67824 32.7251L9.95774 32.1661C9.84362 32.1091 9.72083 32.0838 9.59581 32.0838V32.7087ZM9.68317 32.7275C10.1002 32.927 10.5286 33.0297 10.9659 33.0297V32.4047C10.6297 32.4047 10.2929 32.3264 9.95282 32.1637L9.68317 32.7275ZM10.9659 33.0297C11.4735 33.0297 11.9134 32.882 12.2537 32.5623L11.8258 32.1068C11.6231 32.2973 11.347 32.4047 10.9659 32.4047V33.0297ZM12.2503 32.5655C12.6329 32.2166 12.7719 31.6165 12.7719 30.8904H12.147C12.147 31.5797 12.0062 31.9423 11.8292 32.1036L12.2503 32.5655ZM12.7719 30.8904V25.5458H12.147V30.8904H12.7719ZM12.7719 25.5458C12.7719 25.4692 12.7947 25.418 12.8409 25.3717L12.3989 24.9298C12.2312 25.0975 12.147 25.3096 12.147 25.5458H12.7719ZM12.8489 25.3634C12.8971 25.3115 12.946 25.2905 13.0149 25.2905V24.6655C12.7711 24.6655 12.5566 24.7597 12.3909 24.9381L12.8489 25.3634ZM13.0149 25.2905C13.0838 25.2905 13.1327 25.3115 13.1809 25.3634L13.6389 24.9381C13.4731 24.7597 13.2587 24.6655 13.0149 24.6655V25.2905ZM13.1972 25.3798C13.2492 25.428 13.2702 25.4769 13.2702 25.5458H13.8952C13.8952 25.302 13.801 25.0875 13.6225 24.9218L13.1972 25.3798ZM13.2702 25.5458V30.8163H13.8952V25.5458H13.2702ZM13.2702 30.8163C13.2702 31.8599 13.0333 32.5182 12.6414 32.8836L13.0675 33.3407C13.6466 32.801 13.8952 31.9287 13.8952 30.8163H13.2702ZM12.6415 32.8835C12.2293 33.2672 11.7038 33.4662 11.04 33.4662V34.0912C11.8409 34.0912 12.525 33.8458 13.0674 33.3409L12.6415 32.8835ZM16.9378 33.5565L17.1588 33.3356L16.9378 33.5565ZM16.9378 25.2125L17.1589 25.4336L17.1668 25.4251L16.9378 25.2125ZM23.1218 26.4468L22.8445 26.591L23.1218 26.4468ZM23.1218 29.113L22.8445 28.9688V28.9688L23.1218 29.113ZM17.9006 30.5201V30.2076H17.5881V30.5201H17.9006ZM17.7278 33.5565L17.515 33.3274L17.5068 33.3356L17.7278 33.5565ZM21.8011 28.9772L21.5884 28.7482L21.5857 28.7508L21.8011 28.9772ZM21.8011 26.5826L21.5857 26.809L21.5884 26.8116L21.8011 26.5826ZM17.9006 26.1012V25.7887H17.5881V26.1012H17.9006ZM17.9006 29.4586H17.5881V29.7711H17.9006V29.4586ZM17.3328 33.4045C17.2562 33.4045 17.205 33.3818 17.1588 33.3356L16.7169 33.7775C16.8846 33.9452 17.0967 34.0295 17.3328 34.0295V33.4045ZM17.1588 33.3356C17.1126 33.2893 17.0899 33.2381 17.0899 33.1615H16.4649C16.4649 33.3977 16.5491 33.6098 16.7169 33.7775L17.1588 33.3356ZM17.0899 33.1615V25.6075H16.4649V33.1615H17.0899ZM17.0899 25.6075C17.0899 25.5309 17.1126 25.4797 17.1588 25.4335L16.7169 24.9915C16.5491 25.1593 16.4649 25.3714 16.4649 25.6075H17.0899ZM17.1668 25.4251C17.215 25.3732 17.2639 25.3522 17.3328 25.3522V24.7272C17.089 24.7272 16.8746 24.8214 16.7088 24.9999L17.1668 25.4251ZM17.3328 25.3522H20.1471V24.7272H17.3328V25.3522ZM20.1471 25.3522C20.8968 25.3522 21.4791 25.4789 21.9132 25.7104L22.2073 25.1589C21.654 24.8638 20.9609 24.7272 20.1471 24.7272V25.3522ZM21.9132 25.7104C22.363 25.9503 22.6653 26.2462 22.8445 26.591L23.399 26.3027C23.1504 25.8245 22.745 25.4457 22.2073 25.1589L21.9132 25.7104ZM22.8445 26.591C23.0347 26.9566 23.1302 27.3513 23.1302 27.7799H23.7552C23.7552 27.2539 23.6368 26.7599 23.399 26.3027L22.8445 26.591ZM23.1302 27.7799C23.1302 28.2085 23.0347 28.6032 22.8445 28.9688L23.399 29.2571C23.6368 28.7998 23.7552 28.3058 23.7552 27.7799H23.1302ZM22.8445 28.9688C22.6653 29.3135 22.363 29.6095 21.9132 29.8494L22.2073 30.4008C22.745 30.114 23.1504 29.7353 23.399 29.2571L22.8445 28.9688ZM21.9132 29.8494C21.4791 30.0809 20.8968 30.2076 20.1471 30.2076V30.8326C20.9609 30.8326 21.654 30.696 22.2073 30.4008L21.9132 29.8494ZM20.1471 30.2076H17.9006V30.8326H20.1471V30.2076ZM17.5881 30.5201V33.1615H18.2131V30.5201H17.5881ZM17.5881 33.1615C17.5881 33.2305 17.5671 33.2793 17.5152 33.3275L17.9404 33.7855C18.1189 33.6198 18.2131 33.4053 18.2131 33.1615H17.5881ZM17.5068 33.3356C17.4606 33.3818 17.4094 33.4045 17.3328 33.4045V34.0295C17.5689 34.0295 17.781 33.9452 17.9488 33.7775L17.5068 33.3356ZM20.036 29.7711C20.8972 29.7711 21.5893 29.6099 22.0164 29.2036L21.5857 28.7508C21.3381 28.9863 20.8534 29.1461 20.036 29.1461V29.7711ZM22.0137 29.2062C22.4238 28.8253 22.632 28.3429 22.632 27.7799H22.007C22.007 28.1714 21.8695 28.4872 21.5884 28.7482L22.0137 29.2062ZM22.632 27.7799C22.632 27.2169 22.4238 26.7345 22.0137 26.3536L21.5884 26.8116C21.8695 27.0726 22.007 27.3883 22.007 27.7799H22.632ZM22.0164 26.3562C21.5893 25.9499 20.8972 25.7887 20.036 25.7887V26.4137C20.8534 26.4137 21.3381 26.5735 21.5857 26.809L22.0164 26.3562ZM20.036 25.7887H17.9006V26.4137H20.036V25.7887ZM17.5881 26.1012V29.4586H18.2131V26.1012H17.5881ZM17.9006 29.7711H20.036V29.1461H17.9006V29.7711ZM27.4898 33.2233L27.334 33.4942L27.3366 33.4956L27.4898 33.2233ZM25.9592 31.6557L25.6838 31.8034L25.6846 31.8048L25.9592 31.6557ZM25.9839 27.0393L26.2564 27.1922L25.9839 27.0393ZM27.5268 25.4717L27.3736 25.1993L27.3721 25.2002L27.5268 25.4717ZM31.3902 25.1508L31.2929 25.4477L31.2944 25.4482L31.3902 25.1508ZM32.785 25.805L32.6185 26.0694L32.6315 26.0776L32.6453 26.0845L32.785 25.805ZM32.9578 25.9778L32.6899 26.1385V26.1385L32.9578 25.9778ZM32.8838 26.6073L32.6626 26.3861L32.6534 26.3961L32.8838 26.6073ZM32.2542 26.6937L32.0943 26.9621L32.1042 26.968L32.1145 26.9732L32.2542 26.6937ZM31.094 26.1753L31.1832 25.8758L31.094 26.1753ZM28.1439 26.3974L28.2891 26.6742V26.6742L28.1439 26.3974ZM26.959 27.5577L26.6869 27.4041L26.686 27.4056L26.959 27.5577ZM26.9343 31.0879L26.6566 31.2312L26.6595 31.2366L26.9343 31.0879ZM28.0946 32.2852L27.9357 32.5543L27.941 32.5573L28.0946 32.2852ZM32.0568 32.1741L32.2059 32.4487L32.3692 32.36V32.1741H32.0568ZM32.0568 29.94H32.3692V29.6275H32.0568V29.94ZM32.9084 32.7912L32.6461 32.6215L32.6435 32.6256L32.9084 32.7912ZM32.5752 33.0875L32.4421 32.8047L32.4354 32.808L32.5752 33.0875ZM29.7486 33.4662C28.948 33.4662 28.249 33.2918 27.643 32.9509L27.3366 33.4956C28.0471 33.8953 28.854 34.0912 29.7486 34.0912V33.4662ZM27.6455 32.9524C27.0373 32.6026 26.5682 32.1222 26.2338 31.5065L25.6846 31.8048C26.0743 32.5222 26.6256 33.0869 27.334 33.4942L27.6455 32.9524ZM26.2345 31.5079C25.8996 30.8837 25.7286 30.1702 25.7286 29.3598H25.1036C25.1036 30.261 25.2946 31.0781 25.6838 31.8034L26.2345 31.5079ZM25.7286 29.3598C25.7286 28.5342 25.9073 27.8145 26.2564 27.1922L25.7113 26.8864C25.3034 27.6136 25.1036 28.441 25.1036 29.3598H25.7286ZM26.2564 27.1922C26.6082 26.5652 27.0825 26.0844 27.6815 25.7432L27.3721 25.2002C26.671 25.5996 26.1167 26.1639 25.7113 26.8864L26.2564 27.1922ZM27.68 25.7441C28.2888 25.4016 28.9639 25.2287 29.7115 25.2287V24.6038C28.8628 24.6038 28.0813 24.8012 27.3736 25.1993L27.68 25.7441ZM29.7115 25.2287C30.3291 25.2287 30.8544 25.3041 31.2929 25.4477L31.4875 24.8538C30.9715 24.6848 30.3777 24.6038 29.7115 24.6038V25.2287ZM31.2944 25.4482C31.7544 25.5963 32.1956 25.8031 32.6185 26.0694L32.9515 25.5405C32.4857 25.2473 31.9971 25.0179 31.486 24.8533L31.2944 25.4482ZM32.6453 26.0845C32.6453 26.0845 32.6463 26.085 32.648 26.0863C32.6499 26.0876 32.6528 26.09 32.6566 26.0938C32.6645 26.1017 32.6761 26.1155 32.6899 26.1385L33.2258 25.817C33.155 25.699 33.0577 25.5919 32.9248 25.5255L32.6453 26.0845ZM32.6899 26.1385C32.7092 26.1708 32.7194 26.2055 32.7194 26.2493H33.3444C33.3444 26.0957 33.3052 25.9493 33.2258 25.817L32.6899 26.1385ZM32.7194 26.2493C32.7194 26.3065 32.7028 26.3463 32.6628 26.3863L33.1047 26.8282C33.2622 26.6708 33.3444 26.4719 33.3444 26.2493H32.7194ZM32.6534 26.3961C32.6321 26.4194 32.5982 26.4429 32.5135 26.4429V27.0679C32.7414 27.0679 32.9544 26.9927 33.1141 26.8184L32.6534 26.3961ZM32.5135 26.4429C32.4723 26.4429 32.4336 26.434 32.394 26.4142L32.1145 26.9732C32.2394 27.0357 32.3736 27.0679 32.5135 27.0679V26.4429ZM32.4142 26.4252C32.0077 26.1831 31.5974 25.9992 31.1832 25.8758L31.0048 26.4748C31.3641 26.5818 31.7272 26.7435 32.0943 26.9621L32.4142 26.4252ZM31.1832 25.8758C30.7642 25.751 30.3142 25.69 29.835 25.69V26.3149C30.261 26.3149 30.6502 26.3691 31.0048 26.4748L31.1832 25.8758ZM29.835 25.69C29.1643 25.69 28.55 25.8316 27.9988 26.1207L28.2891 26.6742C28.7418 26.4367 29.2548 26.3149 29.835 26.3149V25.69ZM27.9988 26.1207C27.4417 26.413 27.0034 26.8434 26.6869 27.4041L27.2311 27.7113C27.4906 27.2517 27.8423 26.9086 28.2891 26.6742L27.9988 26.1207ZM26.686 27.4056C26.3753 27.9631 26.2268 28.6186 26.2268 29.3598H26.8518C26.8518 28.7021 26.9832 28.1562 27.232 27.7098L26.686 27.4056ZM26.2268 29.3598C26.2268 30.0456 26.3679 30.6717 26.6566 31.2312L27.212 30.9446C26.9741 30.4837 26.8518 29.9578 26.8518 29.3598H26.2268ZM26.6595 31.2366C26.9586 31.7896 27.386 32.2298 27.9358 32.5543L28.2534 32.0161C27.7992 31.748 27.4531 31.3901 27.2092 30.9392L26.6595 31.2366ZM27.941 32.5573C28.5058 32.8762 29.1614 33.0297 29.8967 33.0297V32.4047C29.2496 32.4047 28.7037 32.2702 28.2482 32.0131L27.941 32.5573ZM29.8967 33.0297C30.7212 33.0297 31.4927 32.8361 32.2059 32.4487L31.9076 31.8995C31.2878 32.2362 30.6192 32.4047 29.8967 32.4047V33.0297ZM32.3692 32.1741V29.94H31.7443V32.1741H32.3692ZM32.0568 29.6275H30.0201V30.2524H32.0568V29.6275ZM30.0201 29.6275C29.9629 29.6275 29.9232 29.6109 29.8831 29.5709L29.4412 30.0128C29.5987 30.1703 29.7975 30.2524 30.0201 30.2524V29.6275ZM29.8831 29.5709C29.8431 29.5308 29.8265 29.4911 29.8265 29.4339H29.2016C29.2016 29.6565 29.2837 29.8553 29.4412 30.0128L29.8831 29.5709ZM29.8265 29.4339C29.8265 29.3767 29.8431 29.3369 29.8831 29.2969L29.4412 28.855C29.2837 29.0124 29.2016 29.2113 29.2016 29.4339H29.8265ZM29.8831 29.2969C29.9232 29.2569 29.9629 29.2403 30.0201 29.2403V28.6153C29.7975 28.6153 29.5987 28.6975 29.4412 28.855L29.8831 29.2969ZM30.0201 29.2403H32.4517V28.6153H30.0201V29.2403ZM32.4517 29.2403C32.5344 29.2403 32.5945 29.2656 32.6505 29.3216L33.0924 28.8797C32.9179 28.7052 32.6982 28.6153 32.4517 28.6153V29.2403ZM32.6505 29.3216C32.7064 29.3775 32.7317 29.4376 32.7317 29.5203H33.3567C33.3567 29.2738 33.2668 29.0541 33.0924 28.8797L32.6505 29.3216ZM32.7317 29.5203V32.3222H33.3567V29.5203H32.7317ZM32.7317 32.3222C32.7317 32.4371 32.7026 32.5341 32.6461 32.6215L33.1708 32.961C33.2953 32.7686 33.3567 32.5529 33.3567 32.3222H32.7317ZM32.6435 32.6256C32.5928 32.7066 32.5275 32.7646 32.4421 32.8047L32.7082 33.3702C32.9027 33.2787 33.0595 33.1392 33.1734 32.9569L32.6435 32.6256ZM32.4354 32.808C31.5541 33.2487 30.6595 33.4662 29.7486 33.4662V34.0912C30.7632 34.0912 31.753 33.8479 32.7149 33.367L32.4354 32.808Z" fill="white"/>
<g filter="url(#filter1_d_1628_44389)">
<path d="M43.4974 15.9368H30.9979C29.0995 15.9368 27.5605 14.3979 27.5605 12.4995V0L43.4974 15.9368Z" fill="url(#paint2_linear_1628_44389)"/>
</g>
</g>
<defs>
<filter id="filter0_f_1628_44389" x="2.40406" y="17.1868" width="39.9985" height="25.3115" filterUnits="userSpaceOnUse" color-interpolation-filters="sRGB">
<feFlood flood-opacity="0" result="BackgroundImageFix"/>
<feBlend mode="normal" in="SourceGraphic" in2="BackgroundImageFix" result="shape"/>
<feGaussianBlur stdDeviation="3.04675" result="effect1_foregroundBlur_1628_44389"/>
</filter>
<filter id="filter1_d_1628_44389" x="23.9669" y="-3.74985" width="23.7492" height="23.7492" filterUnits="userSpaceOnUse" color-interpolation-filters="sRGB">
<feFlood flood-opacity="0" result="BackgroundImageFix"/>
<feColorMatrix in="SourceAlpha" type="matrix" values="0 0 0 0 0 0 0 0 0 0 0 0 0 0 0 0 0 0 127 0" result="hardAlpha"/>
<feOffset dx="0.312487" dy="0.156244"/>
<feGaussianBlur stdDeviation="1.95305"/>
<feColorMatrix type="matrix" values="0 0 0 0 0 0 0 0 0 0 0 0 0 0 0 0 0 0 0.33 0"/>
<feBlend mode="normal" in2="BackgroundImageFix" result="effect1_dropShadow_1628_44389"/>
<feBlend mode="normal" in="SourceGraphic" in2="effect1_dropShadow_1628_44389" result="shape"/>
</filter>
<linearGradient id="paint0_linear_1628_44389" x1="22.2457" y1="0" x2="22.2457" y2="48.123" gradientUnits="userSpaceOnUse">
<stop stop-color="#FF7979"/>
<stop offset="1" stop-color="#E85555"/>
</linearGradient>
<linearGradient id="paint1_linear_1628_44389" x1="22.2477" y1="0" x2="22.2477" y2="48.123" gradientUnits="userSpaceOnUse">
<stop stop-color="#ED81FF"/>
<stop offset="1" stop-color="#DC5DD7"/>
</linearGradient>
<linearGradient id="paint2_linear_1628_44389" x1="31.076" y1="-4.9998" x2="35.529" y2="15.9368" gradientUnits="userSpaceOnUse">
<stop stop-color="#F171BE"/>
<stop offset="1" stop-color="#D823D1"/>
</linearGradient>
</defs>
</svg>
