<svg width="43" height="49" viewBox="0 0 43 49" fill="none" xmlns="http://www.w3.org/2000/svg">
<mask id="mask0_1628_44390" style="mask-type:alpha" maskUnits="userSpaceOnUse" x="0" y="0" width="43" height="49">
<path d="M39.5555 48.123H3.93199C2.03359 48.123 0.494629 46.5841 0.494629 44.6857V3.43736C0.494629 1.53896 2.03359 0 3.93199 0H27.056L42.9929 15.9368V44.6857C42.9929 46.5841 41.4539 48.123 39.5555 48.123Z" fill="url(#paint0_linear_1628_44390)"/>
</mask>
<g mask="url(#mask0_1628_44390)">
<path d="M39.556 48.123H3.93248C2.03408 48.123 0.495117 46.5841 0.495117 44.6857V3.43736C0.495117 1.53896 2.03408 0 3.93248 0H27.0565L42.9934 15.9368V44.6857C42.9934 46.5841 41.4544 48.123 39.556 48.123Z" fill="url(#paint1_linear_1628_44390)"/>
<g opacity="0.26" filter="url(#filter0_f_1628_44390)">
<rect x="7.99414" y="23.2803" width="27.8114" height="13.1245" fill="#E66000" style="mix-blend-mode:darken"/>
</g>
<path d="M16.402 33.717C16.2374 33.717 16.1016 33.6635 15.9947 33.5565C15.8959 33.4496 15.8465 33.3179 15.8465 33.1615C15.8465 33.0957 15.8671 33.0134 15.9083 32.9147L19.0558 25.484C19.1216 25.3359 19.2121 25.2166 19.3273 25.1261C19.4508 25.0273 19.5989 24.978 19.7717 24.978H19.8951C20.0679 24.978 20.2119 25.0273 20.3271 25.1261C20.4506 25.2166 20.5452 25.3359 20.611 25.484L23.7586 32.9147C23.7997 33.0134 23.8203 33.0957 23.8203 33.1615C23.8203 33.3179 23.7668 33.4496 23.6598 33.5565C23.5611 33.6635 23.4294 33.717 23.2648 33.717C23.1496 33.717 23.0427 33.6882 22.9439 33.6306C22.8534 33.5648 22.7834 33.4784 22.7341 33.3714L21.9318 31.4458H17.7351L16.9327 33.3714C16.8834 33.4784 16.8093 33.5648 16.7106 33.6306C16.6201 33.6882 16.5172 33.717 16.402 33.717ZM18.1671 30.4213H21.4997L19.8334 26.4098L18.1671 30.4213ZM27.0554 33.717C26.899 33.717 26.7674 33.6635 26.6604 33.5565C26.5534 33.4496 26.4999 33.3179 26.4999 33.1615V25.5458C26.4999 25.3894 26.5534 25.2578 26.6604 25.1508C26.7674 25.0356 26.899 24.978 27.0554 24.978C27.2117 24.978 27.3434 25.0356 27.4503 25.1508C27.5656 25.2578 27.6232 25.3894 27.6232 25.5458V33.1615C27.6232 33.3179 27.5656 33.4496 27.4503 33.5565C27.3434 33.6635 27.2117 33.717 27.0554 33.717Z" fill="white"/>
<path d="M15.9947 33.5565L15.7649 33.7687L15.7737 33.7775L15.9947 33.5565ZM15.9083 32.9147L15.6205 32.7928L15.6198 32.7945L15.9083 32.9147ZM19.0558 25.484L18.7702 25.3571L18.768 25.3622L19.0558 25.484ZM19.3273 25.1261L19.5204 25.3718L19.5225 25.3701L19.3273 25.1261ZM20.3271 25.1261L20.1238 25.3633L20.1328 25.3711L20.1423 25.3781L20.3271 25.1261ZM20.611 25.484L20.8988 25.3621L20.8966 25.3571L20.611 25.484ZM23.7586 32.9147L24.047 32.7945L24.0463 32.7928L23.7586 32.9147ZM23.6598 33.5565L23.4387 33.3354L23.4302 33.3446L23.6598 33.5565ZM22.9439 33.6306L22.7601 33.8833L22.7728 33.8926L22.7865 33.9005L22.9439 33.6306ZM22.7341 33.3714L22.4454 33.4917L22.4503 33.5023L22.7341 33.3714ZM21.9318 31.4458L22.2202 31.3256L22.1401 31.1333H21.9318V31.4458ZM17.7351 31.4458V31.1333H17.5267L17.4466 31.3256L17.7351 31.4458ZM16.9327 33.3714L17.2167 33.5024L17.2212 33.4916L16.9327 33.3714ZM16.7106 33.6306L16.8784 33.8943L16.8839 33.8906L16.7106 33.6306ZM18.1671 30.4213L17.8785 30.3015L17.6989 30.7338H18.1671V30.4213ZM21.4997 30.4213V30.7338H21.9679L21.7883 30.3015L21.4997 30.4213ZM19.8334 26.4098L20.122 26.2899L19.8334 25.5952L19.5448 26.2899L19.8334 26.4098ZM16.402 33.4045C16.3123 33.4045 16.2586 33.3785 16.2156 33.3356L15.7737 33.7775C15.9447 33.9485 16.1626 34.0295 16.402 34.0295V33.4045ZM16.2243 33.3446C16.183 33.2998 16.159 33.2457 16.159 33.1615H15.5341C15.5341 33.3901 15.6089 33.5993 15.765 33.7685L16.2243 33.3446ZM16.159 33.1615C16.159 33.1548 16.1627 33.1164 16.1967 33.0349L15.6198 32.7945C15.5715 32.9104 15.5341 33.0367 15.5341 33.1615H16.159ZM16.196 33.0366L19.3435 25.6059L18.768 25.3622L15.6205 32.7928L16.196 33.0366ZM19.3413 25.611C19.3887 25.5043 19.4494 25.4276 19.5204 25.3718L19.1343 24.8804C18.9749 25.0056 18.8545 25.1675 18.7702 25.3571L19.3413 25.611ZM19.5225 25.3701C19.5853 25.3199 19.6628 25.2905 19.7717 25.2905V24.6655C19.535 24.6655 19.3162 24.7348 19.1321 24.8821L19.5225 25.3701ZM19.7717 25.2905H19.8951V24.6655H19.7717V25.2905ZM19.8951 25.2905C20.0044 25.2905 20.073 25.3199 20.1238 25.3633L20.5305 24.8888C20.3508 24.7348 20.1315 24.6655 19.8951 24.6655V25.2905ZM20.1423 25.3781C20.2193 25.4345 20.2804 25.5096 20.3255 25.611L20.8966 25.3571C20.81 25.1623 20.6819 24.9987 20.5119 24.8741L20.1423 25.3781ZM20.3233 25.6059L23.4708 33.0366L24.0463 32.7928L20.8988 25.3622L20.3233 25.6059ZM23.4701 33.0349C23.5041 33.1164 23.5078 33.1548 23.5078 33.1615H24.1328C24.1328 33.0367 24.0953 32.9104 24.047 32.7945L23.4701 33.0349ZM23.5078 33.1615C23.5078 33.2381 23.4851 33.2893 23.4389 33.3356L23.8808 33.7775C24.0485 33.6098 24.1328 33.3977 24.1328 33.1615H23.5078ZM23.4302 33.3446C23.3986 33.3788 23.3548 33.4045 23.2648 33.4045V34.0295C23.5041 34.0295 23.7235 33.9482 23.8894 33.7685L23.4302 33.3446ZM23.2648 33.4045C23.2045 33.4045 23.1519 33.3902 23.1014 33.3607L22.7865 33.9005C22.9334 33.9862 23.0948 34.0295 23.2648 34.0295V33.4045ZM23.1277 33.3779C23.0826 33.3451 23.046 33.3016 23.0178 33.2404L22.4503 33.5023C22.5209 33.6551 22.6241 33.7844 22.7601 33.8833L23.1277 33.3779ZM23.0225 33.2512L22.2202 31.3256L21.6433 31.566L22.4456 33.4916L23.0225 33.2512ZM21.9318 31.1333H17.7351V31.7583H21.9318V31.1333ZM17.4466 31.3256L16.6443 33.2512L17.2212 33.4916L18.0235 31.566L17.4466 31.3256ZM16.649 33.2404C16.624 33.2946 16.5883 33.3365 16.5372 33.3706L16.8839 33.8906C17.0303 33.793 17.1427 33.6621 17.2165 33.5023L16.649 33.2404ZM16.5428 33.367C16.5061 33.3903 16.4623 33.4045 16.402 33.4045V34.0295C16.572 34.0295 16.734 33.9861 16.8783 33.8942L16.5428 33.367ZM18.1671 30.7338H21.4997V30.1089H18.1671V30.7338ZM21.7883 30.3015L20.122 26.2899L19.5448 26.5297L21.2112 30.5412L21.7883 30.3015ZM19.5448 26.2899L17.8785 30.3015L18.4557 30.5412L20.122 26.5297L19.5448 26.2899ZM26.6604 33.5565L26.8813 33.3356L26.6604 33.5565ZM26.6604 25.1508L26.8815 25.3719L26.8894 25.3634L26.6604 25.1508ZM27.4503 25.1508L27.2214 25.3634L27.2292 25.3719L27.2377 25.3798L27.4503 25.1508ZM27.4503 33.5565L27.2376 33.3274L27.2294 33.3356L27.4503 33.5565ZM27.0554 33.4045C26.9788 33.4045 26.9276 33.3818 26.8813 33.3356L26.4394 33.7775C26.6072 33.9452 26.8192 34.0295 27.0554 34.0295V33.4045ZM26.8813 33.3356C26.8351 33.2893 26.8124 33.2381 26.8124 33.1615H26.1874C26.1874 33.3977 26.2717 33.6098 26.4394 33.7775L26.8813 33.3356ZM26.8124 33.1615V25.5458H26.1874V33.1615H26.8124ZM26.8124 25.5458C26.8124 25.4692 26.8351 25.418 26.8813 25.3717L26.4394 24.9298C26.2717 25.0975 26.1874 25.3096 26.1874 25.5458H26.8124ZM26.8894 25.3634C26.9376 25.3115 26.9865 25.2905 27.0554 25.2905V24.6655C26.8116 24.6655 26.5971 24.7597 26.4314 24.9381L26.8894 25.3634ZM27.0554 25.2905C27.1243 25.2905 27.1731 25.3115 27.2214 25.3634L27.6793 24.9381C27.5136 24.7597 27.2992 24.6655 27.0554 24.6655V25.2905ZM27.2377 25.3798C27.2896 25.428 27.3107 25.4769 27.3107 25.5458H27.9356C27.9356 25.302 27.8415 25.0875 27.663 24.9218L27.2377 25.3798ZM27.3107 25.5458V33.1615H27.9356V25.5458H27.3107ZM27.3107 33.1615C27.3107 33.2305 27.2896 33.2793 27.2377 33.3275L27.663 33.7855C27.8415 33.6198 27.9356 33.4053 27.9356 33.1615H27.3107ZM27.2294 33.3356C27.1832 33.3818 27.1319 33.4045 27.0554 33.4045V34.0295C27.2915 34.0295 27.5036 33.9452 27.6713 33.7775L27.2294 33.3356Z" fill="white"/>
<g filter="url(#filter1_d_1628_44390)">
<path d="M42.994 15.9368H30.4945C28.5961 15.9368 27.0571 14.3979 27.0571 12.4995V0L42.994 15.9368Z" fill="url(#paint2_linear_1628_44390)"/>
</g>
</g>
<defs>
<filter id="filter0_f_1628_44390" x="1.90064" y="17.1868" width="39.9985" height="25.3115" filterUnits="userSpaceOnUse" color-interpolation-filters="sRGB">
<feFlood flood-opacity="0" result="BackgroundImageFix"/>
<feBlend mode="normal" in="SourceGraphic" in2="BackgroundImageFix" result="shape"/>
<feGaussianBlur stdDeviation="3.04675" result="effect1_foregroundBlur_1628_44390"/>
</filter>
<filter id="filter1_d_1628_44390" x="23.4635" y="-3.74985" width="23.7492" height="23.7492" filterUnits="userSpaceOnUse" color-interpolation-filters="sRGB">
<feFlood flood-opacity="0" result="BackgroundImageFix"/>
<feColorMatrix in="SourceAlpha" type="matrix" values="0 0 0 0 0 0 0 0 0 0 0 0 0 0 0 0 0 0 127 0" result="hardAlpha"/>
<feOffset dx="0.312487" dy="0.156244"/>
<feGaussianBlur stdDeviation="1.95305"/>
<feColorMatrix type="matrix" values="0 0 0 0 0 0 0 0 0 0 0 0 0 0 0 0 0 0 0.33 0"/>
<feBlend mode="normal" in2="BackgroundImageFix" result="effect1_dropShadow_1628_44390"/>
<feBlend mode="normal" in="SourceGraphic" in2="effect1_dropShadow_1628_44390" result="shape"/>
</filter>
<linearGradient id="paint0_linear_1628_44390" x1="21.7438" y1="0" x2="21.7438" y2="48.123" gradientUnits="userSpaceOnUse">
<stop stop-color="#FF7979"/>
<stop offset="1" stop-color="#E85555"/>
</linearGradient>
<linearGradient id="paint1_linear_1628_44390" x1="21.7442" y1="0" x2="21.7442" y2="48.123" gradientUnits="userSpaceOnUse">
<stop stop-color="#FFA216"/>
<stop offset="1" stop-color="#EF8100"/>
</linearGradient>
<linearGradient id="paint2_linear_1628_44390" x1="35.0256" y1="0" x2="35.0256" y2="15.9368" gradientUnits="userSpaceOnUse">
<stop stop-color="#FF7A1B"/>
<stop offset="1" stop-color="#E86100"/>
</linearGradient>
</defs>
</svg>
