<svg width="43" height="49" viewBox="0 0 43 49" fill="none" xmlns="http://www.w3.org/2000/svg">
<mask id="mask0_1628_44386" style="mask-type:alpha" maskUnits="userSpaceOnUse" x="0" y="0" width="43" height="49">
<path d="M39.0609 48.123H3.43736C1.53896 48.123 0 46.5841 0 44.6857V3.43736C0 1.53896 1.53896 0 3.43736 0H26.5614L42.4983 15.9368V44.6857C42.4983 46.5841 40.9593 48.123 39.0609 48.123Z" fill="url(#paint0_linear_1628_44386)"/>
</mask>
<g mask="url(#mask0_1628_44386)">
<path d="M39.0609 48.123H3.43736C1.53896 48.123 0 46.5841 0 44.6857V3.43736C0 1.53896 1.53896 0 3.43736 0H26.5614L42.4983 15.9368V44.6857C42.4983 46.5841 40.9593 48.123 39.0609 48.123Z" fill="url(#paint1_linear_1628_44386)"/>
<path d="M9.72051 33.717C9.56417 33.717 9.43251 33.6635 9.32553 33.5565C9.21856 33.4496 9.16507 33.3179 9.16507 33.1615V25.6075C9.16507 25.4511 9.21856 25.3195 9.32553 25.2125C9.43251 25.0973 9.56417 25.0397 9.72051 25.0397H12.5348C13.3165 25.0397 13.9542 25.1713 14.448 25.4347C14.9417 25.698 15.2955 26.0354 15.5095 26.4468C15.7234 26.8583 15.8304 27.3026 15.8304 27.7799C15.8304 28.2572 15.7234 28.7015 15.5095 29.113C15.2955 29.5244 14.9417 29.8618 14.448 30.1251C13.9542 30.3884 13.3165 30.5201 12.5348 30.5201H10.2883V33.1615C10.2883 33.3179 10.2307 33.4496 10.1155 33.5565C10.0085 33.6635 9.87686 33.717 9.72051 33.717ZM12.4237 29.4586C13.263 29.4586 13.8514 29.2981 14.1888 28.9772C14.5344 28.6563 14.7072 28.2572 14.7072 27.7799C14.7072 27.3026 14.5344 26.9035 14.1888 26.5826C13.8514 26.2617 13.263 26.1012 12.4237 26.1012H10.2883V29.4586H12.4237ZM18.8777 33.6553C18.7213 33.6553 18.5896 33.6018 18.4827 33.4948C18.3757 33.3878 18.3222 33.2562 18.3222 33.0998V25.6075C18.3222 25.4511 18.3757 25.3195 18.4827 25.2125C18.5896 25.0973 18.7213 25.0397 18.8777 25.0397H21.3587C22.2967 25.0397 23.0908 25.2495 23.7409 25.6692C24.3992 26.0806 24.8929 26.6155 25.2221 27.2738C25.5512 27.9321 25.7158 28.6233 25.7158 29.3475C25.7158 30.0716 25.5512 30.7628 25.2221 31.4211C24.8929 32.0795 24.3992 32.6184 23.7409 33.0381C23.0908 33.4496 22.2967 33.6553 21.3587 33.6553H18.8777ZM21.2229 32.6061C21.8976 32.6061 22.4901 32.4703 23.0003 32.1988C23.5105 31.919 23.9055 31.5363 24.1853 31.0508C24.465 30.5571 24.6049 29.9893 24.6049 29.3475C24.6049 28.7056 24.465 28.142 24.1853 27.6565C23.9055 27.1627 23.5105 26.7801 23.0003 26.5085C22.4901 26.2288 21.8976 26.0889 21.2229 26.0889H19.4454V32.6061H21.2229ZM29.0112 33.717C28.8548 33.717 28.7232 33.6635 28.6162 33.5565C28.5092 33.4496 28.4557 33.3179 28.4557 33.1615V25.6075C28.4557 25.4511 28.5092 25.3195 28.6162 25.2125C28.7232 25.0973 28.8548 25.0397 29.0112 25.0397H33.8127C33.9608 25.0397 34.0842 25.0932 34.183 25.2002C34.29 25.2989 34.3435 25.4223 34.3435 25.5704C34.3435 25.7186 34.29 25.842 34.183 25.9407C34.0842 26.0395 33.9608 26.0889 33.8127 26.0889H29.579V28.8167H33.3807C33.5288 28.8167 33.6522 28.8702 33.751 28.9772C33.858 29.0759 33.9114 29.1994 33.9114 29.3475C33.9114 29.4956 33.858 29.619 33.751 29.7178C33.6522 29.8165 33.5288 29.8659 33.3807 29.8659H29.579V33.1615C29.579 33.3179 29.5214 33.4496 29.4062 33.5565C29.2992 33.6635 29.1675 33.717 29.0112 33.717Z" fill="white"/>
<path d="M9.32553 33.5565L9.54649 33.3356H9.54649L9.32553 33.5565ZM9.32553 25.2125L9.54664 25.4336L9.55452 25.4251L9.32553 25.2125ZM15.5095 26.4468L15.2323 26.591L15.5095 26.4468ZM15.5095 29.113L15.2323 28.9688L15.2323 28.9688L15.5095 29.113ZM10.2883 30.5201V30.2076H9.97582V30.5201H10.2883ZM10.1155 33.5565L9.90272 33.3274L9.89454 33.3356L10.1155 33.5565ZM14.1888 28.9772L13.9761 28.7482L13.9734 28.7508L14.1888 28.9772ZM14.1888 26.5826L13.9734 26.809L13.9761 26.8116L14.1888 26.5826ZM10.2883 26.1012V25.7887H9.97582V26.1012H10.2883ZM10.2883 29.4586H9.97582V29.7711H10.2883V29.4586ZM9.72051 33.4045C9.64394 33.4045 9.59271 33.3818 9.54649 33.3356L9.10457 33.7775C9.2723 33.9452 9.48439 34.0295 9.72051 34.0295V33.4045ZM9.54649 33.3356C9.50028 33.2893 9.47756 33.2381 9.47756 33.1615H8.85258C8.85258 33.3977 8.93684 33.6098 9.10457 33.7775L9.54649 33.3356ZM9.47756 33.1615V25.6075H8.85258V33.1615H9.47756ZM9.47756 25.6075C9.47756 25.5309 9.50028 25.4797 9.54649 25.4335L9.10457 24.9915C8.93684 25.1593 8.85258 25.3714 8.85258 25.6075H9.47756ZM9.55452 25.4251C9.60274 25.3732 9.6516 25.3522 9.72051 25.3522V24.7272C9.47673 24.7272 9.26227 24.8214 9.09654 24.9999L9.55452 25.4251ZM9.72051 25.3522H12.5348V24.7272H9.72051V25.3522ZM12.5348 25.3522C13.2845 25.3522 13.8668 25.4789 14.3009 25.7104L14.595 25.1589C14.0417 24.8638 13.3486 24.7272 12.5348 24.7272V25.3522ZM14.3009 25.7104C14.7507 25.9503 15.053 26.2462 15.2323 26.591L15.7867 26.3027C15.5381 25.8245 15.1328 25.4457 14.595 25.1589L14.3009 25.7104ZM15.2323 26.591C15.4224 26.9566 15.5179 27.3513 15.5179 27.7799H16.1429C16.1429 27.2539 16.0245 26.7599 15.7867 26.3027L15.2323 26.591ZM15.5179 27.7799C15.5179 28.2085 15.4224 28.6032 15.2323 28.9688L15.7867 29.2571C16.0245 28.7998 16.1429 28.3058 16.1429 27.7799H15.5179ZM15.2323 28.9688C15.053 29.3135 14.7507 29.6095 14.3009 29.8494L14.595 30.4008C15.1328 30.114 15.5381 29.7353 15.7867 29.2571L15.2323 28.9688ZM14.3009 29.8494C13.8668 30.0809 13.2845 30.2076 12.5348 30.2076V30.8326C13.3486 30.8326 14.0417 30.696 14.595 30.4008L14.3009 29.8494ZM12.5348 30.2076H10.2883V30.8326H12.5348V30.2076ZM9.97582 30.5201V33.1615H10.6008V30.5201H9.97582ZM9.97582 33.1615C9.97582 33.2305 9.9548 33.2793 9.90287 33.3275L10.3281 33.7855C10.5066 33.6198 10.6008 33.4053 10.6008 33.1615H9.97582ZM9.89454 33.3356C9.84832 33.3818 9.79708 33.4045 9.72051 33.4045V34.0295C9.95664 34.0295 10.1687 33.9452 10.3365 33.7775L9.89454 33.3356ZM12.4237 29.7711C13.2849 29.7711 13.977 29.6099 14.4041 29.2036L13.9734 28.7508C13.7258 28.9863 13.2412 29.1461 12.4237 29.1461V29.7711ZM14.4014 29.2062C14.8115 28.8253 15.0197 28.3429 15.0197 27.7799H14.3947C14.3947 28.1714 14.2572 28.4872 13.9761 28.7482L14.4014 29.2062ZM15.0197 27.7799C15.0197 27.2169 14.8115 26.7345 14.4014 26.3536L13.9761 26.8116C14.2572 27.0726 14.3947 27.3883 14.3947 27.7799H15.0197ZM14.4041 26.3562C13.977 25.9499 13.2849 25.7887 12.4237 25.7887V26.4137C13.2412 26.4137 13.7258 26.5735 13.9734 26.809L14.4041 26.3562ZM12.4237 25.7887H10.2883V26.4137H12.4237V25.7887ZM9.97582 26.1012V29.4586H10.6008V26.1012H9.97582ZM10.2883 29.7711H12.4237V29.1461H10.2883V29.7711ZM18.4827 33.4948L18.7036 33.2738L18.4827 33.4948ZM18.4827 25.2125L18.7038 25.4336L18.7117 25.4251L18.4827 25.2125ZM23.7409 25.6692L23.5714 25.9318L23.5753 25.9342L23.7409 25.6692ZM25.2221 27.2738L24.9426 27.4136L25.2221 27.2738ZM25.2221 31.4211L24.9426 31.2814L25.2221 31.4211ZM23.7409 33.0381L23.908 33.3022L23.9089 33.3016L23.7409 33.0381ZM23.0003 32.1988L23.1471 32.4746L23.1506 32.4728L23.0003 32.1988ZM24.1853 31.0508L24.456 31.2069L24.4571 31.2049L24.1853 31.0508ZM24.1853 27.6565L23.9134 27.8105L23.9145 27.8125L24.1853 27.6565ZM23.0003 26.5085L22.85 26.7825L22.8535 26.7844L23.0003 26.5085ZM19.4454 26.0889V25.7764H19.133V26.0889H19.4454ZM19.4454 32.6061H19.133V32.9186H19.4454V32.6061ZM18.8777 33.3428C18.8011 33.3428 18.7499 33.3201 18.7036 33.2738L18.2617 33.7158C18.4294 33.8835 18.6415 33.9678 18.8777 33.9678V33.3428ZM18.7036 33.2738C18.6574 33.2276 18.6347 33.1764 18.6347 33.0998H18.0097C18.0097 33.336 18.094 33.548 18.2617 33.7158L18.7036 33.2738ZM18.6347 33.0998V25.6075H18.0097V33.0998H18.6347ZM18.6347 25.6075C18.6347 25.5309 18.6574 25.4797 18.7036 25.4335L18.2617 24.9915C18.094 25.1593 18.0097 25.3714 18.0097 25.6075H18.6347ZM18.7117 25.4251C18.7599 25.3732 18.8087 25.3522 18.8777 25.3522V24.7272C18.6339 24.7272 18.4194 24.8214 18.2537 24.9999L18.7117 25.4251ZM18.8777 25.3522H21.3587V24.7272H18.8777V25.3522ZM21.3587 25.3522C22.2495 25.3522 22.9817 25.551 23.5714 25.9317L23.9104 25.4067C23.2 24.948 22.344 24.7272 21.3587 24.7272V25.3522ZM23.5753 25.9342C24.1876 26.3169 24.6406 26.8096 24.9426 27.4136L25.5016 27.1341C25.1453 26.4215 24.6108 25.8444 23.9065 25.4042L23.5753 25.9342ZM24.9426 27.4136C25.2504 28.0292 25.4033 28.6727 25.4033 29.3475H26.0283C26.0283 28.574 25.8521 27.835 25.5016 27.1341L24.9426 27.4136ZM25.4033 29.3475C25.4033 30.0223 25.2504 30.6657 24.9426 31.2814L25.5016 31.5609C25.8521 30.8599 26.0283 30.1209 26.0283 29.3475H25.4033ZM24.9426 31.2814C24.6403 31.886 24.1866 32.3834 23.5729 32.7746L23.9089 33.3016C24.6119 32.8535 25.1456 32.2729 25.5016 31.5609L24.9426 31.2814ZM23.5738 32.7741C22.9837 33.1475 22.2506 33.3428 21.3587 33.3428V33.9678C22.3429 33.9678 23.198 33.7516 23.908 33.3022L23.5738 32.7741ZM21.3587 33.3428H18.8777V33.9678H21.3587V33.3428ZM21.2229 32.9186C21.9402 32.9186 22.5847 32.774 23.1471 32.4746L22.8535 31.9229C22.3955 32.1667 21.855 32.2936 21.2229 32.2936V32.9186ZM23.1506 32.4728C23.7089 32.1666 24.1465 31.744 24.456 31.2069L23.9145 30.8948C23.6645 31.3287 23.312 31.6714 22.85 31.9248L23.1506 32.4728ZM24.4571 31.2049C24.7669 30.6583 24.9174 30.0361 24.9174 29.3475H24.2924C24.2924 29.9425 24.1632 30.4559 23.9134 30.8968L24.4571 31.2049ZM24.9174 29.3475C24.9174 28.659 24.7669 28.0399 24.456 27.5004L23.9145 27.8125C24.1632 28.244 24.2924 28.7523 24.2924 29.3475H24.9174ZM24.4571 27.5024C24.1475 26.956 23.7087 26.5316 23.1471 26.2327L22.8535 26.7844C23.3123 27.0286 23.6634 27.3694 23.9134 27.8105L24.4571 27.5024ZM23.1506 26.2345C22.5874 25.9257 21.9417 25.7764 21.2229 25.7764V26.4014C21.8536 26.4014 22.3928 26.5318 22.85 26.7825L23.1506 26.2345ZM21.2229 25.7764H19.4454V26.4014H21.2229V25.7764ZM19.133 26.0889V32.6061H19.7579V26.0889H19.133ZM19.4454 32.9186H21.2229V32.2936H19.4454V32.9186ZM28.6162 33.5565L28.8372 33.3356L28.6162 33.5565ZM28.6162 25.2125L28.8373 25.4336L28.8452 25.4251L28.6162 25.2125ZM34.183 25.2002L33.9534 25.4121L33.9619 25.4213L33.971 25.4298L34.183 25.2002ZM34.183 25.9407L33.9709 25.7109L33.962 25.7198L34.183 25.9407ZM29.579 26.0889V25.7764H29.2665V26.0889H29.579ZM29.579 28.8167H29.2665V29.1292H29.579V28.8167ZM33.751 28.9772L33.5214 29.1891L33.5298 29.1983L33.539 29.2068L33.751 28.9772ZM33.751 29.7178L33.5389 29.488L33.53 29.4968L33.751 29.7178ZM29.579 29.8659V29.5534H29.2665V29.8659H29.579ZM29.4062 33.5565L29.1934 33.3274L29.1852 33.3356L29.4062 33.5565ZM29.0112 33.4045C28.9346 33.4045 28.8834 33.3818 28.8372 33.3356L28.3952 33.7775C28.563 33.9452 28.775 34.0295 29.0112 34.0295V33.4045ZM28.8372 33.3356C28.7909 33.2893 28.7682 33.2381 28.7682 33.1615H28.1432C28.1432 33.3977 28.2275 33.6098 28.3952 33.7775L28.8372 33.3356ZM28.7682 33.1615V25.6075H28.1432V33.1615H28.7682ZM28.7682 25.6075C28.7682 25.5309 28.7909 25.4797 28.8372 25.4335L28.3952 24.9915C28.2275 25.1593 28.1432 25.3714 28.1432 25.6075H28.7682ZM28.8452 25.4251C28.8934 25.3732 28.9423 25.3522 29.0112 25.3522V24.7272C28.7674 24.7272 28.5529 24.8214 28.3872 24.9999L28.8452 25.4251ZM29.0112 25.3522H33.8127V24.7272H29.0112V25.3522ZM33.8127 25.3522C33.8753 25.3522 33.9149 25.3705 33.9534 25.4121L34.4126 24.9882C34.2535 24.8159 34.0463 24.7272 33.8127 24.7272V25.3522ZM33.971 25.4298C34.0127 25.4682 34.031 25.5078 34.031 25.5704H34.6559C34.6559 25.3368 34.5673 25.1296 34.3949 24.9705L33.971 25.4298ZM34.031 25.5704C34.031 25.6331 34.0127 25.6727 33.971 25.7111L34.3949 26.1704C34.5673 26.0113 34.6559 25.8041 34.6559 25.5704H34.031ZM33.962 25.7198C33.9257 25.7561 33.8835 25.7764 33.8127 25.7764V26.4014C34.0381 26.4014 34.2428 26.3229 34.404 26.1617L33.962 25.7198ZM33.8127 25.7764H29.579V26.4014H33.8127V25.7764ZM29.2665 26.0889V28.8167H29.8914V26.0889H29.2665ZM29.579 29.1292H33.3807V28.5042H29.579V29.1292ZM33.3807 29.1292C33.4433 29.1292 33.4829 29.1475 33.5214 29.1891L33.9806 28.7652C33.8215 28.5929 33.6143 28.5042 33.3807 28.5042V29.1292ZM33.539 29.2068C33.5807 29.2452 33.599 29.2848 33.599 29.3475H34.2239C34.2239 29.1139 34.1353 28.9066 33.9629 28.7476L33.539 29.2068ZM33.599 29.3475C33.599 29.4101 33.5807 29.4497 33.539 29.4882L33.9629 29.9474C34.1353 29.7883 34.2239 29.5811 34.2239 29.3475H33.599ZM33.53 29.4968C33.4937 29.5331 33.4515 29.5534 33.3807 29.5534V30.1784C33.6061 30.1784 33.8108 30.0999 33.9719 29.9387L33.53 29.4968ZM33.3807 29.5534H29.579V30.1784H33.3807V29.5534ZM29.2665 29.8659V33.1615H29.8914V29.8659H29.2665ZM29.2665 33.1615C29.2665 33.2305 29.2455 33.2793 29.1935 33.3275L29.6188 33.7855C29.7973 33.6198 29.8914 33.4053 29.8914 33.1615H29.2665ZM29.1852 33.3356C29.139 33.3818 29.0877 33.4045 29.0112 33.4045V34.0295C29.2473 34.0295 29.4594 33.9452 29.6271 33.7775L29.1852 33.3356Z" fill="white"/>
<g filter="url(#filter0_d_1628_44386)">
<path d="M42.4989 15.9368H29.9994C28.101 15.9368 26.562 14.3979 26.562 12.4995V0L42.4989 15.9368Z" fill="url(#paint2_linear_1628_44386)"/>
</g>
</g>
<defs>
<filter id="filter0_d_1628_44386" x="22.9684" y="-3.74985" width="23.7492" height="23.7492" filterUnits="userSpaceOnUse" color-interpolation-filters="sRGB">
<feFlood flood-opacity="0" result="BackgroundImageFix"/>
<feColorMatrix in="SourceAlpha" type="matrix" values="0 0 0 0 0 0 0 0 0 0 0 0 0 0 0 0 0 0 127 0" result="hardAlpha"/>
<feOffset dx="0.312487" dy="0.156244"/>
<feGaussianBlur stdDeviation="1.95305"/>
<feColorMatrix type="matrix" values="0 0 0 0 0 0 0 0 0 0 0 0 0 0 0 0 0 0 0.33 0"/>
<feBlend mode="normal" in2="BackgroundImageFix" result="effect1_dropShadow_1628_44386"/>
<feBlend mode="normal" in="SourceGraphic" in2="effect1_dropShadow_1628_44386" result="shape"/>
</filter>
<linearGradient id="paint0_linear_1628_44386" x1="21.2491" y1="0" x2="21.2491" y2="48.123" gradientUnits="userSpaceOnUse">
<stop stop-color="#FF7979"/>
<stop offset="1" stop-color="#E85555"/>
</linearGradient>
<linearGradient id="paint1_linear_1628_44386" x1="21.2491" y1="0" x2="21.2491" y2="48.123" gradientUnits="userSpaceOnUse">
<stop stop-color="#FF7981"/>
<stop offset="1" stop-color="#E85567"/>
</linearGradient>
<linearGradient id="paint2_linear_1628_44386" x1="34.5304" y1="0" x2="34.5304" y2="15.9368" gradientUnits="userSpaceOnUse">
<stop stop-color="#D03954"/>
<stop offset="1" stop-color="#C02A3C"/>
</linearGradient>
</defs>
</svg>
