<svg width="44" height="49" viewBox="0 0 44 49" fill="none" xmlns="http://www.w3.org/2000/svg">
<mask id="mask0_1628_44391" style="mask-type:alpha" maskUnits="userSpaceOnUse" x="0" y="0" width="44" height="49">
<path d="M40.0502 48.123H4.42662C2.52822 48.123 0.989258 46.5841 0.989258 44.6857V3.43736C0.989258 1.53896 2.52822 0 4.42662 0H27.5507L43.4875 15.9368V44.6857C43.4875 46.5841 41.9486 48.123 40.0502 48.123Z" fill="url(#paint0_linear_1628_44391)"/>
</mask>
<g mask="url(#mask0_1628_44391)">
<path d="M40.0502 48.123H4.42662C2.52822 48.123 0.989258 46.5841 0.989258 44.6857V3.43736C0.989258 1.53896 2.52822 0 4.42662 0H27.5507L43.4875 15.9368V44.6857C43.4875 46.5841 41.9486 48.123 40.0502 48.123Z" fill="url(#paint1_linear_1628_44391)"/>
<g opacity="0.82" filter="url(#filter0_f_1628_44391)">
<rect x="8.48828" y="23.2803" width="27.8114" height="13.1245" fill="#0F7D56" fill-opacity="0.27" style="mix-blend-mode:darken"/>
</g>
<path d="M10.9561 33.717C10.8162 33.717 10.6927 33.6676 10.5858 33.5689C10.487 33.4619 10.4376 33.3385 10.4376 33.1986C10.4376 33.0669 10.4747 32.9517 10.5487 32.853L13.4 29.3475L10.5734 25.8667C10.4994 25.7679 10.4623 25.6527 10.4623 25.5211C10.4623 25.3647 10.5117 25.2372 10.6104 25.1384C10.7174 25.0315 10.8491 24.978 11.0054 24.978C11.0959 24.978 11.1823 24.9985 11.2646 25.0397C11.3469 25.0808 11.4128 25.1343 11.4621 25.2002L14.0665 28.5081L16.671 25.1755C16.7615 25.0438 16.8973 24.978 17.0783 24.978C17.2264 24.978 17.354 25.0315 17.4609 25.1384C17.5679 25.2372 17.6214 25.3606 17.6214 25.5087C17.6214 25.6239 17.5885 25.7268 17.5227 25.8173L14.6714 29.3351L17.5227 32.8406C17.5967 32.9229 17.6337 33.0299 17.6337 33.1615C17.6337 33.3179 17.5803 33.4496 17.4733 33.5565C17.3745 33.6635 17.2429 33.717 17.0783 33.717C16.8973 33.717 16.7491 33.6388 16.6339 33.4825L13.9925 30.1621L11.3881 33.4948C11.2646 33.6429 11.1206 33.717 10.9561 33.717ZM21.0145 33.6553C20.8006 33.6553 20.6154 33.5812 20.4591 33.4331C20.311 33.2767 20.2369 33.0916 20.2369 32.8776V25.5458C20.2369 25.3894 20.2904 25.2578 20.3974 25.1508C20.5044 25.0356 20.636 24.978 20.7924 24.978C20.9487 24.978 21.0804 25.0356 21.1873 25.1508C21.3025 25.2578 21.3602 25.3894 21.3602 25.5458V32.532H25.3964C25.5527 32.532 25.6844 32.5896 25.7914 32.7048C25.9066 32.8118 25.9642 32.9435 25.9642 33.0998C25.9642 33.2562 25.9066 33.3878 25.7914 33.4948C25.6844 33.6018 25.5527 33.6553 25.3964 33.6553H21.0145ZM30.9283 33.7787C29.8832 33.7787 28.904 33.5812 27.9906 33.1862C27.8918 33.1451 27.8096 33.0793 27.7437 32.9887C27.6779 32.89 27.645 32.7871 27.645 32.6802C27.645 32.5403 27.6902 32.4209 27.7808 32.3222C27.8795 32.2152 28.0029 32.1617 28.1511 32.1617C28.2333 32.1617 28.3115 32.1782 28.3856 32.2111C29.1426 32.5485 29.9532 32.7172 30.8172 32.7172C32.2572 32.7172 32.9773 32.244 32.9773 31.2977C32.9773 31.0508 32.8826 30.8451 32.6934 30.6806C32.5123 30.516 32.286 30.3884 32.0145 30.2979C31.7429 30.1992 31.3562 30.084 30.8542 29.9523C30.1877 29.7795 29.6487 29.6149 29.2373 29.4586C28.8258 29.294 28.472 29.0512 28.1757 28.7303C27.8795 28.4094 27.7314 27.9815 27.7314 27.4466C27.7314 26.9776 27.8548 26.5538 28.1017 26.1753C28.3485 25.7885 28.7106 25.484 29.1879 25.2619C29.6734 25.0315 30.2535 24.9163 30.9283 24.9163C31.8335 24.9163 32.6522 25.052 33.3846 25.3236C33.615 25.4059 33.7302 25.5704 33.7302 25.8173C33.7302 25.949 33.6849 26.0683 33.5944 26.1753C33.5039 26.2822 33.3846 26.3357 33.2365 26.3357C33.1871 26.3357 33.1213 26.3193 33.039 26.2864C32.3971 26.0642 31.7347 25.9531 31.0517 25.9531C30.4016 25.9531 29.8709 26.0765 29.4594 26.3234C29.0562 26.5703 28.8546 26.9159 28.8546 27.3602C28.8546 27.6565 28.9493 27.8992 29.1385 28.0885C29.336 28.2695 29.5788 28.4135 29.8668 28.5205C30.163 28.6192 30.5621 28.7262 31.0641 28.8414C31.7141 28.9978 32.2367 29.1541 32.6317 29.3105C33.0349 29.4668 33.3764 29.7095 33.6561 30.0387C33.9442 30.3679 34.0882 30.8122 34.0882 31.3718C34.0882 31.8326 33.9565 32.2481 33.6932 32.6184C33.4299 32.9805 33.0596 33.2644 32.5823 33.4701C32.105 33.6758 31.5537 33.7787 30.9283 33.7787Z" fill="white"/>
<path d="M10.5858 33.5689L10.3561 33.7808L10.3646 33.79L10.3738 33.7985L10.5858 33.5689ZM10.5487 32.853L10.3061 32.6556L10.2987 32.6655L10.5487 32.853ZM13.4 29.3475L13.6424 29.5447L13.8027 29.3476L13.6426 29.1505L13.4 29.3475ZM10.5734 25.8667L10.3232 26.0543L10.3308 26.0637L10.5734 25.8667ZM10.6104 25.1384L10.3895 24.9175L10.3895 24.9175L10.6104 25.1384ZM11.2646 25.0397L11.4044 24.7602H11.4044L11.2646 25.0397ZM11.4621 25.2002L11.2121 25.3877L11.2166 25.3935L11.4621 25.2002ZM14.0665 28.5081L13.821 28.7014L14.0675 29.0145L14.3128 28.7006L14.0665 28.5081ZM16.671 25.1755L16.9172 25.3679L16.9231 25.3604L16.9285 25.3525L16.671 25.1755ZM17.4609 25.1384L17.2398 25.3596L17.249 25.3681L17.4609 25.1384ZM17.5227 25.8173L17.7654 26.0141L17.7706 26.0077L17.7754 26.0011L17.5227 25.8173ZM14.6714 29.3351L14.4286 29.1384L14.2688 29.3355L14.4289 29.5323L14.6714 29.3351ZM17.5227 32.8406L17.2802 33.0378L17.2852 33.0439L17.2904 33.0497L17.5227 32.8406ZM17.4733 33.5565L17.2521 33.3354L17.2437 33.3446L17.4733 33.5565ZM16.6339 33.4825L16.8857 33.297L16.8785 33.2879L16.6339 33.4825ZM13.9925 30.1621L14.237 29.9676L13.9903 29.6574L13.7463 29.9697L13.9925 30.1621ZM11.3881 33.4948L11.6282 33.695L11.6343 33.6872L11.3881 33.4948ZM10.9561 33.4045C10.8982 33.4045 10.8495 33.3871 10.7977 33.3393L10.3738 33.7985C10.5359 33.9481 10.7342 34.0295 10.9561 34.0295V33.4045ZM10.8154 33.3569C10.7675 33.3051 10.7501 33.2565 10.7501 33.1986H10.1251C10.1251 33.4205 10.2065 33.6187 10.3561 33.7808L10.8154 33.3569ZM10.7501 33.1986C10.7501 33.1297 10.768 33.0814 10.7987 33.0405L10.2987 32.6655C10.1813 32.822 10.1251 33.0041 10.1251 33.1986H10.7501ZM10.7911 33.0501L13.6424 29.5447L13.1576 29.1503L10.3063 32.6558L10.7911 33.0501ZM13.6426 29.1505L10.816 25.6697L10.3308 26.0637L13.1574 29.5445L13.6426 29.1505ZM10.8234 25.6792C10.7927 25.6383 10.7748 25.5899 10.7748 25.5211H10.1498C10.1498 25.7156 10.206 25.8976 10.3234 26.0542L10.8234 25.6792ZM10.7748 25.5211C10.7748 25.4368 10.7985 25.3923 10.8314 25.3594L10.3895 24.9175C10.2249 25.0821 10.1498 25.2927 10.1498 25.5211H10.7748ZM10.8314 25.3594C10.8776 25.3132 10.9289 25.2905 11.0054 25.2905V24.6655C10.7693 24.6655 10.5572 24.7497 10.3895 24.9175L10.8314 25.3594ZM11.0054 25.2905C11.0466 25.2905 11.0852 25.2994 11.1249 25.3192L11.4044 24.7602C11.2794 24.6977 11.1453 24.6655 11.0054 24.6655V25.2905ZM11.1249 25.3192C11.169 25.3412 11.1952 25.365 11.2121 25.3876L11.7121 25.0127C11.6303 24.9036 11.5249 24.8204 11.4044 24.7602L11.1249 25.3192ZM11.2166 25.3935L13.821 28.7014L14.3121 28.3148L11.7076 25.0068L11.2166 25.3935ZM14.3128 28.7006L16.9172 25.3679L16.4248 24.983L13.8203 28.3157L14.3128 28.7006ZM16.9285 25.3525C16.9522 25.318 16.9842 25.2905 17.0783 25.2905V24.6655C16.8103 24.6655 16.5708 24.7696 16.4135 24.9984L16.9285 25.3525ZM17.0783 25.2905C17.1416 25.2905 17.1902 25.3096 17.24 25.3594L17.6819 24.9175C17.5177 24.7533 17.3113 24.6655 17.0783 24.6655V25.2905ZM17.249 25.3681C17.2906 25.4065 17.3089 25.4461 17.3089 25.5087H17.9339C17.9339 25.2751 17.8452 25.0679 17.6729 24.9088L17.249 25.3681ZM17.3089 25.5087C17.3089 25.56 17.2957 25.5981 17.2699 25.6335L17.7754 26.0011C17.8813 25.8555 17.9339 25.6879 17.9339 25.5087H17.3089ZM17.2799 25.6205L14.4286 29.1384L14.9141 29.5319L17.7654 26.0141L17.2799 25.6205ZM14.4289 29.5323L17.2802 33.0378L17.7651 32.6434L14.9138 29.138L14.4289 29.5323ZM17.2904 33.0497C17.3033 33.064 17.3213 33.0916 17.3213 33.1615H17.9462C17.9462 32.9681 17.8901 32.7818 17.7549 32.6316L17.2904 33.0497ZM17.3213 33.1615C17.3213 33.2381 17.2985 33.2893 17.2523 33.3356L17.6942 33.7775C17.862 33.6098 17.9462 33.3977 17.9462 33.1615H17.3213ZM17.2437 33.3446C17.2121 33.3788 17.1682 33.4045 17.0783 33.4045V34.0295C17.3175 34.0295 17.537 33.9482 17.7029 33.7685L17.2437 33.3446ZM17.0783 33.4045C17.0047 33.4045 16.9468 33.3803 16.8855 33.2971L16.3824 33.6678C16.5515 33.8973 16.7898 34.0295 17.0783 34.0295V33.4045ZM16.8785 33.2879L14.237 29.9676L13.7479 30.3567L16.3894 33.677L16.8785 33.2879ZM13.7463 29.9697L11.1418 33.3024L11.6343 33.6872L14.2387 30.3546L13.7463 29.9697ZM11.148 33.2948C11.0726 33.3852 11.0115 33.4045 10.9561 33.4045V34.0295C11.2297 34.0295 11.4566 33.9006 11.6281 33.6949L11.148 33.2948ZM20.4591 33.4331L20.2322 33.648L20.2381 33.6541L20.2442 33.6599L20.4591 33.4331ZM20.3974 25.1508L20.6185 25.3719L20.6264 25.3634L20.3974 25.1508ZM21.1873 25.1508L20.9584 25.3634L20.9662 25.3719L20.9747 25.3798L21.1873 25.1508ZM21.3602 32.532H21.0477V32.8445H21.3602V32.532ZM25.7914 32.7048L25.5624 32.9175L25.5703 32.926L25.5787 32.9338L25.7914 32.7048ZM25.7914 33.4948L25.5786 33.2657L25.5704 33.2738L25.7914 33.4948ZM21.0145 33.3428C20.8811 33.3428 20.7727 33.2998 20.674 33.2062L20.2442 33.6599C20.4581 33.8626 20.72 33.9678 21.0145 33.9678V33.3428ZM20.6859 33.2182C20.5924 33.1194 20.5494 33.0111 20.5494 32.8776H19.9244C19.9244 33.1721 20.0295 33.434 20.2322 33.648L20.6859 33.2182ZM20.5494 32.8776V25.5458H19.9244V32.8776H20.5494ZM20.5494 25.5458C20.5494 25.4692 20.5721 25.418 20.6183 25.3717L20.1764 24.9298C20.0087 25.0975 19.9244 25.3096 19.9244 25.5458H20.5494ZM20.6264 25.3634C20.6746 25.3115 20.7235 25.2905 20.7924 25.2905V24.6655C20.5486 24.6655 20.3341 24.7597 20.1684 24.9381L20.6264 25.3634ZM20.7924 25.2905C20.8613 25.2905 20.9101 25.3115 20.9584 25.3634L21.4163 24.9381C21.2506 24.7597 21.0361 24.6655 20.7924 24.6655V25.2905ZM20.9747 25.3798C21.0266 25.428 21.0477 25.4769 21.0477 25.5458H21.6726C21.6726 25.302 21.5785 25.0875 21.4 24.9218L20.9747 25.3798ZM21.0477 25.5458V32.532H21.6726V25.5458H21.0477ZM21.3602 32.8445H25.3964V32.2196H21.3602V32.8445ZM25.3964 32.8445C25.4653 32.8445 25.5142 32.8655 25.5624 32.9175L26.0204 32.4922C25.8546 32.3137 25.6402 32.2196 25.3964 32.2196V32.8445ZM25.5787 32.9338C25.6307 32.9821 25.6517 33.0309 25.6517 33.0998H26.2767C26.2767 32.856 26.1825 32.6416 26.004 32.4759L25.5787 32.9338ZM25.6517 33.0998C25.6517 33.1687 25.6307 33.2176 25.5787 33.2658L26.004 33.7238C26.1825 33.5581 26.2767 33.3436 26.2767 33.0998H25.6517ZM25.5704 33.2738C25.5242 33.3201 25.473 33.3428 25.3964 33.3428V33.9678C25.6325 33.9678 25.8446 33.8835 26.0123 33.7158L25.5704 33.2738ZM25.3964 33.3428H21.0145V33.9678H25.3964V33.3428ZM27.9906 33.1862L28.1146 32.8994L28.1108 32.8978L27.9906 33.1862ZM27.7437 32.9887L27.4835 33.1622L27.491 33.1725L27.7437 32.9887ZM27.7808 32.3222L27.5511 32.1102L27.5504 32.111L27.7808 32.3222ZM28.3856 32.2111L28.5128 31.9257L28.5125 31.9256L28.3856 32.2111ZM32.6934 30.6806L32.4831 30.9118L32.4883 30.9164L32.6934 30.6806ZM32.0145 30.2979L31.9077 30.5917L31.9157 30.5944L32.0145 30.2979ZM30.8542 29.9523L30.9335 29.65L30.9326 29.6498L30.8542 29.9523ZM29.2373 29.4586L29.1212 29.7488L29.1263 29.7507L29.2373 29.4586ZM28.1757 28.7303L27.9461 28.9423L28.1757 28.7303ZM28.1017 26.1753L28.3634 26.346L28.3651 26.3434L28.1017 26.1753ZM29.1879 25.2619L29.3198 25.5452L29.3219 25.5442L29.1879 25.2619ZM33.3846 25.3236L33.2759 25.6166L33.2795 25.6179L33.3846 25.3236ZM33.5944 26.1753L33.833 26.3771L33.833 26.3771L33.5944 26.1753ZM33.039 26.2864L33.155 25.9962L33.1482 25.9935L33.1412 25.9911L33.039 26.2864ZM29.4594 26.3234L29.2987 26.0554L29.2963 26.0569L29.4594 26.3234ZM29.1385 28.0885L28.9173 28.3096L28.9274 28.3188L29.1385 28.0885ZM29.8668 28.5205L29.7579 28.8136L29.768 28.8169L29.8668 28.5205ZM31.0641 28.8414L31.1371 28.5376L31.134 28.5368L31.0641 28.8414ZM32.6317 29.3105L32.5166 29.601L32.5187 29.6018L32.6317 29.3105ZM33.6561 30.0387L33.418 30.2411L33.421 30.2445L33.6561 30.0387ZM33.6932 32.6184L33.9459 32.8022L33.9478 32.7995L33.6932 32.6184ZM32.5823 33.4701L32.706 33.7571L32.5823 33.4701ZM30.9283 33.4662C29.9237 33.4662 28.9869 33.2766 28.1146 32.8994L27.8666 33.473C28.8211 33.8858 29.8427 34.0912 30.9283 34.0912V33.4662ZM28.1108 32.8978C28.0675 32.8797 28.0302 32.8513 27.9964 32.8049L27.491 33.1725C27.5889 33.3072 27.7162 33.4104 27.8704 33.4747L28.1108 32.8978ZM28.0037 32.8154C27.9682 32.7622 27.9575 32.7188 27.9575 32.6802H27.3325C27.3325 32.8555 27.3876 33.0178 27.4837 33.1621L28.0037 32.8154ZM27.9575 32.6802C27.9575 32.6146 27.9759 32.5717 28.0111 32.5334L27.5504 32.111C27.4045 32.2702 27.3325 32.4659 27.3325 32.6802H27.9575ZM28.0104 32.5342C28.0488 32.4925 28.0884 32.4742 28.1511 32.4742V31.8493C27.9174 31.8493 27.7102 31.9379 27.5511 32.1102L28.0104 32.5342ZM28.1511 32.4742C28.1903 32.4742 28.2252 32.4818 28.2587 32.4967L28.5125 31.9256C28.3979 31.8746 28.2764 31.8493 28.1511 31.8493V32.4742ZM28.2584 32.4965C29.0572 32.8525 29.9112 33.0297 30.8172 33.0297V32.4047C29.9951 32.4047 29.2281 32.2445 28.5128 31.9257L28.2584 32.4965ZM30.8172 33.0297C31.5615 33.0297 32.174 32.9092 32.6089 32.6235C33.0666 32.3227 33.2898 31.8638 33.2898 31.2977H32.6648C32.6648 31.6779 32.528 31.9288 32.2656 32.1012C31.9804 32.2886 31.5129 32.4047 30.8172 32.4047V33.0297ZM33.2898 31.2977C33.2898 30.9588 33.1547 30.6676 32.8984 30.4447L32.4883 30.9164C32.6106 31.0227 32.6648 31.1429 32.6648 31.2977H33.2898ZM32.9036 30.4493C32.6854 30.2509 32.4192 30.1034 32.1133 30.0015L31.9157 30.5944C32.1529 30.6734 32.3393 30.781 32.4832 30.9118L32.9036 30.4493ZM32.1213 30.0042C31.8363 29.9006 31.4387 29.7825 30.9335 29.65L30.7749 30.2546C31.2737 30.3854 31.6496 30.4977 31.9077 30.5916L32.1213 30.0042ZM30.9326 29.6498C30.2717 29.4785 29.7449 29.3172 29.3483 29.1665L29.1263 29.7507C29.5526 29.9127 30.1036 30.0805 30.7758 30.2548L30.9326 29.6498ZM29.3533 29.1684C28.9844 29.0209 28.6696 28.8046 28.4054 28.5184L27.9461 28.9423C28.2744 29.2979 28.6672 29.5671 29.1212 29.7487L29.3533 29.1684ZM28.4054 28.5184C28.1738 28.2675 28.0439 27.9215 28.0439 27.4466H27.4189C27.4189 28.0415 27.5852 28.5513 27.9461 28.9423L28.4054 28.5184ZM28.0439 27.4466C28.0439 27.0358 28.151 26.6717 28.3634 26.346L27.8399 26.0046C27.5587 26.4359 27.4189 26.9194 27.4189 27.4466H28.0439ZM28.3651 26.3434C28.5755 26.0138 28.8883 25.746 29.3198 25.5452L29.056 24.9786C28.533 25.2221 28.1216 25.5632 27.8383 26.0071L28.3651 26.3434ZM29.3219 25.5442C29.7562 25.338 30.2884 25.2287 30.9283 25.2287V24.6038C30.2187 24.6038 29.5906 24.7249 29.0539 24.9796L29.3219 25.5442ZM30.9283 25.2287C31.8022 25.2287 32.5834 25.3598 33.276 25.6166L33.4932 25.0306C32.721 24.7443 31.8647 24.6038 30.9283 24.6038V25.2287ZM33.2795 25.6179C33.3472 25.642 33.3748 25.6694 33.3878 25.6879C33.4009 25.7067 33.4177 25.7431 33.4177 25.8173H34.0427C34.0427 25.6446 34.0019 25.4753 33.8998 25.3295C33.7976 25.1835 33.6524 25.0874 33.4897 25.0293L33.2795 25.6179ZM33.4177 25.8173C33.4177 25.8701 33.402 25.9189 33.3559 25.9734L33.833 26.3771C33.9679 26.2176 34.0427 26.0279 34.0427 25.8173H33.4177ZM33.3559 25.9734C33.3285 26.0058 33.2987 26.0232 33.2365 26.0232V26.6482C33.4705 26.6482 33.6793 26.5587 33.833 26.3771L33.3559 25.9734ZM33.2365 26.0232C33.2448 26.0232 33.2425 26.0244 33.2259 26.0202C33.2101 26.0163 33.1868 26.0089 33.155 25.9962L32.9229 26.5765C33.0175 26.6143 33.1274 26.6482 33.2365 26.6482V26.0232ZM33.1412 25.9911C32.4663 25.7574 31.7693 25.6406 31.0517 25.6406V26.2656C31.7001 26.2656 32.328 26.3709 32.9368 26.5817L33.1412 25.9911ZM31.0517 25.6406C30.3644 25.6406 29.773 25.7708 29.2987 26.0554L29.6202 26.5913C29.9688 26.3822 30.4389 26.2656 31.0517 26.2656V25.6406ZM29.2963 26.0569C28.8075 26.3561 28.5421 26.7989 28.5421 27.3602H29.1671C29.1671 27.0328 29.305 26.7844 29.6226 26.5899L29.2963 26.0569ZM28.5421 27.3602C28.5421 27.7296 28.6632 28.055 28.9176 28.3094L29.3595 27.8675C29.2353 27.7434 29.1671 27.5833 29.1671 27.3602H28.5421ZM28.9274 28.3188C29.1586 28.5308 29.4376 28.6944 29.758 28.8134L29.9756 28.2276C29.7199 28.1326 29.5134 28.0082 29.3497 27.8581L28.9274 28.3188ZM29.768 28.8169C30.0778 28.9202 30.4878 29.0298 30.9942 29.146L31.134 28.5368C30.6364 28.4226 30.2482 28.3182 29.9656 28.224L29.768 28.8169ZM30.991 29.1452C31.6339 29.2999 32.1407 29.4522 32.5166 29.601L32.7467 29.0199C32.3326 28.856 31.7944 28.6957 31.1371 28.5376L30.991 29.1452ZM32.5187 29.6018C32.8735 29.7394 33.172 29.9516 33.418 30.2411L33.8942 29.8363C33.5808 29.4675 33.1962 29.1942 32.7446 29.0191L32.5187 29.6018ZM33.421 30.2445C33.6465 30.5022 33.7757 30.8662 33.7757 31.3718H34.4006C34.4006 30.7583 34.2418 30.2335 33.8913 29.8329L33.421 30.2445ZM33.7757 31.3718C33.7757 31.7687 33.6637 32.1207 33.4385 32.4373L33.9478 32.7995C34.2493 32.3755 34.4006 31.8965 34.4006 31.3718H33.7757ZM33.4405 32.4346C33.2151 32.7445 32.8928 32.996 32.4586 33.1832L32.706 33.7571C33.2263 33.5328 33.6446 33.2165 33.9459 32.8022L33.4405 32.4346ZM32.4586 33.1832C32.0275 33.369 31.5196 33.4662 30.9283 33.4662V34.0912C31.5877 34.0912 32.1825 33.9827 32.706 33.7571L32.4586 33.1832Z" fill="white"/>
<g filter="url(#filter1_d_1628_44391)">
<path d="M43.4876 15.9368H30.9881C29.0897 15.9368 27.5508 14.3979 27.5508 12.4995V0L43.4876 15.9368Z" fill="url(#paint2_linear_1628_44391)"/>
</g>
</g>
<defs>
<filter id="filter0_f_1628_44391" x="2.39478" y="17.1868" width="39.9985" height="25.3115" filterUnits="userSpaceOnUse" color-interpolation-filters="sRGB">
<feFlood flood-opacity="0" result="BackgroundImageFix"/>
<feBlend mode="normal" in="SourceGraphic" in2="BackgroundImageFix" result="shape"/>
<feGaussianBlur stdDeviation="3.04675" result="effect1_foregroundBlur_1628_44391"/>
</filter>
<filter id="filter1_d_1628_44391" x="23.9572" y="-3.74985" width="23.7487" height="23.7492" filterUnits="userSpaceOnUse" color-interpolation-filters="sRGB">
<feFlood flood-opacity="0" result="BackgroundImageFix"/>
<feColorMatrix in="SourceAlpha" type="matrix" values="0 0 0 0 0 0 0 0 0 0 0 0 0 0 0 0 0 0 127 0" result="hardAlpha"/>
<feOffset dx="0.312487" dy="0.156244"/>
<feGaussianBlur stdDeviation="1.95305"/>
<feColorMatrix type="matrix" values="0 0 0 0 0 0 0 0 0 0 0 0 0 0 0 0 0 0 0.33 0"/>
<feBlend mode="normal" in2="BackgroundImageFix" result="effect1_dropShadow_1628_44391"/>
<feBlend mode="normal" in="SourceGraphic" in2="effect1_dropShadow_1628_44391" result="shape"/>
</filter>
<linearGradient id="paint0_linear_1628_44391" x1="22.2384" y1="0" x2="22.2384" y2="48.123" gradientUnits="userSpaceOnUse">
<stop stop-color="#FF7979"/>
<stop offset="1" stop-color="#E85555"/>
</linearGradient>
<linearGradient id="paint1_linear_1628_44391" x1="22.2384" y1="0" x2="22.2384" y2="48.123" gradientUnits="userSpaceOnUse">
<stop offset="0.000265127" stop-color="#83CC70"/>
<stop offset="1" stop-color="#61A850"/>
</linearGradient>
<linearGradient id="paint2_linear_1628_44391" x1="35.5192" y1="0" x2="35.5192" y2="15.9368" gradientUnits="userSpaceOnUse">
<stop stop-color="#3FAF43"/>
<stop offset="1" stop-color="#0E8312"/>
</linearGradient>
</defs>
</svg>
