<svg width="44" height="49" viewBox="0 0 44 49" fill="none" xmlns="http://www.w3.org/2000/svg">
<mask id="mask0_1628_44384" style="mask-type:alpha" maskUnits="userSpaceOnUse" x="0" y="0" width="44" height="49">
<path d="M40.0463 48.123H4.42271C2.52431 48.123 0.985352 46.5841 0.985352 44.6857V3.43736C0.985352 1.53896 2.52431 0 4.42271 0H27.5468L43.4836 15.9368V44.6857C43.4836 46.5841 41.9447 48.123 40.0463 48.123Z" fill="url(#paint0_linear_1628_44384)"/>
</mask>
<g mask="url(#mask0_1628_44384)">
<path d="M40.0463 48.123H4.42271C2.52431 48.123 0.985352 46.5841 0.985352 44.6857V3.43736C0.985352 1.53896 2.52431 0 4.42271 0H27.5468L43.4836 15.9368V44.6857C43.4836 46.5841 41.9447 48.123 40.0463 48.123Z" fill="url(#paint1_linear_1628_44384)"/>
<g filter="url(#filter0_f_1628_44384)">
<rect x="8.3291" y="22.499" width="27.8114" height="13.1245" fill="#0F7D56" fill-opacity="0.27" style="mix-blend-mode:darken"/>
</g>
<path d="M13.1993 33.6553C13.0018 33.6553 12.8332 33.5853 12.6933 33.4454C12.5534 33.3055 12.4834 33.1369 12.4834 32.9394C12.4834 32.7583 12.5328 32.6061 12.6315 32.4827L17.791 26.1136H13.0389C12.8908 26.1136 12.7632 26.0642 12.6562 25.9654C12.5575 25.8585 12.5081 25.7309 12.5081 25.5828C12.5081 25.4347 12.5575 25.3071 12.6562 25.2002C12.7632 25.0932 12.8908 25.0397 13.0389 25.0397H18.3958C18.6263 25.0397 18.8073 25.1137 18.9389 25.2619C19.0788 25.41 19.1488 25.591 19.1488 25.805C19.1488 25.8873 19.1282 25.9737 19.0871 26.0642C19.0542 26.1547 19.0089 26.2329 18.9513 26.2987L13.8535 32.6061H18.6921C18.8402 32.6061 18.9636 32.6596 19.0624 32.7666C19.1694 32.8653 19.2228 32.9887 19.2228 33.1369C19.2228 33.285 19.1694 33.4084 19.0624 33.5072C18.9636 33.6059 18.8402 33.6553 18.6921 33.6553H13.1993ZM22.3913 33.717C22.2349 33.717 22.1033 33.6635 21.9963 33.5565C21.8893 33.4496 21.8358 33.3179 21.8358 33.1615V25.5458C21.8358 25.3894 21.8893 25.2578 21.9963 25.1508C22.1033 25.0356 22.2349 24.978 22.3913 24.978C22.5476 24.978 22.6793 25.0356 22.7863 25.1508C22.9015 25.2578 22.9591 25.3894 22.9591 25.5458V33.1615C22.9591 33.3179 22.9015 33.4496 22.7863 33.5565C22.6793 33.6635 22.5476 33.717 22.3913 33.717ZM26.7751 33.717C26.6187 33.717 26.4871 33.6635 26.3801 33.5565C26.2731 33.4496 26.2196 33.3179 26.2196 33.1615V25.6075C26.2196 25.4511 26.2731 25.3195 26.3801 25.2125C26.4871 25.0973 26.6187 25.0397 26.7751 25.0397H29.5893C30.3711 25.0397 31.0088 25.1713 31.5025 25.4347C31.9963 25.698 32.3501 26.0354 32.5641 26.4468C32.778 26.8583 32.885 27.3026 32.885 27.7799C32.885 28.2572 32.778 28.7015 32.5641 29.113C32.3501 29.5244 31.9963 29.8618 31.5025 30.1251C31.0088 30.3884 30.3711 30.5201 29.5893 30.5201H27.3429V33.1615C27.3429 33.3179 27.2853 33.4496 27.1701 33.5565C27.0631 33.6635 26.9314 33.717 26.7751 33.717ZM29.4782 29.4586C30.3176 29.4586 30.9059 29.2981 31.2433 28.9772C31.5889 28.6563 31.7617 28.2572 31.7617 27.7799C31.7617 27.3026 31.5889 26.9035 31.2433 26.5826C30.9059 26.2617 30.3176 26.1012 29.4782 26.1012H27.3429V29.4586H29.4782Z" fill="white"/>
<path d="M12.6933 33.4454L12.9142 33.2245H12.9142L12.6933 33.4454ZM12.6315 32.4827L12.3887 32.286L12.3875 32.2875L12.6315 32.4827ZM17.791 26.1136L18.0338 26.3102L18.4463 25.8011H17.791V26.1136ZM12.6562 25.9654L12.4266 26.1774L12.4351 26.1866L12.4443 26.195L12.6562 25.9654ZM12.6562 25.2002L12.4351 24.979L12.4266 24.9882L12.6562 25.2002ZM18.9389 25.2619L18.7053 25.4696L18.7118 25.4764L18.9389 25.2619ZM19.0871 26.0642L18.8026 25.9349L18.7976 25.9459L18.7934 25.9574L19.0871 26.0642ZM18.9513 26.2987L18.7159 26.0928L18.7083 26.1023L18.9513 26.2987ZM13.8535 32.6061L13.6105 32.4097L13.1992 32.9186H13.8535V32.6061ZM19.0624 32.7666L18.8328 32.9785L18.8412 32.9877L18.8504 32.9962L19.0624 32.7666ZM19.0624 33.5072L18.8503 33.2774L18.8414 33.2862L19.0624 33.5072ZM13.1993 33.3428C13.0849 33.3428 12.9956 33.3059 12.9142 33.2245L12.4723 33.6664C12.6707 33.8648 12.9188 33.9678 13.1993 33.9678V33.3428ZM12.9142 33.2245C12.8328 33.1431 12.7959 33.0538 12.7959 32.9394H12.1709C12.1709 33.2199 12.2739 33.468 12.4723 33.6664L12.9142 33.2245ZM12.7959 32.9394C12.7959 32.8184 12.8275 32.738 12.8756 32.6779L12.3875 32.2875C12.2381 32.4742 12.1709 32.6982 12.1709 32.9394H12.7959ZM12.8744 32.6794L18.0338 26.3102L17.5482 25.9169L12.3887 32.286L12.8744 32.6794ZM17.791 25.8011H13.0389V26.426H17.791V25.8011ZM13.0389 25.8011C12.9678 25.8011 12.9163 25.7803 12.8682 25.7358L12.4443 26.195C12.6101 26.3481 12.8137 26.426 13.0389 26.426V25.8011ZM12.8859 25.7535C12.8414 25.7053 12.8206 25.6539 12.8206 25.5828H12.1956C12.1956 25.8079 12.2736 26.0116 12.4266 26.1774L12.8859 25.7535ZM12.8206 25.5828C12.8206 25.5117 12.8414 25.4603 12.8859 25.4121L12.4266 24.9882C12.2736 25.154 12.1956 25.3576 12.1956 25.5828H12.8206ZM12.8772 25.4211C12.927 25.3713 12.9756 25.3522 13.0389 25.3522V24.7272C12.8059 24.7272 12.5994 24.815 12.4353 24.9792L12.8772 25.4211ZM13.0389 25.3522H18.3958V24.7272H13.0389V25.3522ZM18.3958 25.3522C18.553 25.3522 18.6429 25.3992 18.7054 25.4695L19.1725 25.0543C18.9717 24.8283 18.6995 24.7272 18.3958 24.7272V25.3522ZM18.7118 25.4764C18.7939 25.5634 18.8363 25.6664 18.8363 25.805H19.4613C19.4613 25.5156 19.3638 25.2566 19.1661 25.0473L18.7118 25.4764ZM18.8363 25.805C18.8363 25.8344 18.829 25.8767 18.8026 25.9349L19.3715 26.1935C19.4274 26.0707 19.4613 25.9402 19.4613 25.805H18.8363ZM18.7934 25.9574C18.7724 26.0152 18.7458 26.059 18.7161 26.0929L19.1865 26.5045C19.272 26.4067 19.3359 26.2941 19.3807 26.171L18.7934 25.9574ZM18.7083 26.1023L13.6105 32.4097L14.0966 32.8025L19.1943 26.4951L18.7083 26.1023ZM13.8535 32.9186H18.6921V32.2936H13.8535V32.9186ZM18.6921 32.9186C18.7547 32.9186 18.7943 32.9369 18.8328 32.9785L19.292 32.5546C19.1329 32.3823 18.9257 32.2936 18.6921 32.2936V32.9186ZM18.8504 32.9962C18.8921 33.0346 18.9104 33.0742 18.9104 33.1369H19.5353C19.5353 32.9033 19.4467 32.696 19.2743 32.5369L18.8504 32.9962ZM18.9104 33.1369C18.9104 33.1995 18.8921 33.2391 18.8504 33.2775L19.2743 33.7368C19.4467 33.5777 19.5353 33.3705 19.5353 33.1369H18.9104ZM18.8414 33.2862C18.8051 33.3225 18.7629 33.3428 18.6921 33.3428V33.9678C18.9175 33.9678 19.1222 33.8893 19.2833 33.7281L18.8414 33.2862ZM18.6921 33.3428H13.1993V33.9678H18.6921V33.3428ZM21.9963 33.5565L22.2173 33.3356L21.9963 33.5565ZM21.9963 25.1508L22.2174 25.3719L22.2253 25.3634L21.9963 25.1508ZM22.7863 25.1508L22.5573 25.3634L22.5652 25.3719L22.5736 25.3798L22.7863 25.1508ZM22.7863 33.5565L22.5735 33.3274L22.5653 33.3356L22.7863 33.5565ZM22.3913 33.4045C22.3147 33.4045 22.2635 33.3818 22.2173 33.3356L21.7753 33.7775C21.9431 33.9452 22.1552 34.0295 22.3913 34.0295V33.4045ZM22.2173 33.3356C22.1711 33.2893 22.1483 33.2381 22.1483 33.1615H21.5234C21.5234 33.3977 21.6076 33.6098 21.7753 33.7775L22.2173 33.3356ZM22.1483 33.1615V25.5458H21.5234V33.1615H22.1483ZM22.1483 25.5458C22.1483 25.4692 22.1711 25.418 22.2173 25.3717L21.7753 24.9298C21.6076 25.0975 21.5234 25.3096 21.5234 25.5458H22.1483ZM22.2253 25.3634C22.2735 25.3115 22.3224 25.2905 22.3913 25.2905V24.6655C22.1475 24.6655 21.9331 24.7597 21.7673 24.9381L22.2253 25.3634ZM22.3913 25.2905C22.4602 25.2905 22.5091 25.3115 22.5573 25.3634L23.0153 24.9381C22.8495 24.7597 22.6351 24.6655 22.3913 24.6655V25.2905ZM22.5736 25.3798C22.6256 25.428 22.6466 25.4769 22.6466 25.5458H23.2716C23.2716 25.302 23.1774 25.0875 22.9989 24.9218L22.5736 25.3798ZM22.6466 25.5458V33.1615H23.2716V25.5458H22.6466ZM22.6466 33.1615C22.6466 33.2305 22.6256 33.2793 22.5736 33.3275L22.9989 33.7855C23.1774 33.6198 23.2716 33.4053 23.2716 33.1615H22.6466ZM22.5653 33.3356C22.5191 33.3818 22.4679 33.4045 22.3913 33.4045V34.0295C22.6274 34.0295 22.8395 33.9452 23.0072 33.7775L22.5653 33.3356ZM26.3801 33.5565L26.6011 33.3356L26.3801 33.5565ZM26.3801 25.2125L26.6012 25.4336L26.6091 25.4251L26.3801 25.2125ZM32.5641 26.4468L32.2868 26.591L32.5641 26.4468ZM32.5641 29.113L32.2868 28.9688V28.9688L32.5641 29.113ZM27.3429 30.5201V30.2076H27.0304V30.5201H27.3429ZM27.1701 33.5565L26.9573 33.3274L26.9491 33.3356L27.1701 33.5565ZM31.2433 28.9772L31.0307 28.7482L31.028 28.7508L31.2433 28.9772ZM31.2433 26.5826L31.0279 26.809L31.0307 26.8116L31.2433 26.5826ZM27.3429 26.1012V25.7887H27.0304V26.1012H27.3429ZM27.3429 29.4586H27.0304V29.7711H27.3429V29.4586ZM26.7751 33.4045C26.6985 33.4045 26.6473 33.3818 26.6011 33.3356L26.1591 33.7775C26.3269 33.9452 26.5389 34.0295 26.7751 34.0295V33.4045ZM26.6011 33.3356C26.5548 33.2893 26.5321 33.2381 26.5321 33.1615H25.9071C25.9071 33.3977 25.9914 33.6098 26.1591 33.7775L26.6011 33.3356ZM26.5321 33.1615V25.6075H25.9071V33.1615H26.5321ZM26.5321 25.6075C26.5321 25.5309 26.5548 25.4797 26.6011 25.4335L26.1591 24.9915C25.9914 25.1593 25.9071 25.3714 25.9071 25.6075H26.5321ZM26.6091 25.4251C26.6573 25.3732 26.7062 25.3522 26.7751 25.3522V24.7272C26.5313 24.7272 26.3168 24.8214 26.1511 24.9999L26.6091 25.4251ZM26.7751 25.3522H29.5893V24.7272H26.7751V25.3522ZM29.5893 25.3522C30.339 25.3522 30.9214 25.4789 31.3555 25.7104L31.6496 25.1589C31.0962 24.8638 30.4031 24.7272 29.5893 24.7272V25.3522ZM31.3555 25.7104C31.8052 25.9503 32.1075 26.2462 32.2868 26.591L32.8413 26.3027C32.5927 25.8245 32.1873 25.4457 31.6496 25.1589L31.3555 25.7104ZM32.2868 26.591C32.4769 26.9566 32.5725 27.3513 32.5725 27.7799H33.1975C33.1975 27.2539 33.0791 26.7599 32.8413 26.3027L32.2868 26.591ZM32.5725 27.7799C32.5725 28.2085 32.4769 28.6032 32.2868 28.9688L32.8413 29.2571C33.0791 28.7998 33.1975 28.3058 33.1975 27.7799H32.5725ZM32.2868 28.9688C32.1075 29.3135 31.8052 29.6095 31.3555 29.8494L31.6496 30.4008C32.1873 30.114 32.5927 29.7353 32.8413 29.2571L32.2868 28.9688ZM31.3555 29.8494C30.9214 30.0809 30.339 30.2076 29.5893 30.2076V30.8326C30.4031 30.8326 31.0962 30.696 31.6496 30.4008L31.3555 29.8494ZM29.5893 30.2076H27.3429V30.8326H29.5893V30.2076ZM27.0304 30.5201V33.1615H27.6554V30.5201H27.0304ZM27.0304 33.1615C27.0304 33.2305 27.0094 33.2793 26.9574 33.3275L27.3827 33.7855C27.5612 33.6198 27.6554 33.4053 27.6554 33.1615H27.0304ZM26.9491 33.3356C26.9029 33.3818 26.8516 33.4045 26.7751 33.4045V34.0295C27.0112 34.0295 27.2233 33.9452 27.391 33.7775L26.9491 33.3356ZM29.4782 29.7711C30.3395 29.7711 31.0315 29.6099 31.4587 29.2036L31.028 28.7508C30.7804 28.9863 30.2957 29.1461 29.4782 29.1461V29.7711ZM31.456 29.2062C31.8661 28.8253 32.0742 28.3429 32.0742 27.7799H31.4493C31.4493 28.1714 31.3118 28.4872 31.0307 28.7482L31.456 29.2062ZM32.0742 27.7799C32.0742 27.2169 31.8661 26.7345 31.456 26.3536L31.0307 26.8116C31.3118 27.0726 31.4493 27.3883 31.4493 27.7799H32.0742ZM31.4587 26.3562C31.0315 25.9499 30.3395 25.7887 29.4782 25.7887V26.4137C30.2957 26.4137 30.7804 26.5735 31.028 26.809L31.4587 26.3562ZM29.4782 25.7887H27.3429V26.4137H29.4782V25.7887ZM27.0304 26.1012V29.4586H27.6554V26.1012H27.0304ZM27.3429 29.7711H29.4782V29.1461H27.3429V29.7711Z" fill="white"/>
<g filter="url(#filter1_d_1628_44384)">
<path d="M43.4837 15.9368H30.9842C29.0858 15.9368 27.5469 14.3979 27.5469 12.4995V0L43.4837 15.9368Z" fill="url(#paint2_linear_1628_44384)"/>
</g>
</g>
<defs>
<filter id="filter0_f_1628_44384" x="2.2356" y="16.4055" width="39.9985" height="25.3115" filterUnits="userSpaceOnUse" color-interpolation-filters="sRGB">
<feFlood flood-opacity="0" result="BackgroundImageFix"/>
<feBlend mode="normal" in="SourceGraphic" in2="BackgroundImageFix" result="shape"/>
<feGaussianBlur stdDeviation="3.04675" result="effect1_foregroundBlur_1628_44384"/>
</filter>
<filter id="filter1_d_1628_44384" x="23.9533" y="-3.74985" width="23.7487" height="23.7492" filterUnits="userSpaceOnUse" color-interpolation-filters="sRGB">
<feFlood flood-opacity="0" result="BackgroundImageFix"/>
<feColorMatrix in="SourceAlpha" type="matrix" values="0 0 0 0 0 0 0 0 0 0 0 0 0 0 0 0 0 0 127 0" result="hardAlpha"/>
<feOffset dx="0.312487" dy="0.156244"/>
<feGaussianBlur stdDeviation="1.95305"/>
<feColorMatrix type="matrix" values="0 0 0 0 0 0 0 0 0 0 0 0 0 0 0 0 0 0 0.33 0"/>
<feBlend mode="normal" in2="BackgroundImageFix" result="effect1_dropShadow_1628_44384"/>
<feBlend mode="normal" in="SourceGraphic" in2="effect1_dropShadow_1628_44384" result="shape"/>
</filter>
<linearGradient id="paint0_linear_1628_44384" x1="22.2345" y1="0" x2="22.2345" y2="48.123" gradientUnits="userSpaceOnUse">
<stop stop-color="#FF7979"/>
<stop offset="1" stop-color="#E85555"/>
</linearGradient>
<linearGradient id="paint1_linear_1628_44384" x1="22.2345" y1="0" x2="22.2345" y2="48.123" gradientUnits="userSpaceOnUse">
<stop stop-color="#2EBC89"/>
<stop offset="1" stop-color="#1DA473"/>
</linearGradient>
<linearGradient id="paint2_linear_1628_44384" x1="35.5153" y1="0" x2="35.5153" y2="15.9368" gradientUnits="userSpaceOnUse">
<stop stop-color="#23A476"/>
<stop offset="1" stop-color="#11835A"/>
</linearGradient>
</defs>
</svg>
