<svg width="43" height="49" viewBox="0 0 43 49" fill="none" xmlns="http://www.w3.org/2000/svg">
<mask id="mask0_1628_44385" style="mask-type:alpha" maskUnits="userSpaceOnUse" x="0" y="0" width="43" height="49">
<path d="M39.5453 48.123H3.92174C2.02333 48.123 0.484375 46.5841 0.484375 44.6857V3.43736C0.484375 1.53896 2.02333 0 3.92173 0H27.0458L42.9826 15.9368V44.6857C42.9826 46.5841 41.4437 48.123 39.5453 48.123Z" fill="url(#paint0_linear_1628_44385)"/>
</mask>
<g mask="url(#mask0_1628_44385)">
<path d="M39.5433 48.123H3.91978C2.02138 48.123 0.482422 46.5841 0.482422 44.6857V3.43736C0.482422 1.53896 2.02138 0 3.91978 0H27.0438L42.9807 15.9368V44.6857C42.9807 46.5841 41.4417 48.123 39.5433 48.123Z" fill="url(#paint1_linear_1628_44385)"/>
<g filter="url(#filter0_f_1628_44385)">
<rect x="7.82617" y="23.2803" width="27.8114" height="13.1245" fill="#3F3F46" fill-opacity="0.07" style="mix-blend-mode:darken"/>
</g>
<g filter="url(#filter1_d_1628_44385)">
<path d="M42.9818 15.9368H30.4823C28.5839 15.9368 27.0449 14.3979 27.0449 12.4995V0L42.9818 15.9368Z" fill="url(#paint2_linear_1628_44385)"/>
</g>
</g>
<defs>
<filter id="filter0_f_1628_44385" x="1.73267" y="17.1868" width="39.9985" height="25.3115" filterUnits="userSpaceOnUse" color-interpolation-filters="sRGB">
<feFlood flood-opacity="0" result="BackgroundImageFix"/>
<feBlend mode="normal" in="SourceGraphic" in2="BackgroundImageFix" result="shape"/>
<feGaussianBlur stdDeviation="3.04675" result="effect1_foregroundBlur_1628_44385"/>
</filter>
<filter id="filter1_d_1628_44385" x="23.4513" y="-3.74985" width="23.7487" height="23.7492" filterUnits="userSpaceOnUse" color-interpolation-filters="sRGB">
<feFlood flood-opacity="0" result="BackgroundImageFix"/>
<feColorMatrix in="SourceAlpha" type="matrix" values="0 0 0 0 0 0 0 0 0 0 0 0 0 0 0 0 0 0 127 0" result="hardAlpha"/>
<feOffset dx="0.312487" dy="0.156244"/>
<feGaussianBlur stdDeviation="1.95305"/>
<feColorMatrix type="matrix" values="0 0 0 0 0 0 0 0 0 0 0 0 0 0 0 0 0 0 0.33 0"/>
<feBlend mode="normal" in2="BackgroundImageFix" result="effect1_dropShadow_1628_44385"/>
<feBlend mode="normal" in="SourceGraphic" in2="effect1_dropShadow_1628_44385" result="shape"/>
</filter>
<linearGradient id="paint0_linear_1628_44385" x1="21.7335" y1="0" x2="21.7335" y2="48.123" gradientUnits="userSpaceOnUse">
<stop stop-color="#FF7979"/>
<stop offset="1" stop-color="#E85555"/>
</linearGradient>
<linearGradient id="paint1_linear_1628_44385" x1="21.7316" y1="0" x2="21.7316" y2="48.123" gradientUnits="userSpaceOnUse">
<stop stop-color="#B4B6BC"/>
<stop offset="0.0730828" stop-color="#B1B3B9"/>
<stop offset="1" stop-color="#8D8F94"/>
</linearGradient>
<linearGradient id="paint2_linear_1628_44385" x1="35.0133" y1="0" x2="35.0133" y2="15.9368" gradientUnits="userSpaceOnUse">
<stop stop-color="#979CAB"/>
<stop offset="1" stop-color="#797C88"/>
</linearGradient>
</defs>
</svg>
