<svg width="37" height="33" viewBox="0 0 37 33" fill="none" xmlns="http://www.w3.org/2000/svg">
<g clip-path="url(#clip0_1167_11140)">
<path d="M8.02471e-06 11.1155V3.25313C-0.00105125 2.8567 0.102771 2.46524 0.303659 2.1082C0.504547 1.75116 0.797265 1.43786 1.15978 1.19187C1.51956 0.944022 1.94063 0.769957 2.39083 0.682975C2.84103 0.595992 3.30846 0.598393 3.75742 0.689992C5.18729 1.01826 6.50616 1.63233 7.60599 2.48191C8.70582 3.33149 9.55534 4.39241 10.085 5.57778C12.7748 4.94223 15.5468 4.59798 18.3363 4.55305C21.1258 4.59798 23.8978 4.94223 26.5876 5.57778C27.1176 4.39191 27.9678 3.33065 29.0684 2.48102C30.1691 1.6314 31.489 1.01761 32.9197 0.689992C33.3689 0.601074 33.8356 0.600215 34.2852 0.687479C34.7348 0.774743 35.1556 0.947881 35.5163 1.19399C35.877 1.4401 36.1683 1.75285 36.3685 2.10892C36.5687 2.46499 36.6727 2.85521 36.6726 3.25051V11.1129C34.1524 11.166 31.6709 11.6564 29.3778 12.5543C26.441 13.6273 23.9564 15.4438 22.2562 17.7607C20.5561 20.0777 19.7216 22.7846 19.8643 25.5194C19.8643 25.867 19.7033 26.2003 19.4168 26.446C19.1302 26.6918 18.7415 26.8298 18.3363 26.8298C17.931 26.8298 17.5424 26.6918 17.2558 26.446C16.9693 26.2003 16.8083 25.867 16.8083 25.5194C16.9522 22.7834 16.1184 20.075 14.4182 17.7566C12.718 15.4381 10.2327 13.6204 7.29479 12.5465C5.00053 11.6527 2.51922 11.166 8.02471e-06 11.1155ZM30.5605 15.0362C30.2875 16.1332 29.5882 17.1181 28.5771 17.8297C27.5661 18.5413 26.3032 18.9373 24.9954 18.953C23.5614 20.9175 22.8392 23.2028 22.9204 25.5194C22.9204 26.562 22.4374 27.562 21.5777 28.2992C20.718 29.0364 19.5521 29.4506 18.3363 29.4506C17.1205 29.4506 15.9545 29.0364 15.0949 28.2992C14.2352 27.562 13.7522 26.562 13.7522 25.5194C13.8334 23.2028 13.1112 20.9175 11.6772 18.953C10.3693 18.9373 9.1065 18.5413 8.09546 17.8297C7.08442 17.1181 6.38512 16.1332 6.1121 15.0362C4.19953 14.2501 2.11934 13.8086 8.02471e-06 13.7389C0.0480666 17.4945 1.81513 21.0835 4.92024 23.732L12.0362 29.8346C13.713 31.2559 15.9756 32.0531 18.3332 32.0531C20.6909 32.0531 22.9535 31.2559 24.6302 29.8346L31.7462 23.732C34.8536 21.0843 36.6229 17.4952 36.6726 13.7389C34.5532 13.8086 32.473 14.2501 30.5605 15.0362Z" fill="url(#paint0_linear_1167_11140)"/>
</g>
<defs>
<linearGradient id="paint0_linear_1167_11140" x1="36.6726" y1="0.619469" x2="14.3873" y2="31.426" gradientUnits="userSpaceOnUse">
<stop stop-color="#5C8FFF"/>
<stop offset="1" stop-color="#C14BFF"/>
</linearGradient>
<clipPath id="clip0_1167_11140">
<rect width="36.6726" height="31.4336" fill="white" transform="translate(0 0.619469)"/>
</clipPath>
</defs>
</svg>
