<svg width="20" height="20" viewBox="0 0 20 20" fill="none" xmlns="http://www.w3.org/2000/svg">
<path d="M17.5501 9.85012L17.4168 9.66679C17.1835 9.38346 16.9085 9.15846 16.5918 8.99179C16.1668 8.75012 15.6835 8.62512 15.1835 8.62512H4.80848C4.30848 8.62512 3.83348 8.75012 3.40014 8.99179C3.07514 9.16679 2.78348 9.40845 2.54181 9.70845C2.06681 10.3168 1.84181 11.0668 1.91681 11.8168L2.22514 15.7085C2.33348 16.8835 2.47514 18.3335 5.11681 18.3335H14.8835C17.5251 18.3335 17.6585 16.8835 17.7751 15.7001L18.0835 11.8251C18.1585 11.1251 17.9751 10.4251 17.5501 9.85012ZM11.9918 14.4501H8.00014C7.67514 14.4501 7.41681 14.1835 7.41681 13.8668C7.41681 13.5501 7.67514 13.2835 8.00014 13.2835H11.9918C12.3168 13.2835 12.5751 13.5501 12.5751 13.8668C12.5751 14.1918 12.3168 14.4501 11.9918 14.4501Z" fill="#2775FF"/>
<path d="M17.1185 7.01928C17.1639 7.40128 16.7468 7.66014 16.3779 7.55123C15.9986 7.43927 15.6021 7.38329 15.1916 7.38329H4.80826C4.39258 7.38329 3.98265 7.44356 3.5953 7.55903C3.23097 7.66765 2.81659 7.41836 2.81659 7.03818V5.54996C2.81659 2.57496 3.72492 1.66663 6.69992 1.66663H7.68326C8.87492 1.66663 9.24992 2.04996 9.73326 2.67496L10.7333 4.00829C10.9416 4.29163 10.9499 4.30829 11.3166 4.30829H13.2999C15.8457 4.30829 16.8755 4.97475 17.1185 7.01928Z" fill="#2775FF"/>
</svg>
