<svg width="21" height="20" viewBox="0 0 21 20" fill="none" xmlns="http://www.w3.org/2000/svg">
<path d="M13.8332 1.66663H7.1665C3.83317 1.66663 2.1665 3.33329 2.1665 6.66663V17.5C2.1665 17.9583 2.5415 18.3333 2.99984 18.3333H13.8332C17.1665 18.3333 18.8332 16.6666 18.8332 13.3333V6.66663C18.8332 3.33329 17.1665 1.66663 13.8332 1.66663ZM9.75817 13.8833C9.54984 14.0916 9.1665 14.2833 8.88317 14.325L7.14984 14.5666C7.08317 14.575 7.0165 14.5833 6.95817 14.5833C6.6665 14.5833 6.39984 14.4833 6.20817 14.2916C5.97484 14.0583 5.87484 13.7166 5.93317 13.35L6.17484 11.6166C6.2165 11.3333 6.40817 10.9416 6.6165 10.7416L9.75817 7.59996C9.80817 7.74996 9.87484 7.89996 9.94984 8.06663C10.0248 8.21663 10.0998 8.36663 10.1832 8.50829C10.2498 8.62496 10.3248 8.74163 10.3915 8.82496C10.4748 8.94996 10.5582 9.05829 10.6165 9.11663C10.6498 9.16663 10.6832 9.19996 10.6915 9.21663C10.8748 9.42496 11.0665 9.62496 11.2498 9.77496C11.2998 9.82496 11.3332 9.84996 11.3415 9.85829C11.4498 9.94163 11.5498 10.0333 11.6498 10.0916C11.7582 10.175 11.8748 10.25 11.9915 10.3166C12.1332 10.4 12.2832 10.4833 12.4415 10.5583C12.5998 10.6333 12.7498 10.6916 12.8998 10.7416L9.75817 13.8833ZM14.2915 9.35829L13.6415 10.0083C13.5998 10.05 13.5415 10.075 13.4832 10.075C13.4665 10.075 13.4332 10.075 13.4165 10.0666C11.9832 9.65829 10.8415 8.51663 10.4332 7.08329C10.4082 7.00829 10.4332 6.92496 10.4915 6.86663L11.1498 6.20829C12.2248 5.13329 13.2415 5.15829 14.2915 6.20829C14.8248 6.74163 15.0915 7.25829 15.0832 7.79163C15.0832 8.31663 14.8248 8.82496 14.2915 9.35829Z" fill="white"/>
</svg>
