<svg width="22" height="22" viewBox="0 0 22 22" fill="none" xmlns="http://www.w3.org/2000/svg">
<circle cx="11" cy="11" r="11" fill="#02BD84" fill-opacity="0.3"/>
<path d="M15.5483 8.51174C15.8309 8.20892 15.8146 7.73433 15.5117 7.45171C15.2089 7.16908 14.7343 7.18545 14.4517 7.48826L15.5483 8.51174ZM9.40002 14L8.85173 14.5117C8.99357 14.6637 9.19213 14.75 9.40002 14.75C9.60791 14.75 9.80647 14.6637 9.94831 14.5117L9.40002 14ZM7.54829 10.9168C7.26566 10.614 6.79107 10.5976 6.48826 10.8803C6.18545 11.1629 6.16908 11.6375 6.45171 11.9403L7.54829 10.9168ZM14.4517 7.48826L8.85173 13.4883L9.94831 14.5117L15.5483 8.51174L14.4517 7.48826ZM6.45171 11.9403L8.85173 14.5117L9.94831 13.4883L7.54829 10.9168L6.45171 11.9403Z" fill="#50D1B2"/>
</svg>
